<svg xmlns="http://www.w3.org/2000/svg" width="194" height="123" viewBox="0 0 194 123">
  <g id="Anderson_Foundation" data-name="Anderson Foundation" transform="translate(-165 -3345)">
    <rect id="Nav" width="194" height="123" transform="translate(165 3345)" fill="#fff"/>
    <g id="Anderson_foundartion" data-name="Anderson foundartion" transform="translate(139.017 3333.371)">
      <path id="Path_765" data-name="Path 765" d="M131.935,78.807v1.943c4.137,0,4.284,1.346,4.769,4.239l1.124,0,0-10.316H136.7c-.386,2.343-.729,4.136-4.769,4.137m11.54-15.053H120.491V64.6c4.239.6,4.919,1.544,4.92,4.386l0,23.548c0,3.781-1.629,4.137-4.292,4.133v1.013h13.4V96.676c-3.2,0-4.877-.356-4.875-4.141V68.988c0-2.693.192-3.291,2.967-3.291l5.115,0c4.042,0,3.994,1.546,4.48,4.135h1.51ZM125.411,80.736h-4.956L109.826,51.081l-4.518,12.672H102.22l4.389-12.041a9.043,9.043,0,0,0,.765-2.826c0-1.361-1.378-1.832-3.933-2.459v-.889h8.787Z" fill="#484848"/>
    </g>
  </g>
</svg>
