<svg xmlns="http://www.w3.org/2000/svg" xmlns:xlink="http://www.w3.org/1999/xlink" width="194" height="123" viewBox="0 0 194 123"><defs><style>.a{fill:#ccc;}.b{clip-path:url(#a);}.c{fill:#484848;}</style><clipPath id="a"><rect class="a" width="194" height="123" transform="translate(375 2869)"/></clipPath></defs><g class="b" transform="translate(-375 -2869)"><g transform="translate(307.056 2804.179)"><path class="c" d="M275.4,148.8a1.925,1.925,0,0,1-1.437,2.068l1.738,2.41h-1.427l-1.59-2.229h-1.474v2.229h-1.123v-6.631h2.475a3.588,3.588,0,0,1,2.178.512A1.951,1.951,0,0,1,275.4,148.8Zm-1.495.939a1.18,1.18,0,0,0,.343-.944,1.008,1.008,0,0,0-.352-.891,2.346,2.346,0,0,0-1.256-.242h-1.427v2.37h1.4a2.064,2.064,0,0,0,1.293-.292Z" transform="translate(-54.687 -11.673)"/><path class="c" d="M106.41,152.191a2.354,2.354,0,0,0,1-.194,3.452,3.452,0,0,0,.875-.621l.724.74a3.335,3.335,0,0,1-2.564,1.167,3.445,3.445,0,0,1-2.5-.967,3.455,3.455,0,0,1,2.578-5.9,3.35,3.35,0,0,1,2.584,1.139l-.711.777a3.107,3.107,0,0,0-.9-.632,2.52,2.52,0,0,0-.995-.18,2.37,2.37,0,0,0-1.693.649,2.188,2.188,0,0,0-.684,1.659,2.291,2.291,0,0,0,.679,1.688,2.208,2.208,0,0,0,1.61.674Z" transform="translate(0 -11.601)"/><path class="c" d="M119.137,152.29a3.654,3.654,0,0,1-4.986,0,3.476,3.476,0,0,1,0-4.895,3.656,3.656,0,0,1,4.986,0A3.476,3.476,0,0,1,119.137,152.29Zm-.822-4.15a2.338,2.338,0,0,0-3.341,0,2.472,2.472,0,0,0,0,3.405,2.338,2.338,0,0,0,3.341,0,2.471,2.471,0,0,0,0-3.405Z" transform="translate(-3.337 -11.601)"/><g transform="translate(102.946 110.955)"><path class="c" d="M119.942,131.088l-1.876-4.346h-8.454l-1.876,4.346h-4.79l8.715-20.133h4.357l8.715,20.133Zm-6.089-14.143-2.539,5.847h5.05Z" transform="translate(-102.946 -110.955)"/><path class="c" d="M155.161,117.637q0,4.839-3.838,6.251l5.107,7.2h-5.54l-4.473-6.423H143.3v6.423h-4.5V110.955h7.647q4.7,0,6.709,1.58T155.161,117.637Zm-5.426,2.391a3.038,3.038,0,0,0,.837-2.376,2.543,2.543,0,0,0-.869-2.232,5.545,5.545,0,0,0-3.03-.605H143.3v5.963h3.289a4.854,4.854,0,0,0,3.146-.749Z" transform="translate(-114.675 -110.955)"/><path class="c" d="M185.389,113.59a9.429,9.429,0,0,1,2.885,7.331,9.89,9.89,0,0,1-2.813,7.432q-2.814,2.737-8.585,2.736h-6.9V110.955h7.128Q182.5,110.955,185.389,113.59Zm-3.3,11.968a5.9,5.9,0,0,0,1.659-4.522,6.045,6.045,0,0,0-1.659-4.565,7.1,7.1,0,0,0-5.093-1.6h-2.513v12.241h2.857a6.681,6.681,0,0,0,4.749-1.556Z" transform="translate(-124.878 -110.955)"/><path class="c" d="M217.5,110.955v4H207.462v4.148h9.032v3.831h-9.032v4.177h10.36v3.975H202.961V110.955Z" transform="translate(-135.668 -110.955)"/><path class="c" d="M245.119,110.955h4.5v20.133h-4.5l-9.609-12.616v12.616h-4.5V110.955h4.213l9.9,12.958Z" transform="translate(-144.844 -110.955)"/><path class="c" d="M273.775,114.843v16.245h-4.5V114.843h-5.713v-3.888h15.928v3.888Z" transform="translate(-155.495 -110.955)"/></g><path class="c" d="M139.236,147.445a1.476,1.476,0,0,0-.8.2.664.664,0,0,0-.316.6.7.7,0,0,0,.316.616,4.736,4.736,0,0,0,1.337.46,3.672,3.672,0,0,1,1.541.693,1.636,1.636,0,0,1,.519,1.313,1.738,1.738,0,0,1-.657,1.409,2.622,2.622,0,0,1-1.722.54,4.048,4.048,0,0,1-2.765-1.072l.7-.844a3.171,3.171,0,0,0,2.093.869,1.426,1.426,0,0,0,.861-.232.725.725,0,0,0,.316-.616.691.691,0,0,0-.3-.6,3.181,3.181,0,0,0-1.032-.39,9.2,9.2,0,0,1-1.112-.322,2.534,2.534,0,0,1-.676-.384,1.6,1.6,0,0,1-.589-1.366,1.659,1.659,0,0,1,.672-1.418,2.708,2.708,0,0,1,1.659-.5,3.993,3.993,0,0,1,1.264.209,3.319,3.319,0,0,1,1.086.588l-.6.844a2.262,2.262,0,0,0-.8-.436,3.081,3.081,0,0,0-.995-.166Z" transform="translate(-11.039 -11.598)"/><path class="c" d="M147.836,151.768a1.705,1.705,0,0,0,2.474,0,2.139,2.139,0,0,0,.457-1.442v-3.67h1.123v3.718a2.945,2.945,0,0,1-.79,2.205,3.043,3.043,0,0,1-4.054,0,2.945,2.945,0,0,1-.79-2.205v-3.718h1.123v3.67a2.139,2.139,0,0,0,.458,1.442Z" transform="translate(-14.167 -11.681)"/><path class="c" d="M157.248,153.285v-6.631h1.123v5.568h3.036v1.063Z" transform="translate(-17.767 -11.68)"/><path class="c" d="M166.441,147.678v5.61h-1.123v-5.61H163.3v-1.027h5.157v1.027Z" transform="translate(-19.746 -11.679)"/><path class="c" d="M172.776,146.654H173.9v6.631h-1.123Z" transform="translate(-22.847 -11.68)"/><path class="c" d="M182.174,146.654H183.3v6.631h-1.218l-3.768-4.838v4.838h-1.123v-6.631h1.123l3.864,4.952Z" transform="translate(-24.29 -11.68)"/><path class="c" d="M193.408,149.98h1.123v2.268a3.458,3.458,0,0,1-2.693,1.033,3.4,3.4,0,0,1-2.468-.967,3.509,3.509,0,0,1,.018-4.914,3.387,3.387,0,0,1,2.449-.986,3.491,3.491,0,0,1,2.388.835l-.6.853a2.342,2.342,0,0,0-.785-.46,2.968,2.968,0,0,0-.918-.128,2.37,2.37,0,0,0-1.693.649,2.334,2.334,0,0,0,1.594,4.045,2.883,2.883,0,0,0,1.584-.408Z" transform="translate(-27.951 -11.601)"/><path class="c" d="M208.262,146.654v1.053h-3.549v1.755H207.9v1h-3.187v1.778h3.663v1.053H203.59v-6.631Z" transform="translate(-32.928 -11.68)"/><path class="c" d="M217.826,146.652h1.123v6.631h-1.218l-3.766-4.842v4.838h-1.123v-6.631h1.123l3.864,4.952Z" transform="translate(-35.956 -11.678)"/><path class="c" d="M229.058,149.98h1.123v2.268a3.458,3.458,0,0,1-2.693,1.033,3.4,3.4,0,0,1-2.468-.967,3.509,3.509,0,0,1,.018-4.914,3.387,3.387,0,0,1,2.449-.986,3.491,3.491,0,0,1,2.388.835l-.6.853a2.342,2.342,0,0,0-.785-.46,2.975,2.975,0,0,0-.918-.128,2.37,2.37,0,0,0-1.693.649,2.334,2.334,0,0,0,1.594,4.045,2.883,2.883,0,0,0,1.584-.408Z" transform="translate(-39.614 -11.601)"/><path class="c" d="M235.367,146.654h1.124v6.631h-1.124Z" transform="translate(-43.326 -11.68)"/><path class="c" d="M244.764,146.654h1.124v6.631H244.67l-3.768-4.838v4.838h-1.123v-6.631H240.9l3.863,4.952Z" transform="translate(-44.769 -11.68)"/><path class="c" d="M256.271,146.654v1.053h-3.549v1.755h3.187v1h-3.187v1.778h3.663v1.053H251.6v-6.631Z" transform="translate(-48.636 -11.68)"/><path class="c" d="M265.52,146.654v1.053h-3.55v1.755h3.188v1H261.97v1.778h3.664v1.053h-4.786v-6.631Z" transform="translate(-51.663 -11.68)"/><path class="c" d="M282.137,147.445a1.476,1.476,0,0,0-.8.2.665.665,0,0,0-.316.6.7.7,0,0,0,.316.616,4.736,4.736,0,0,0,1.337.46,3.671,3.671,0,0,1,1.541.693,1.636,1.636,0,0,1,.519,1.313,1.738,1.738,0,0,1-.657,1.409,2.626,2.626,0,0,1-1.722.54,4.048,4.048,0,0,1-2.765-1.072l.7-.844a3.171,3.171,0,0,0,2.094.869,1.429,1.429,0,0,0,.861-.232.727.727,0,0,0,.316-.616.691.691,0,0,0-.3-.6,3.182,3.182,0,0,0-1.032-.39,9.2,9.2,0,0,1-1.112-.322,2.515,2.515,0,0,1-.676-.384,1.6,1.6,0,0,1-.59-1.366,1.659,1.659,0,0,1,.672-1.418,2.708,2.708,0,0,1,1.659-.5,4,4,0,0,1,1.264.209,3.311,3.311,0,0,1,1.085.588l-.6.844a2.254,2.254,0,0,0-.8-.436,3.082,3.082,0,0,0-.995-.166Z" transform="translate(-57.793 -11.598)"/><path class="c" d="M130.643,146.654h1.123v6.631h-1.218l-3.768-4.838v4.838h-1.123v-6.631h1.123l3.864,4.952Z" transform="translate(-7.43 -11.68)"/></g></g></svg>