<?xml version="1.0" encoding="utf-8"?>
<!-- Generator: Adobe Illustrator 24.1.0, SVG Export Plug-In . SVG Version: 6.00 Build 0)  -->
<svg version="1.1" id="Layer_1" xmlns="http://www.w3.org/2000/svg" xmlns:xlink="http://www.w3.org/1999/xlink" x="0px" y="0px"
	 viewBox="0 0 432 432" style="enable-background:new 0 0 432 432;" xml:space="preserve">
<style type="text/css">
	.st0{fill:#00C389;}
	.st1{fill:#FFFFFF;}
</style>
<g>
	<circle class="st0" cx="216" cy="216" r="216"/>
	<g id="Group_2" transform="translate(-322.966 -221.923)">
		<g id="Group_10">
			<path id="Path_31" class="st1" d="M614.6,348.7c-0.1-0.8-0.7-1.3-1.5-1.3c-1.5,0.1-3.1,0.1-4.7,0.1c-17.1,0-29.4-4-36.5-11.8
				c-7.3-8.1-11.2-18.8-10.9-29.7c-0.1-0.8-0.8-1.4-1.6-1.3c-0.7,0.1-1.3,0.6-1.3,1.3c0,0.8,0.1,1.7,0.1,2.5
				c-8.1-1.4-16.4-2.1-24.6-2c-27,0-48,6.4-63,19.3c-14.9,12.9-22.4,31.2-22.4,55c-0.7,16.5,3.9,32.8,13.3,46.4
				c-12.8,9.5-18.1,26-13.3,41.2c10.1,34.3,69.2,35.7,111.4,51.9c22.8,8.8,39.2,17,37.5,34c-0.9,8.8-15.9,25.3-56.6,26.9
				c-17.7,0.7-35.3-1.4-52.3-6.2c12.3-0.2,21.5-3.2,27.5-8.8c6.3-6.2,9.7-14.8,9.3-23.7c0.5-8.7-3.1-17.2-9.7-22.9
				c-8.2-5.9-18.3-8.7-28.4-8c-12.4,0-21.7,3-27.8,8.9c-6.1,5.9-9.4,14.1-9.1,22.5c-0.3,8.4,2.8,16.6,8.4,22.9
				c1.5,1.7,3.3,3.1,5.2,4.2c30,20.8,143.3,31.2,154.6-28.2c9.1-47.6-26.8-65.1-45.3-70.3c-26.2-7.4-84.9-13.2-100-23.6
				c-8.7-5.9-9-12.1-7.7-16.3c1.3,1.4,2.6,2.7,3.9,4c14,12.8,34.6,19.1,61.8,19.1c55.4,0,83.1-25.4,83.1-76.3
				c0.1-9.6-1.2-19.2-4-28.4c1.1,0,2.1,0,3.1-0.1C614,350.1,614.6,349.5,614.6,348.7C614.6,348.7,614.6,348.7,614.6,348.7z
				 M551.3,392.9c0,22.3-1,36.7-2.9,43.1c-1.4,8-8.5,13.8-16.7,13.5c-5.7,0.7-11.3-2.2-14.1-7.2c-1.8-3.4-3.3-7.1-4.4-10.8
				c-1.4-4.4-2.1-17.4-2.1-39.2V369c-0.4-13.7,0.6-27.4,2.9-41c0.7-4.7,3-9.1,6.4-12.4c3.3-2.6,7.4-3.9,11.6-3.7
				c7.9-0.3,14.8,5.4,15.9,13.3c2.8,13.9,3.9,28.1,3.4,42.3V392.9z"/>
			<g id="Group_9">
				<path id="Path_32" class="st1" d="M604,334.3c7.9,0.7,15.8-1.7,21.9-6.7c4.8-4.7,7.3-11.2,7-17.9c0.4-6.6-2.3-12.9-7.3-17.2
					c-6.2-4.4-13.8-6.6-21.4-6c-7.6-0.6-15.1,1.8-21,6.7c-4.6,4.4-7.1,10.6-6.9,17c-0.2,6.3,2.1,12.5,6.3,17.2
					C587,332,594,334.3,604,334.3z"/>
			</g>
		</g>
	</g>
</g>
</svg>
