<svg xmlns="http://www.w3.org/2000/svg" width="155.319" height="64" viewBox="0 0 155.319 64"><defs><style>.a{fill:#00c389;}</style></defs><g transform="translate(-322.966 -221.923)"><path class="a" d="M358.848,235.192a.3.3,0,0,0-.32-.267c-.326.014-.661.021-1,.021-3.644,0-6.265-.849-7.792-2.525a9.077,9.077,0,0,1-2.321-6.334.308.308,0,0,0-.614,0c0,.181.013.355.021.532a30.214,30.214,0,0,0-5.256-.434q-8.656,0-13.438,4.119t-4.782,11.746a16.2,16.2,0,0,0,2.842,9.906,7.966,7.966,0,0,0-2.842,8.788c2.155,7.322,14.77,7.619,23.775,11.083,4.861,1.87,8.368,3.636,8.007,7.254-.187,1.878-3.4,5.409-12.087,5.738a36.079,36.079,0,0,1-11.166-1.326c2.632-.052,4.59-.677,5.861-1.886a6.663,6.663,0,0,0,1.991-5.063,5.986,5.986,0,0,0-2.071-4.882,9.309,9.309,0,0,0-6.055-1.71q-3.985,0-5.937,1.894a6.412,6.412,0,0,0-1.952,4.808,6.968,6.968,0,0,0,1.793,4.882,4.864,4.864,0,0,0,1.115.9c6.41,4.438,30.59,6.66,33.005-6.012,1.934-10.15-5.712-13.9-9.661-15.015-5.583-1.572-18.122-2.811-21.354-5.027-1.85-1.268-1.918-2.579-1.639-3.47.267.3.545.583.843.854q4.467,4.086,13.194,4.086,17.73,0,17.733-16.278a20.244,20.244,0,0,0-.851-6.07c.225,0,.452-.005.669-.014A.291.291,0,0,0,358.848,235.192Zm-13.514,9.443q0,7.149-.629,9.192a3.486,3.486,0,0,1-3.561,2.872,3.026,3.026,0,0,1-3-1.532,13.355,13.355,0,0,1-.944-2.3q-.456-1.4-.453-8.36v-4.98a44.408,44.408,0,0,1,.629-8.747,4.726,4.726,0,0,1,1.361-2.647,3.7,3.7,0,0,1,2.478-.8,3.287,3.287,0,0,1,3.385,2.839,39.7,39.7,0,0,1,.734,9.034Z"/><path class="a" d="M356.579,232.129a6.6,6.6,0,0,0,4.682-1.428,5.02,5.02,0,0,0,1.5-3.813,4.508,4.508,0,0,0-1.56-3.677,7.012,7.012,0,0,0-4.56-1.288,6.2,6.2,0,0,0-4.472,1.426,4.833,4.833,0,0,0-1.469,3.622,5.244,5.244,0,0,0,1.35,3.676Q353.4,232.129,356.579,232.129Z"/><path class="a" d="M382.2,252.157q1.581,0,2.016-.582a3.355,3.355,0,0,0,.436-1.967V243.35h-2.064v-.71h11.453v.71h-3.422v9.1h-.483a1.911,1.911,0,0,0-1.646-.806,17.494,17.494,0,0,0-2.693.58,15.671,15.671,0,0,1-3.822.581q-5.258,0-8.146-2.839t-2.887-8.532q0-5.692,3.017-8.79a10.8,10.8,0,0,1,8.113-3.1,16.084,16.084,0,0,1,3.951.5,17.647,17.647,0,0,0,2.306.5.714.714,0,0,0,.484-.144,1.954,1.954,0,0,0,.355-.5h.355l.258,7H389.2a23.125,23.125,0,0,0-3.177-4.919,4.71,4.71,0,0,0-3.565-1.789q-4.934,0-4.935,9.644v2.548a17.218,17.218,0,0,0,1.209,7.307A3.775,3.775,0,0,0,382.2,252.157Z"/><path class="a" d="M395.263,250.737a8.01,8.01,0,0,1-2.065-5.918,7.76,7.76,0,0,1,2.21-5.936,8.708,8.708,0,0,1,6.21-2.081q4,0,5.968,1.92t1.967,5.854q0,8.226-8.193,8.226Q397.326,252.8,395.263,250.737Zm8.1-4.612v-2.742a21.913,21.913,0,0,0-.339-4.565q-.339-1.434-1.565-1.435a1.617,1.617,0,0,0-1.145.4,2.465,2.465,0,0,0-.628,1.337,24.491,24.491,0,0,0-.291,4.42v2.516a22.79,22.79,0,0,0,.21,4.225,7.023,7.023,0,0,0,.436,1.162,1.373,1.373,0,0,0,1.386.774,1.648,1.648,0,0,0,1.645-1.451A22.232,22.232,0,0,0,403.36,246.125Z"/><path class="a" d="M441.7,228.287h7.9V251.9h1.806v.58h-9.581v-.58h1.775V228.867h-1.9Z"/><path class="a" d="M454.057,250.656a8.212,8.212,0,0,1-2.082-5.967,7.33,7.33,0,0,1,2.34-5.854,8.743,8.743,0,0,1,5.951-2.033q7.323,0,7.032,7.355h-9.1v1.258a11.054,11.054,0,0,0,.8,4.773,2.876,2.876,0,0,0,2.808,1.614q3.74,0,4.9-4l.58.1a6.666,6.666,0,0,1-2.21,3.613,7.511,7.511,0,0,1-4.79,1.291Q456.137,252.8,454.057,250.656Zm4.176-7.145h3.323v-1.58a13.63,13.63,0,0,0-.306-3.564,1.208,1.208,0,0,0-1.226-.952,1.433,1.433,0,0,0-1.355,1.016,9.825,9.825,0,0,0-.436,3.5Z"/><path class="a" d="M411.469,264.4v10.87a6.014,6.014,0,0,0,.3,2.226,1.244,1.244,0,0,0,1.275.71,2.1,2.1,0,0,0,1.694-.968,5.609,5.609,0,0,0,.951-2.645l.549.064a6.26,6.26,0,0,1-1.42,3.533,4.913,4.913,0,0,1-3.839,1.306,6.738,6.738,0,0,1-4.1-1.065q-1.419-1.064-1.42-3.87V264.4h-1.774v-.581h1.774v-4.161l6-1.483v5.644h10.989v11.065a7.477,7.477,0,0,0,.274,2.547,1.077,1.077,0,0,0,1.1.614,1.8,1.8,0,0,0,1.467-1,5.094,5.094,0,0,0,.646-2.775V264.4h-1.484v-.581h7.484v14.774h1.774v.581H426.36l-.355-2.356a4.224,4.224,0,0,1-1.531,1.985,5.379,5.379,0,0,1-3.017.693q-5,0-5-5.387V264.4Z"/><path class="a" d="M459.541,278.593V263.819h-7.9v.581h1.9v14.193h-3.876V254.981H439.235v.58h4.334v9.516q-.9-1.58-3.741-1.581-6.385,0-6.387,8.033,0,3.968,1.532,5.967a5.11,5.11,0,0,0,4.306,2q3.355,0,4.453-2.581l.353,2.259h17.263v-.581Zm-15.875-3.806a3.821,3.821,0,0,1-.693,2.483,2.076,2.076,0,0,1-1.645.839A1.341,1.341,0,0,1,440.022,277a17.967,17.967,0,0,1-.355-4.5v-1.678a21.631,21.631,0,0,1,.386-4.968q.387-1.419,1.452-1.418a1.754,1.754,0,0,1,1.614.966,4.731,4.731,0,0,1,.547,2.356Z"/><path class="a" d="M456.509,261.594a3.347,3.347,0,0,0,2.516-.84,3.1,3.1,0,0,0,.806-2.241,2.77,2.77,0,0,0-.838-2.162,3.545,3.545,0,0,0-2.451-.757,3.151,3.151,0,0,0-2.4.839,2.978,2.978,0,0,0-.79,2.128,3.259,3.259,0,0,0,.726,2.162A3.009,3.009,0,0,0,456.509,261.594Z"/><path class="a" d="M463.995,277.431a8.008,8.008,0,0,1-2.065-5.918,7.762,7.762,0,0,1,2.21-5.936,8.708,8.708,0,0,1,6.21-2.081q4,0,5.968,1.92t1.967,5.855q0,8.225-8.193,8.225Q466.059,279.5,463.995,277.431Zm8.1-4.612v-2.742a21.919,21.919,0,0,0-.339-4.565q-.339-1.434-1.564-1.434a1.614,1.614,0,0,0-1.145.4,2.462,2.462,0,0,0-.629,1.338,24.486,24.486,0,0,0-.291,4.419v2.517a22.8,22.8,0,0,0,.21,4.225,7.008,7.008,0,0,0,.436,1.161,1.372,1.372,0,0,0,1.386.775,1.649,1.649,0,0,0,1.645-1.452A22.224,22.224,0,0,0,472.092,272.819Z"/><path class="a" d="M402.53,271.787a7.386,7.386,0,0,0-.871-3.677,4.427,4.427,0,0,0-.984-1.242,10.2,10.2,0,0,0-1.193-.936,7.668,7.668,0,0,0-1.451-.71q-.89-.337-1.485-.531t-2.5-.71a11.768,11.768,0,0,1-3.21-1.339,2.626,2.626,0,0,1-1.307-2.355,3.035,3.035,0,0,1,1.1-2.451,4.652,4.652,0,0,1,3.08-.92,5.131,5.131,0,0,1,3.677,1.694,20.014,20.014,0,0,1,3.242,4.5h.516l-.225-6.515h-.355c-.238.43-.506.644-.807.644a13.118,13.118,0,0,1-2.306-.5,13.7,13.7,0,0,0-3.564-.5,7.532,7.532,0,0,0-5.6,2.064,6.764,6.764,0,0,0-2.047,4.935q0,3.516,2,5.194a9.46,9.46,0,0,0,2.113,1.354A26.031,26.031,0,0,0,393.934,271a12.75,12.75,0,0,1,3.806,1.628,3.088,3.088,0,0,1,1.338,2.693,3,3,0,0,1-1.241,2.63,5.091,5.091,0,0,1-2.071.878,11.736,11.736,0,0,1-1.2.113,14.537,14.537,0,0,1-4.981-.659,3.173,3.173,0,0,0,3.5-3.457,3.14,3.14,0,0,0-.924-2.428,3.856,3.856,0,0,0-2.7-.851,3.438,3.438,0,0,0-2.649.942,3.391,3.391,0,0,0-.87,2.392,3.707,3.707,0,0,0,.8,2.428,2.235,2.235,0,0,0,.5.446c1.442,1.113,4.945,2.13,8.234,1.712a7.59,7.59,0,0,0,4.88-2.081A7.443,7.443,0,0,0,402.53,271.787Z"/><path class="a" d="M440.678,240.533a.123.123,0,0,0-.131-.109c-.134.005-.271.008-.412.008a4.185,4.185,0,0,1-3.2-1.035,3.726,3.726,0,0,1-.952-2.6.127.127,0,0,0-.252,0c0,.074.005.146.008.218a12.417,12.417,0,0,0-2.156-.178,8.192,8.192,0,0,0-5.513,1.69,6.012,6.012,0,0,0-1.962,4.819,6.652,6.652,0,0,0,1.166,4.064,3.268,3.268,0,0,0-1.166,3.605c.884,3,6.06,3.126,9.754,4.547,1.994.767,3.433,1.491,3.285,2.976-.077.77-1.4,2.219-4.959,2.354a14.789,14.789,0,0,1-4.581-.545,3.49,3.49,0,0,0,2.4-.773,2.735,2.735,0,0,0,.816-2.077,2.454,2.454,0,0,0-.849-2,3.819,3.819,0,0,0-2.484-.7,3.378,3.378,0,0,0-2.436.777,2.632,2.632,0,0,0-.8,1.973,2.859,2.859,0,0,0,.735,2,2,2,0,0,0,.457.367c2.63,1.821,12.55,2.733,13.541-2.466.793-4.164-2.344-5.7-3.964-6.16-2.29-.645-7.434-1.153-8.76-2.062-.759-.521-.787-1.058-.673-1.424.11.121.224.239.346.351a7.771,7.771,0,0,0,5.413,1.676q7.273,0,7.275-6.678a8.309,8.309,0,0,0-.349-2.49c.092,0,.185,0,.275-.006A.119.119,0,0,0,440.678,240.533Zm-5.544,3.874a16.563,16.563,0,0,1-.258,3.771,1.429,1.429,0,0,1-1.461,1.178,1.242,1.242,0,0,1-1.231-.628,5.548,5.548,0,0,1-.387-.943,16.985,16.985,0,0,1-.186-3.43v-2.043a18.242,18.242,0,0,1,.258-3.588,1.932,1.932,0,0,1,.559-1.086,1.513,1.513,0,0,1,1.016-.328,1.349,1.349,0,0,1,1.389,1.165,16.289,16.289,0,0,1,.3,3.706Z"/><path class="a" d="M439.747,239.277a2.709,2.709,0,0,0,1.921-.586,2.058,2.058,0,0,0,.615-1.564,1.851,1.851,0,0,0-.64-1.509,2.878,2.878,0,0,0-1.871-.528,2.538,2.538,0,0,0-1.834.585,1.981,1.981,0,0,0-.6,1.485,2.153,2.153,0,0,0,.554,1.509A2.418,2.418,0,0,0,439.747,239.277Z"/><path class="a" d="M425.308,240.533a.123.123,0,0,0-.131-.109c-.134.005-.271.008-.412.008a4.187,4.187,0,0,1-3.2-1.035,3.726,3.726,0,0,1-.952-2.6.127.127,0,0,0-.252,0c0,.074.005.146.008.218a12.417,12.417,0,0,0-2.156-.178,8.192,8.192,0,0,0-5.513,1.69,6.012,6.012,0,0,0-1.962,4.819,6.652,6.652,0,0,0,1.166,4.064,3.268,3.268,0,0,0-1.166,3.605c.885,3,6.06,3.126,9.754,4.547,1.994.767,3.433,1.491,3.285,2.976-.077.77-1.4,2.219-4.959,2.354a14.789,14.789,0,0,1-4.581-.545,3.488,3.488,0,0,0,2.4-.773,2.735,2.735,0,0,0,.816-2.077,2.454,2.454,0,0,0-.849-2,3.819,3.819,0,0,0-2.484-.7,3.378,3.378,0,0,0-2.436.777,2.632,2.632,0,0,0-.8,1.973,2.859,2.859,0,0,0,.735,2,2,2,0,0,0,.458.367c2.629,1.821,12.549,2.733,13.54-2.466.793-4.164-2.344-5.7-3.964-6.16-2.29-.645-7.434-1.153-8.76-2.062-.759-.521-.787-1.058-.673-1.424.11.121.224.239.346.351a7.771,7.771,0,0,0,5.413,1.676q7.273,0,7.275-6.678a8.309,8.309,0,0,0-.349-2.49c.092,0,.185,0,.275-.006A.119.119,0,0,0,425.308,240.533Zm-5.544,3.874a16.563,16.563,0,0,1-.258,3.771,1.429,1.429,0,0,1-1.461,1.178,1.24,1.24,0,0,1-1.23-.628,5.46,5.46,0,0,1-.388-.943,17.068,17.068,0,0,1-.186-3.43v-2.043a18.242,18.242,0,0,1,.258-3.588,1.932,1.932,0,0,1,.559-1.086,1.513,1.513,0,0,1,1.016-.328,1.349,1.349,0,0,1,1.389,1.165,16.289,16.289,0,0,1,.3,3.706Z"/><path class="a" d="M424.377,239.277a2.709,2.709,0,0,0,1.921-.586,2.058,2.058,0,0,0,.615-1.564,1.851,1.851,0,0,0-.64-1.509,2.878,2.878,0,0,0-1.871-.528,2.538,2.538,0,0,0-1.834.585,1.981,1.981,0,0,0-.6,1.485,2.152,2.152,0,0,0,.554,1.509A2.418,2.418,0,0,0,424.377,239.277Z"/></g></svg>