<svg xmlns="http://www.w3.org/2000/svg" xmlns:xlink="http://www.w3.org/1999/xlink" width="301" height="319" viewBox="0 0 301 319"><defs><style>.a,.j,.l{fill:#fff;}.b{clip-path:url(#a);}.c,.q{fill:#1f1f1f;}.d,.g,.h,.k,.m,.n,.o,.p,.r,.s,.t{fill:none;}.d{stroke:#fff;}.d,.h,.i,.j,.k,.l,.m,.n,.o,.p,.q,.r,.s{stroke-linecap:round;}.d,.h,.i,.j,.k,.l,.m,.n,.p,.q,.r{stroke-linejoin:round;}.d,.g,.h,.i,.j,.k,.l,.m,.n,.p,.q,.r,.t{stroke-miterlimit:10;}.d,.g,.h,.i,.j,.k,.q{stroke-width:1.177px;}.e,.i{fill:#00c389;}.f{clip-path:url(#b);}.g,.i,.j,.k,.l,.m,.n,.t{stroke:#00c389;}.h,.o,.p,.q,.r,.s{stroke:#1f1f1f;}.l{stroke-width:1.196px;}.m{stroke-width:1.194px;}.n{stroke-width:1.057px;}.o{stroke-width:1.177px;}.p{stroke-width:1.765px;}.r{stroke-width:1.151px;}.s{stroke-width:1.177px;}.t{stroke-width:0.882px;}</style><clipPath id="a"><rect class="a" width="301" height="319" transform="translate(422.178 241.795)"/></clipPath><clipPath id="b"><path d="M849.851,268.04,864.9,286.57,808.943,437.76l-30.715-73.134Z" transform="translate(-778.228 -268.04)"/></clipPath></defs><g class="b" transform="translate(-422.178 -241.795)"><g transform="translate(97.018 242.938)"><g transform="translate(1.555 0)"><path class="c" d="M240.159,658.762l.589,10.478H195.126s-.208-2.6,1.7-3.692,9.568-3.8,9.568-3.8,6.448-2.039,8.736-4.219,5.235-6.962,5.72-8.966l5.165-.035s4.195-.141,4.853,1.406-.659,4.149-.659,4.149-2.461,3.2.277,4.079S240.159,658.762,240.159,658.762Z" transform="translate(-163.469 -354.148)"/><path class="d" d="M221.887,659.89c1.352,1.09,2.669,3.868-1.352,6.434-1.595,1.02-6.413,3.235-10.123,3.34a4.1,4.1,0,0,1-3.709-1.512l-.451-.563" transform="translate(-168.044 -358.721)"/><path class="e" d="M511.076,332.181s-9.014,1.231-10.4,4.254c-1.837,4.008,6.587,2.848,6.587,2.848l-18.2,3.446,4.749-7.946Z" transform="translate(-284.241 -226.822)"/><path class="e" d="M382.821,635.646s-5.685,11.708-12.376,17.44l-.485-3.8a43.1,43.1,0,0,0,9.5-13.5Z" transform="translate(-235.306 -348.963)"/><path class="e" d="M401.772,661.053c-.139-.035-.277-.106-.381-.141a4.376,4.376,0,0,1-2.045-5.8,4.311,4.311,0,0,1,5.581-2.5c.1.035.208.105.312.141" transform="translate(-247.219 -355.665)"/><path class="e" d="M526.246,633.931c-2.011,15.717-4.056,26.37-4.056,26.37l-3.293.106L523.334,632S526.35,633.087,526.246,633.931Z" transform="translate(-296.499 -347.495)"/><path class="e" d="M796.6,395.557a2.315,2.315,0,0,1-.416.6c-.8.879-1.352,2.145-2.115,3.129-.867,1.125-1.664,2.285-2.461,3.481a39.43,39.43,0,0,1-2.531,3.762,22.5,22.5,0,0,1-2.253,2.215l10.816,4.4,5.755-15.084Z" transform="translate(-406.58 -252.33)"/><path class="e" d="M865.587,430.439c1.317-2.813,2.219-5.8,3.709-8.544,0-.035.035-.035.035-.07l-8.6-3.2-5.477,14.7,8.008,3.235A32.984,32.984,0,0,1,865.587,430.439Z" transform="translate(-434.699 -261.615)"/><path class="e" d="M794.126,449.695l-2.6,6.927a3.144,3.144,0,0,1,.624,1.758,9.669,9.669,0,0,0,.971,2.321c.312.774.589,1.547.9,2.321.624,1.512,1.456,2.883,2.011,4.4l6.9,2.813,5.755-15.084Z" transform="translate(-408.514 -274.12)"/><g transform="translate(375.177 67.034)"><g class="f"><g transform="translate(-48.257 -56.679)"><line class="g" x1="86.669" y2="233.959"/><line class="g" x1="86.669" y2="233.959" transform="translate(14.595 5.555)"/><line class="g" x1="86.669" y2="233.959" transform="translate(29.19 11.111)"/><line class="g" x1="86.669" y2="233.924" transform="translate(43.785 16.701)"/><line class="g" x1="86.669" y2="233.959" transform="translate(58.38 22.257)"/><line class="g" x1="86.669" y2="233.959" transform="translate(72.975 27.812)"/><line class="g" x1="86.669" y2="233.959" transform="translate(87.57 33.367)"/><line class="g" x1="86.669" y2="233.959" transform="translate(102.165 38.923)"/><line class="g" x1="86.669" y2="233.959" transform="translate(116.76 44.513)"/><line class="g" x1="86.669" y2="233.959" transform="translate(131.355 50.069)"/><line class="g" x1="86.634" y2="233.959" transform="translate(145.985 55.624)"/><line class="g" x1="86.669" y2="233.959" transform="translate(160.58 61.18)"/><line class="g" x1="86.669" y2="233.924" transform="translate(175.175 66.77)"/><line class="g" x1="86.669" y2="233.959" transform="translate(189.77 72.326)"/></g><g transform="translate(-61.05 -43.74)"><line class="g" x2="230.678" y2="87.902" transform="translate(0 192.47)"/><line class="g" x2="230.643" y2="87.902" transform="translate(5.512 177.667)"/><line class="g" x2="230.678" y2="87.902" transform="translate(10.99 162.864)"/><line class="g" x2="230.678" y2="87.902" transform="translate(16.467 148.062)"/><line class="g" x2="230.678" y2="87.902" transform="translate(21.945 133.259)"/><line class="g" x2="230.678" y2="87.902" transform="translate(27.422 118.456)"/><line class="g" x2="230.643" y2="87.902" transform="translate(32.934 103.654)"/><line class="g" x2="230.678" y2="87.902" transform="translate(38.412 88.851)"/><line class="g" x2="230.678" y2="87.902" transform="translate(43.889 74.048)"/><line class="g" x2="230.678" y2="87.902" transform="translate(49.367 59.246)"/><line class="g" x2="230.643" y2="87.902" transform="translate(54.879 44.408)"/><line class="g" x2="230.678" y2="87.902" transform="translate(60.356 29.605)"/><line class="g" x2="230.678" y2="87.902" transform="translate(65.834 14.803)"/><line class="g" x2="230.678" y2="87.902" transform="translate(71.311)"/></g></g></g><path class="e" d="M804.324,248.247l-18.27,48.276,55.017-53.2Z" transform="translate(-406.266 -191.058)"/><path class="a" d="M786.054,299.365l7.661-7.384,15.947-41.6-5.339.7Z" transform="translate(-406.266 -193.901)"/><path class="e" d="M996.72,456.481l1.907,2.918,53.319-3.516,2.947-3.305Z" transform="translate(-492.821 -275.28)"/><path class="e" d="M1048.014,470.949c.936-1.055,2.011-1.934,2.912-2.954l-45.38,3.024,1.907,2.918,40.318-2.672A1.933,1.933,0,0,1,1048.014,470.949Z" transform="translate(-496.448 -281.486)"/><path class="e" d="M1043.633,488.7a6.214,6.214,0,0,1,1.525-1.9,1.833,1.833,0,0,1,.347-.387l-29.19,1.934,1.907,2.918,24.3-1.617C1042.905,489.368,1043.252,489.016,1043.633,488.7Z" transform="translate(-500.873 -288.899)"/><path class="e" d="M987.893,444.167l1.837,2.672,65.868-4.325,2.427-3.059Z" transform="translate(-489.195 -269.999)"/><path class="e" d="M981.42,434.187l1.837,2.707,74.882-4.36,2.461-3.024Z" transform="translate(-486.535 -265.996)"/><path class="e" d="M905.732,401.795l67.706,103.372L830.364,491.6l25.9-69.583Z" transform="translate(-424.471 -254.841)"/><path class="a" d="M955.538,401.795l-3.952,1.477,65.7,101.263,5.963.633Z" transform="translate(-474.277 -254.841)"/><path class="c" d="M518.413,679.544h40.318l-.693,4.993-40.318.176Z" transform="translate(-296.016 -366.632)"/><path class="c" d="M274.439,338.066l49.367,2.426c.52,1.266,5.685,6.153,5.685,6.153l-1.595,14.7-14.63,137.935s-.693,8.228-.52,9.423c0,0-16.432,4.4-23.643,6.927l1.317-24.085,1.213-41.314,3.293-46.131.763-26.792-10.678,56.96-15.531,83.26s-2.427-2.813-11.336-4.289a108.544,108.544,0,0,0-12.584-1.582l8.84-57.031,6.76-48.24,8.39-53.866,1.8.281a3.364,3.364,0,0,0,1.664-1.512c.693-1.2,3.779-8.228,3.779-8.228Z" transform="translate(-184.194 -229.19)"/><path class="a" d="M331.484,381.2h0a11.758,11.758,0,0,0-3.363,7.665c-.381,8.3-.936,23.7-.277,35.934.936,17.686,3.224,28.48.8,38.079s-3.571,14.17-2.323,21.8c1.283,7.63-.1,16.068-2.184,23.909S321.6,531.9,321.6,531.9l-5.547,3.622,1.733-27.882,4.056-62.34,2.427-38.571.8-14.24,1.629-7.208,2.011-2.813Z" transform="translate(-213.159 -246.551)"/><path class="a" d="M270.041,362.32s-7.974,49.4-8.84,61.707-1.387,18.987.173,26.371,1.04,10.9-3.467,19.514-10.747,51.335-10.747,51.335l-2.6-.176,13.52-91.242,7.8-57.136,1.387-10.619Z" transform="translate(-183.783 -238.854)"/><path class="c" d="M460.152,346.3a22.4,22.4,0,0,0-9.707,6.224c-8.84,9.669-14.11,28.48-17.334,49.471-3.467,22.538-8.078,42.193-15.011,53.69s-18.062,37.411-21.043,46.061c-3.813,10.443-7.176,17.475-7.176,17.475l-2.739.105s5.408-12.06,7.939-19.338,7.731-23.558,7.731-23.558l6.934-16.174,5.789-11.6a49.26,49.26,0,0,0,3.363-10.548c1.144-5.977,6.934-28.937,6.934-28.937s4.853-21.2,6.483-27.179,4.957-15.225,7.384-19.8,7.731-13.677,7.731-13.677Z" transform="translate(-242.366 -232.506)"/><path class="c" d="M504.185,190.617s4.4-4.29,9.707-3.446a9.81,9.81,0,0,1,7.211,4.43,11.2,11.2,0,0,1-4.576,2.5,17.449,17.449,0,0,1-5.824.422S507.93,191.039,504.185,190.617Z" transform="translate(-290.455 -168.413)"/><path class="a" d="M495.82,162.883a9.623,9.623,0,0,0-1.733,19.057l6.76-4.29L504,177.37a9.709,9.709,0,0,0,1.317-4.887A9.6,9.6,0,0,0,495.82,162.883Z" transform="translate(-283.129 -158.682)"/><path class="c" d="M484.942,193.793s3.467-1.231,7.9,3.34c0,0-2.011.774-1.456,4.149s.693,5.45-.173,5.8-2.011-.633-2.947-1.477-2.773-2.039-3.536-1.055-.763,4.5,1.456,5.028a2.723,2.723,0,0,0,3.051-.809l3.64,20.745s-10.47,5.907-14.387,8.72-16.987,13.08-16.987,13.08L460.64,249s1.109-6.223,3.293-9.458a33.867,33.867,0,0,1,6.309-7.1c1.733-1.406,7.627-4.149,9.187-7.384,1.941-4.079-.971-14.486-.624-19.514S480.678,195.551,484.942,193.793Z" transform="translate(-272.564 -171.062)"/><path class="a" d="M484.918,193.895a14.984,14.984,0,0,0-4.437,10.126c-.347,6.61,1.317,8.72,4.784,13.185s-.8,10.794-8.043,13.642c-9.707,3.8-13.867,10.619-15.08,19.866l-.693.7-.867-2.321a29.129,29.129,0,0,1,3.813-10.091c2.947-4.5,8.6-8.439,8.6-8.439s5.373-2.532,6.76-6.329-.971-12.377-1.04-17.4S480.411,195.758,484.918,193.895Z" transform="translate(-272.539 -171.163)"/><path class="c" d="M531.137,194.66s1.907,3.375,2.947,4.008,7.523,3.586,11.336,7.665c3.813,4.114,6.587,9.493,4.368,16.244,0,0-10.123,1.477-10.331,1.477s-8.008,2.039-8.008,2.039l-1.907-9.564a7.044,7.044,0,0,0,4.68-6.4c.277-5.1-2.531-12.658-5.616-14.662Z" transform="translate(-300.489 -171.471)"/><path class="a" d="M539.669,203.134s2.253,1.688,2.427,5.907,2.5,5.028,6.171,5.7c3.709.633,6.656,3.516,6.656,6.575,0,0,.971-3.516-3.189-9.388S541.472,203.415,539.669,203.134Z" transform="translate(-305.034 -174.882)"/><path class="e" d="M390.967,283.634l16.571,8.966-11.024,8.333C396.514,300.968,391.557,291.123,390.967,283.634Z" transform="translate(-243.937 -207.282)"/><path class="a" d="M551.023,242.545s6.934-1.864,12.48-.457,33.766,11.287,33.766,11.287-2.184,1.2-5.755.07c-3.189-1.02-23.158-8.544-31.132-9.177a63.209,63.209,0,0,0-9.534.422Z" transform="translate(-309.628 -190.349)"/><path class="a" d="M462.34,279.778s15.15-12.06,26.8-19.092l-.451-2.532s-10.747,6.4-15.5,10.267-11.2,8.861-11.2,8.861Z" transform="translate(-273.12 -197.027)"/><path class="e" d="M354.6,237.825s8.6.176,20.974,4.641c10.5,3.8,33.974,15.189,33.974,15.189l-6.067-3.938S384,243.169,376.372,240.075s-17.3-5.907-20.662-6.048Z" transform="translate(-228.995 -187.316)"/><path class="e" d="M277.045,234.734s-19.067,2.989-27.907,8.439c-11.336,7-38.273,29.324-41.254,34.985-3.64,6.5-.52,10.372,6.24,14.416,0,0-9.776-3.164-10.92-8.263s2.08-8.614,4.576-11.146,13.382-12.236,13.382-12.236l17.056-14.135s9.984-7.032,13.8-8.509,15.7-5.766,23.366-6.259Z" transform="translate(-166.693 -186.511)"/><path class="e" d="M325.885,231.968l9.222,2.743-4.749,6.47a1.551,1.551,0,0,1-2.773-.633Z" transform="translate(-217.197 -186.487)"/><path class="e" d="M341.537,235.563l8.806-1.477-1.283,7.56a1.364,1.364,0,0,1-2.427.633Z" transform="translate(-223.628 -187.34)"/><path class="e" d="M285.8,296.426s7.037-5.52,14.318-6.083c7.28-.6,16.744,2.11,16.744,2.11s10.5,2.567,17.23,2.813A16.864,16.864,0,0,0,344.941,292l.347,15.822s-4.4,4.219-13.624,4.676c-9.256.457-27.041-2.918-27.041-2.918s-10.3-2.356-19.518,2Z" transform="translate(-200.442 -209.948)"/><path class="e" d="M302.687,281.638h.9l.9.035.347.035c1.317-.738,2.6-1.477,3.848-2.25-.624-.141-1.248-.281-1.907-.422a7.962,7.962,0,0,0-.971-.176l-1.005-.176-1.005-.105-1.04-.07a26.6,26.6,0,0,0-4.091.211,29.89,29.89,0,0,0-7.8,2.145,34.765,34.765,0,0,0-3.64,1.758l-.728.422v.141c-.139,1.547-.381,3.094-.451,4.641l.139.211c.173-.141.416-.352.659-.527l.728-.527c.485-.352,1.005-.668,1.525-.984a31.263,31.263,0,0,1,3.189-1.723,26.864,26.864,0,0,1,6.83-2.25A17.619,17.619,0,0,1,302.687,281.638Z" transform="translate(-200.829 -205.216)"/><path class="e" d="M339.5,284.333c-2.219-.457-4.437-1.02-6.621-1.582-.936.668-1.872,1.336-2.877,1.934.589.105,1.179.246,1.768.352,1.976.387,3.952.809,5.928,1.125C338.324,285.6,338.913,284.966,339.5,284.333Z" transform="translate(-218.889 -206.927)"/><path class="e" d="M370.215,284.163A23.4,23.4,0,0,1,363,286.132a38.064,38.064,0,0,1-7.488.035c-1.248-.105-2.461-.281-3.709-.457-.52.563-1.04,1.16-1.56,1.723a50.46,50.46,0,0,0,5.131.422,38.72,38.72,0,0,0,7.8-.422,24.289,24.289,0,0,0,7.419-2.461Z" transform="translate(-227.206 -207.495)"/><path class="a" d="M273.5,632.284s3.848-.211,5.928,1.266a2.9,2.9,0,0,1-1.075,5.1,17.612,17.612,0,0,1-5.547-.211Z" transform="translate(-195.389 -347.606)"/><path class="h" d="M530.077,197.426s5.373,5.766,4.853,13.431c-.381,5.7-4.784,6.786-4.784,6.786l1.907,9.564" transform="translate(-301.093 -172.584)"/><path class="h" d="M564.693,274.984s-3.12,18.881-1.907,24.437,7.558,19.831,9.534,40.575-9.256,46.166-12.931,76.65c-3.709,30.484-8.39,73.767-4.749,82.206s13.347,11.6,16.294,13.467c4.4,2.532,1.733,9.388,1.733,9.388" transform="translate(-310.644 -203.801)"/><path class="h" d="M522.549,417.918s1.387,11.251,2.531,30.941-3.363,30.2-3.709,41.243c-.693,22.96,3.709,42.193,0,64.7s-3.709,24.613-3.709,24.613" transform="translate(-295.992 -261.33)"/><path class="h" d="M442.207,291.578s5.72,16.7,4.68,21.975-12.48,19.69-19.24,38.677-13.52,59.949-17.68,70.321S399.392,444,394.019,459.646c-5.339,15.576-10.366,36.883-24.059,51.124" transform="translate(-235.306 -210.48)"/><path class="h" d="M400.618,559.608s8.182-21.659,14.075-32.207c5.269-9.423,14.63-22.221,19.691-38.606s8.494-30.766,16.64-44.3c7.8-12.974,25.515-38.888,31.236-56.82" transform="translate(-247.902 -249.156)"/><line class="h" y1="7.349" x2="43.785" transform="translate(209.57 100.612)"/><line class="h" y1="8.825" x2="50.372" transform="translate(205.064 107.117)"/><path class="d" d="M505.539,294.024a16.8,16.8,0,0,0,14.11-2.11c6.934-4.676,10.158-4.922,15.254-5.38a8.214,8.214,0,0,0,7.176-9.845" transform="translate(-291.011 -204.487)"/><path class="h" d="M415.8,322.421s7.558,6.083,17.75.949c10.158-5.169,29.363-21.553,29.363-21.553" transform="translate(-254.14 -214.601)"/><path class="h" d="M488.915,206.12s1.109,1.582,2.219.914c1.941-1.2-2.149-8.087,1.664-9.915,0,0-4.056-4.747-7.9-3.34-2.149.774-6.587,4.149-6.067,14.486s4.507,16.1-4.16,21.026-13.347,12.728-14.144,19.655" transform="translate(-272.515 -171.012)"/><g transform="translate(203.559 29.447)"><g transform="translate(0.707)"><path class="i" d="M511.247,205.275l3.085-.141-2.115,2.391" transform="translate(-497.623 -205.134)"/><path class="a" d="M488.121,211.417l13.624-6.048.971,2.25-4.056,1.828a3,3,0,0,0-2.219-.07,1.555,1.555,0,0,0-.9,1.688l-6.448,2.637Z" transform="translate(-488.121 -205.229)"/><line class="j" x1="6.136" y2="2.707" transform="translate(0.971 5.731)"/><path class="k" d="M488.121,211.417l13.624-6.048.971,2.25-4.091,1.828" transform="translate(-488.121 -205.229)"/></g><path class="l" d="M488.529,217.718a1.173,1.173,0,0,1-1.525-.7,1.24,1.24,0,0,1,.659-1.582" transform="translate(-486.921 -209.279)"/><path class="m" d="M494.473,215.187a1.173,1.173,0,0,1-1.525-.7,1.24,1.24,0,0,1,.659-1.582" transform="translate(-489.363 -208.261)"/><path class="n" d="M491.662,216.225a1.1,1.1,0,0,1-1.456-.457,1.116,1.116,0,0,1,.763-1.336" transform="translate(-488.251 -208.876)"/><path class="e" d="M490.722,213.958l1.456-.7a1.647,1.647,0,0,0,.971,2.18l-1.352.633S489.821,215.716,490.722,213.958Z" transform="translate(-488.386 -208.403)"/></g><path class="h" d="M504.656,190.747a11.291,11.291,0,0,1,10.955-3.446c6.795,1.406,5.512,7,9.672,8.931s19.136,9.915,14.63,23.276" transform="translate(-290.648 -168.403)"/><path class="h" d="M515.248,197.543s6.656.879,10.4-2.883" transform="translate(-295 -171.471)"/><path class="h" d="M494.086,181.941a9.6,9.6,0,1,1,11.2-9.458,9.709,9.709,0,0,1-1.317,4.887" transform="translate(-283.129 -158.682)"/><path class="h" d="M507.3,252.162s1.976,14.7,13.971,11.322c11.51-3.27,11.856-20.217,11.856-20.217" transform="translate(-291.736 -191.035)"/><path class="h" d="M512.13,251.551a8.434,8.434,0,0,0,9.6,3.094c6.136-2.039,6.171-8.79,6.171-8.79" transform="translate(-293.719 -192.077)"/><ellipse class="c" cx="1.699" cy="1.723" rx="1.699" ry="1.723" transform="translate(226.384 60.6)"/><path class="o" d="M2.744,0C4.257,0,5.482.654,5.48,1.47S4.25,2.949,2.736,2.952,0,2.3,0,1.483,1.23,0,2.744,0Z" transform="translate(220.98 32.121) rotate(-9.979)"/><path class="c" d="M523.868,209.744c-.1-.563-.8-.949-1.7-1.02-.936.387-1.56,1.02-1.456,1.617.1.563.8.949,1.7,1.02C523.383,211.009,523.972,210.341,523.868,209.744Z" transform="translate(-297.241 -177.132)"/><path class="c" d="M536.461,206.8c-.1-.563-.8-.949-1.7-1.02-.936.387-1.56,1.02-1.456,1.617.1.563.8.949,1.7,1.02C535.941,208.067,536.565,207.4,536.461,206.8Z" transform="translate(-302.415 -175.948)"/><path class="o" d="M2.744,0C4.257,0,5.482.654,5.48,1.47S4.25,2.949,2.736,2.952,0,2.3,0,1.483,1.23,0,2.744,0Z" transform="translate(228.572 30.359) rotate(-9.979)"/><path class="p" d="M517.838,206.335a3.025,3.025,0,0,1,2.184-.527" transform="translate(-296.064 -175.939)"/><path class="p" d="M531.372,202.611a2.9,2.9,0,0,1,2.323-.422" transform="translate(-301.625 -174.465)"/><path class="h" d="M529.642,209.136s-.555,2.918.173,3.094c.763.176,1.283-.633,1.837-.246.589.422.069,2.039-.693,2.285" transform="translate(-300.831 -177.298)"/><g transform="translate(226.246 37.499)"><path class="c" d="M525.671,218.61c1.144.281,2.323.6,3.467.949a.329.329,0,0,1,.208.422c0,.035-.035.07-.035.105h0a4.18,4.18,0,0,1-.971,1.125,2.7,2.7,0,0,1-.693.387,1.323,1.323,0,0,1-.9,0,1.92,1.92,0,0,1-.763-.492,2.239,2.239,0,0,1-.416-.738,5.117,5.117,0,0,1-.139-.774v-.738C525.5,218.821,525.567,218.645,525.671,218.61Zm.381.6c.069-.035.173-.176.139-.246v.281c0,.105.035.211.035.281a2.668,2.668,0,0,0,.139.563,1.06,1.06,0,0,0,.589.633.907.907,0,0,0,.832-.211,4.824,4.824,0,0,0,.9-.809h0l.173.527C527.959,219.946,527.023,219.594,526.053,219.208Z" transform="translate(-525.429 -218.61)"/></g><path class="q" d="M525.454,231.244a7.2,7.2,0,0,1-3.605.211c-2.427-.527-3.259-.141-3.19.809.035.949,1.56,1.2,2.461,1.336,2.011.246,3.987-.668,4.992,1.653a50.519,50.519,0,0,1,1.248,5.591Z" transform="translate(-296.4 -186.185)"/><path class="q" d="M572.622,269.843s.347-3.235.659-5.239,1.941-3.2,3.813-1.758,2.773,5.661,6.795,7.032,8.667-.738,11.406-.316a4.606,4.606,0,0,1,4.091,4.36,4.336,4.336,0,0,0,4.3,3.9c2.635.211,8.632-1.969,8.632-1.969l-5.893,2.672-3.4.7L599,278.668Z" transform="translate(-318.573 -198.66)"/><line class="q" x2="16.294" transform="translate(226.315 286.788)"/><line class="q" x2="17.403" transform="translate(144.777 286.788)"/><line class="q" x2="40.318" transform="translate(222.397 312.913)"/><path class="e" d="M4.507,0A4.322,4.322,0,0,1,9,4.153,4.359,4.359,0,0,1,4.492,8.322,4.322,4.322,0,0,1,0,4.169,4.359,4.359,0,0,1,4.507,0Z" transform="translate(229.7 305.15) rotate(-82.756)"/><path class="r" d="M558.912,647.689s.589-7.278,5.789-10.548,8.667,2.918,5.79,6.329a15.673,15.673,0,0,1-10.3,5.52" transform="translate(-312.94 -349.192)"/><path class="r" d="M561.089,653.64s8.84-9.423,11.267-4.4c2.115,4.36-9.742,5.977-9.742,5.977" transform="translate(-313.835 -353.842)"/><path class="h" d="M224.433,276.048l27.041,14.029a12.051,12.051,0,0,1,4.507,4.079l2.808,4.254a3.262,3.262,0,0,1,.173,3.235l-3.571,6.927a3.083,3.083,0,0,1-1.768,1.477l-4.992-.527s-.416-1.582.763-2.11c1.213-.527,3.4.387,3.4.387s-32.172-12.623-38.654-15.189-11.683-5.169-11.094-10.9,5.443-9.388,18.131-20.745,23.3-18.952,28.531-21.624c7.558-3.868,21.39-7.1,25.654-7.313" transform="translate(-166.706 -186.511)"/><line class="h" x1="1.109" y2="27.531" transform="translate(84.525 75.719)"/><line class="h" y1="20.71" x2="23.227" transform="translate(65.527 72.589)"/><line class="h" x2="0.104" y2="24.261" transform="translate(144.846 75.472)"/><line class="h" x2="21.147" y2="11.427" transform="translate(142.419 73.89)"/><line class="h" x1="4.957" y2="22.046" transform="translate(108.688 23.435)"/><path class="c" d="M349.706,199.253c-4.749-.914-4.056-4.5-7.211-4.923-3.189-.422-4.853,1.723-4.784,6.294s3.051,8.65,8.84,10.478c4.75,1.512,8.216-.352,9.464-2.285,3.051-4.676-.589-8.861-.589-8.861S351.509,199.6,349.706,199.253Z" transform="translate(-222.055 -171.318)"/><path class="h" d="M360.905,192.012s.624,3.8,1.387,4.29c2.045,1.266,4.507,1.864,3.536,2.391-1.872,1.02-7.7-.035-7.7-.035" transform="translate(-230.446 -170.405)"/><ellipse class="h" cx="4.611" cy="5.098" rx="4.611" ry="5.098" transform="translate(121.237 15.629)"/><ellipse class="h" cx="4.611" cy="5.098" rx="4.611" ry="5.098" transform="translate(130.598 15.629)"/><path class="s" d="M1.479,0c.816,0,1.476,1.225,1.475,2.738s-.663,2.74-1.479,2.74S0,4.253,0,2.74.663,0,1.479,0Z" transform="translate(122.763 22.183) rotate(-86.709)"/><path class="c" d="M356.966,190.123c.035-.563-.555-1.09-1.421-1.406-1.005.176-1.733.633-1.768,1.266-.035.563.555,1.09,1.421,1.406C356.2,191.213,356.931,190.721,356.966,190.123Z" transform="translate(-228.656 -169.079)"/><path class="s" d="M1.479,0c.816,0,1.476,1.225,1.475,2.738s-.663,2.74-1.479,2.74S0,4.253,0,2.74.663,0,1.479,0Z" transform="translate(131.993 22.191) rotate(-86.709)"/><path class="c" d="M372.618,190.123c.035-.563-.555-1.09-1.421-1.406-1.005.176-1.733.633-1.768,1.266-.035.563.555,1.09,1.421,1.406C371.856,191.213,372.584,190.721,372.618,190.123Z" transform="translate(-235.087 -169.079)"/><path class="h" d="M368.942,199.073c-.1.281-.173.563-.277.879" transform="translate(-234.774 -173.248)"/><path class="h" d="M371.2,174.182a29.04,29.04,0,0,1,.243,4.571" transform="translate(-235.814 -163.229)"/><path class="c" d="M343.945,165.819a7.351,7.351,0,0,0,7.557,2.707c5.131-.984,7.384-4.852,4.437-8.72s-9.95-5.45-14.283-2.215c0,0-3.224-2.883-7.211,1.688s-1.629,11.779-1.629,11.779,1.976-.105,2.531,1.406c.589,1.512-.624,4.29,1.837,3.973C339.715,176.122,339.646,164.061,343.945,165.819Z" transform="translate(-219.761 -155.851)"/><path class="h" d="M331.347,189.277s-5.027-.316-4.125-5.1c.728-4.008,3.328-3.657,4.888-3.305" transform="translate(-217.702 -165.842)"/><path class="a" d="M348.485,204.341l3.675,2.743a.25.25,0,0,1-.035.422,3.163,3.163,0,0,1-2.912-.457,2.408,2.408,0,0,1-1.109-2.532A.252.252,0,0,1,348.485,204.341Z" transform="translate(-226.312 -175.351)"/><g transform="translate(111.357 16.649)"><line class="h" x1="0.971" y2="3.164"/><line class="h" x2="1.56" y2="1.653" transform="translate(0.728 1.09)"/></g><path class="h" d="M395.877,246.149c10.92,5.1,30.577,14.8,35.6,20.71,5.1,5.977,4.264,13.467-1.04,18.389S395.322,306.7,395.322,306.7" transform="translate(-245.726 -192.195)"/><path class="h" d="M356.519,219.375l-.035,8.825a101.056,101.056,0,0,1,12.792,3.129" transform="translate(-229.769 -181.419)"/><path class="h" d="M325.885,231.968l9.222,2.743-4.888,6.681a1.426,1.426,0,0,1-2.565-.6Z" transform="translate(-217.197 -186.487)"/><path class="h" d="M341.537,235.563l8.806-1.477-1.248,7.489a1.4,1.4,0,0,1-2.5.633Z" transform="translate(-223.628 -187.34)"/><path class="h" d="M335.577,243.44l-.693,12.341a2.908,2.908,0,0,0,2.739,3.094h0a2.938,2.938,0,0,0,3.051-2.743l.8-13.4" transform="translate(-220.892 -190.822)"/><ellipse class="c" cx="1.248" cy="1.266" rx="1.248" ry="1.266" transform="translate(116.245 52.407)"/><ellipse class="c" cx="1.248" cy="1.266" rx="1.248" ry="1.266" transform="translate(116.176 57.646)"/><path class="h" d="M390.576,323.158c1.8-.281,1.456,1.828,1.456,1.828-.52.211-3.12,1.477-4.992,2.391a3.192,3.192,0,0,1-3.744-.668l-4.195-4.325a3.821,3.821,0,0,1-.936-3.657h0a18.968,18.968,0,0,1,6.552-9.95l24.129-18.67" transform="translate(-238.623 -209.888)"/><line class="h" x1="2.427" y2="5.731" transform="translate(141.033 107.187)"/><line class="h" x1="2.149" y2="5.098" transform="translate(143.113 109.684)"/><line class="h" x1="2.149" y2="4.571" transform="translate(145.297 112.567)"/><line class="h" x2="8.702" y2="13.009" transform="translate(149.076 96.745)"/><path class="h" d="M390.967,283.634s1.733,10.2,5.547,17.3" transform="translate(-243.937 -207.282)"/><line class="h" x2="3.709" y2="2.567" transform="translate(85.669 117.665)"/><line class="h" x2="3.293" y2="2.707" transform="translate(87.471 114.782)"/><line class="h" x2="3.397" y2="3.305" transform="translate(88.858 111.793)"/><line class="h" x1="6.934" y2="14.767" transform="translate(72.356 100.894)"/><line class="h" x2="49.367" y2="2.426" transform="translate(90.245 108.875)"/><path class="h" d="M376.429,351.894s-15.566,144.686-16.5,158.5,3.5,23.909,8.563,27.425c12.723,8.86,19.656,4.817,17.784,14.521" transform="translate(-231.132 -234.756)"/><line class="h" x1="8.875" y2="142.401" transform="translate(103.037 145.97)"/><path class="h" d="M326.168,632.115s-.243,11.5-1.629,18.178-2.773,14.873-2.773,14.873h48.785" transform="translate(-215.504 -347.542)"/><path class="h" d="M326.473,658.613s12.134.7,13.763-.949c1.421-1.441-.451-2.567-1.283-5.626-1.04-3.973,3.917-3.516,9.707-3.516" transform="translate(-217.439 -354.139)"/><path class="h" d="M258.442,658.777c-3.709.07-9.326,0-10.4-1.055-1.421-1.442.451-2.567,1.283-5.626,1.04-3.973-3.917-3.516-9.707-3.516" transform="translate(-181.752 -354.163)"/><path class="h" d="M246.742,362.486S227.154,509.81,224.208,521.237s-4.4,21.307-16.294,24.964c-13.694,4.219-13,4.4-12.827,10.724" transform="translate(-163.43 -239.019)"/><path class="h" d="M285.811,533.922,313.718,385.4a7.633,7.633,0,0,1,3.085-4.782,7.433,7.433,0,0,1,1.733-.914l5.893-2.215" transform="translate(-200.732 -245.059)"/><path class="h" d="M252.551,632.291s-1.768,13.15-1.387,21.624c.347,7.56.867,11.779.867,11.779H206.123" transform="translate(-174.44 -347.613)"/><line class="h" x2="45.588" transform="translate(31.656 315.093)"/><line class="h" x2="48.535" transform="translate(106.885 315.093)"/><path class="h" d="M804.324,248.247l-18.27,48.276,55.017-53.2Z" transform="translate(-406.266 -191.058)"/><path class="h" d="M849.851,268.04,864.9,286.57,808.943,437.76l-30.715-73.134Z" transform="translate(-403.05 -201.006)"/><line class="h" x2="11.995" y2="14.767" transform="translate(434.806 52.266)"/><line class="h" x2="8.736" y2="25.491" transform="translate(416.467 70.374)"/><path class="h" d="M856.261,422.012l49.471-20.217,67.706,103.372L830.364,491.6" transform="translate(-424.471 -254.841)"/><path class="h" d="M1014.079,482.815l47.148-53.128-79.042,4.43" transform="translate(-486.85 -266.067)"/><path class="h" d="M830.364,552.086l74.431,32.8,20.9-23.558" transform="translate(-424.471 -315.331)"/><path class="h" d="M1055.771,482.472l20.766,15.33-40.214,6.47" transform="translate(-509.093 -287.312)"/><line class="h" x2="27.457" y2="20.253" transform="translate(481.26 146.954)"/><path class="q" d="M853.02,461.772s6.171-16.807,13.174-22.151c3.4-2.6,4.507.527,5.131,3.094s4.507,3.164,7.453-1.758,4.923-20.112,14.214-23.98l-27.422,11.181Z" transform="translate(-433.78 -260.951)"/><path class="c" d="M960.059,403.8l26.417,19.057-13.382.844Z" transform="translate(-477.759 -255.646)"/><path class="c" d="M1056.11,482.472l20.766,15.33-39.729,6.223Z" transform="translate(-509.431 -287.312)"/><path class="q" d="M832.718,553.027s36.644,5.52,55.017,9.142,21.251,5.274,20.211,7.63-9.36,2.215-9.256,4.922,6.136,3.973,7.627,5.977-.589,4.571-.589,4.571l20.9-23.558Z" transform="translate(-425.439 -315.71)"/><path class="q" d="M866.53,243.619s-11.683,10.794-10.227,14.416,5.1,3.094,3.016,9.6-2.6,10.3-.243,10.724c4.021.7,12.758-10.794,12.758-10.794l-14.491,19.479-8.736-25.6Z" transform="translate(-431.967 -191.177)"/><path class="q" d="M479.851,290.1s-.867-2.672-2.045-2.11c-1.248.6-.624,4.149-2.808,9.142-2.6,5.942-13.416,14.838-13.416,14.838l20.107-15.752Z" transform="translate(-272.95 -209.006)"/><path class="q" d="M381.073,279.174c-.659-.387-2.669-1.2-2.947.7-.208,1.582,1.317,3.094,3.051,6.751s2.357,13.853,2.357,13.853l-.035-19.76C383.5,280.756,381.731,279.525,381.073,279.174Z" transform="translate(-238.653 -205.284)"/><path class="q" d="M238.521,294.308s-1.872-.879-1.005-2.18,6.864.141,12.2-1.442,19.83-13.291,19.83-13.291l-23.227,20.674Z" transform="translate(-180.795 -204.772)"/><path class="q" d="M420.084,287.788s2.773-2,1.8-3.164c-1.144-1.371-3.779.633-7.384,2.532-2.877,1.512-6,3.164-9.118,1.3l8.043,4.36Z" transform="translate(-249.861 -207.498)"/><path class="h" d="M286.282,296.328a27.4,27.4,0,0,1,21.147-6.083c12.931,1.652,27.145,8.544,37.094,2.461" transform="translate(-200.925 -209.85)"/><path class="h" d="M285.1,323.374a34.053,34.053,0,0,1,18.027-2.215c15.5,2.567,34.771,5.977,42.19-1.512" transform="translate(-200.442 -221.777)"/><path class="c" d="M502.326,165.123a10.947,10.947,0,0,0-9.083,1.688c-3.5,2.6-3.917,8.263-1.075,9.177,6.795,2.18,4.715,5.766,3.64,6.5l2.981-.7s3.779-3.762,6.83-3.622a12.557,12.557,0,0,0,1.04-7.489A9.41,9.41,0,0,0,502.326,165.123Z" transform="translate(-284.747 -159.445)"/><g transform="translate(214.371 21.756)"><path class="a" d="M505.36,192.956a6.627,6.627,0,0,1,1.664.105,8.289,8.289,0,0,1,1.595.457,6.064,6.064,0,0,1,1.456.844,6.557,6.557,0,0,1,1.213,1.2H510.8a2.525,2.525,0,0,0,.277-.527,1.488,1.488,0,0,0,.139-.527,1.1,1.1,0,0,0-.416-.949h0a.332.332,0,0,1-.035-.457.277.277,0,0,1,.312-.105,5.769,5.769,0,0,1,.832.246,3.123,3.123,0,0,1,.763.387,3.487,3.487,0,0,1,.693.563,2.155,2.155,0,0,1,.451.774l-.451-.035h0a1.747,1.747,0,0,0,.208-.6,2.167,2.167,0,0,0,.035-.668,1.921,1.921,0,0,0-.555-1.2.162.162,0,0,1,0-.176.153.153,0,0,1,.173,0,2.783,2.783,0,0,1,.485.6,2.7,2.7,0,0,1,.277.738,2.9,2.9,0,0,1,0,.774,3.208,3.208,0,0,1-.208.774h0a.236.236,0,0,1-.312.105c-.069-.035-.1-.07-.1-.141h0a2.046,2.046,0,0,0-.971-.984,4.1,4.1,0,0,0-.693-.281,5.479,5.479,0,0,0-.728-.176l.277-.563a2.3,2.3,0,0,1,.52.633,1.758,1.758,0,0,1,.173.844,2.522,2.522,0,0,1-.208.774,2.68,2.68,0,0,1-.416.668h0a.283.283,0,0,1-.416.035c-.035,0-.035-.035-.035-.07a8.229,8.229,0,0,0-1.04-1.16,4.707,4.707,0,0,0-1.317-.844,10.724,10.724,0,0,0-1.491-.527,7.857,7.857,0,0,0-1.56-.176h0a.155.155,0,0,1-.139-.105C505.221,192.992,505.291,192.956,505.36,192.956Z" transform="translate(-505.272 -192.262)"/></g><line class="h" x2="4.472" y2="0.316" transform="translate(116.939 18.618)"/><path class="d" d="M347.423,201.848s-1.213-.492-1.179,1.055" transform="translate(-225.562 -174.334)"/><path class="c" d="M347.161,648.52s2.184,6.434,7.974,9.845a96.793,96.793,0,0,0,13.52,6.223,4.558,4.558,0,0,1,2.7,4.641H322.825l2.149-10.619,8.251.246s5.547,0,5.893-2.11-3.189-5.2-1.387-7.032S347.161,648.52,347.161,648.52Z" transform="translate(-215.94 -354.102)"/><path class="d" d="M368.143,659.89c-1.352,1.09-2.669,3.868,1.352,6.434,1.595,1.02,6.413,3.235,10.123,3.34a4.1,4.1,0,0,0,3.709-1.512l.451-.563" transform="translate(-234.009 -358.721)"/><path class="a" d="M285.826,508.523a1.7,1.7,0,0,0,1.248,0,2.18,2.18,0,0,0,1.421-2.532,5.62,5.62,0,0,1-.52-2.25c.069-.6.277-1.266-.139-1.793-.589-.773-1.387-.387-2.011.105C284.057,503.46,283.191,507.468,285.826,508.523Z" transform="translate(-200.053 -294.974)"/><path class="a" d="M285.965,518.728c-.243.738-.867.984-1.7.668a1.4,1.4,0,1,1,1.7-.668Z" transform="translate(-199.638 -301.065)"/><path class="a" d="M357.626,507.707a4.622,4.622,0,0,0-.693,1.723c-.035.563.139,1.231-.243,1.617a1.222,1.222,0,0,1-.693.281,2.328,2.328,0,0,1-2.392-1.653c-.347-1.231.485-4.219,1.837-4.641a2.4,2.4,0,0,1,1.907.527C358.111,506.125,358.007,506.933,357.626,507.707Z" transform="translate(-228.554 -296.373)"/><path class="c" d="M546.086,536.427a4.614,4.614,0,0,0,1.837,0c.52-.176,1.04-.6,1.56-.387a1.029,1.029,0,0,1,.52.563,2.444,2.444,0,0,1-.589,2.883c-1.005.809-4.021,1.16-4.923.035a2.517,2.517,0,0,1-.243-2C544.456,536.6,545.254,536.357,546.086,536.427Z" transform="translate(-306.874 -308.85)"/><path class="a" d="M358.1,521.675a1.326,1.326,0,0,0,1.179.387,1.5,1.5,0,0,0,.728-.528c.277-.387.8-.738.763-1.2a1.047,1.047,0,0,0-1.005-.914C358.722,519.354,357.127,520.62,358.1,521.675Z" transform="translate(-230.308 -302.184)"/><path class="q" d="M533.037,386.185s.728-2.461,1.941-2.285,1.733,2.215-1.179,8.9c-7.9,18.213-2.6,45.392-1.56,54.569,1.56,14.135.52,18.811-2.5,28.3s-3.5,15.611-1.907,25.14c1.213,7.208,1.387,22.432.347,33.4l-3.12.176a134.047,134.047,0,0,0,.52-18.705c-.52-8.79-1.109-23.136-1.109-23.136s-.52-16.455.173-19.338S527,459.214,527,459.214s1.317-11.6,1.456-15.471a195.707,195.707,0,0,0-1.109-21.448c-.693-4.747-1.664-18.459-1.664-18.459l4.853-9.915Z" transform="translate(-298.714 -247.635)"/><path class="c" d="M2.467,0A2.294,2.294,0,0,1,4.924,2.1,2.318,2.318,0,0,1,2.458,4.218,2.294,2.294,0,0,1,0,2.114,2.318,2.318,0,0,1,2.467,0Z" transform="translate(232.528 105.772) rotate(-8.807)"/><path class="c" d="M453.972,532.245a2.3,2.3,0,0,1-.832,1.231,2.441,2.441,0,0,1-1.387.387h-.659C440.486,533.16,455.532,526.971,453.972,532.245Z" transform="translate(-267.074 -306.496)"/><g transform="translate(115.084 2.719)"><path class="a" d="M336.759,162.764a5.457,5.457,0,0,1,2.947-2.11,5.725,5.725,0,0,1,3.675.105.309.309,0,0,1,.173.352.248.248,0,0,1-.312.176h0a2.676,2.676,0,0,0-2.115.492,2.721,2.721,0,0,0-1.075,1.864l-.485-.316a5.011,5.011,0,0,1,5.512.246h0a.225.225,0,0,1,.035.316.166.166,0,0,1-.208.07,2.263,2.263,0,0,0-2.357,1.442c-.035.07-.1.105-.139.07-.069-.035-.1-.105-.069-.141a2.51,2.51,0,0,1,2.669-1.793l-.139.387a4.4,4.4,0,0,0-2.461-.738,4.457,4.457,0,0,0-2.427.7.306.306,0,0,1-.451-.105.235.235,0,0,1-.035-.211h0a3.247,3.247,0,0,1,1.352-2.356,3.328,3.328,0,0,1,2.635-.492l-.173.527a5.338,5.338,0,0,0-6.205,1.617c-.035.07-.1.07-.173.035C336.724,162.9,336.724,162.8,336.759,162.764Z" transform="translate(-336.742 -160.402)"/></g><line class="g" x2="26.694" y2="61.531" transform="translate(377.119 193.612)"/><line class="h" y1="58.367" x2="46.801" transform="translate(562.59 131.378)"/><line class="k" y1="18.811" x2="14.907" transform="translate(569.87 170.231)"/><line class="g" x2="45.761" y2="55.202" transform="translate(415.947 18.512)"/><line class="h" x2="12.723" y2="15.471" transform="translate(443.577 41.472)"/><line class="h" y1="4.571" x2="69.578" transform="translate(499.253 169.457)"/><line class="h" y1="3.973" x2="58.762" transform="translate(503.655 177.087)"/><line class="h" y1="2.989" x2="44.999" transform="translate(509.029 186.404)"/><line class="h" y1="1.934" x2="28.531" transform="translate(515.616 197.48)"/><path class="k" d="M626.525,534.049s25.446-22.362,45.9,15.26c0,0-3.467-16.174,8.32-20.393" transform="translate(-340.72 -305.416)"/><path class="q" d="M289.653,276.6s1.907-1.582,2.669-.949c.728.6,1.421,1.547-.832,3.551s-5.373,3.516-5.269,9.071l.312-8.544Z" transform="translate(-200.899 -204.008)"/><path class="e" d="M848.9,374.535l14.318,5.8,5.755-15.119-14.56-5.38Z" transform="translate(-432.087 -237.954)"/><line class="h" y1="14.064" x2="38.134" transform="translate(448.881 138.762)"/><path class="g" d="M765.282,570.916l26.59,58.121s23.817-23.628,37.961-27.882c20.593-6.223,15.912,27.882,15.912,27.882s16.883-15.928,22.881,0" transform="translate(-397.731 -322.91)"/><path class="g" d="M983.421,629.062s16.64-23.206,31.2-23.734,20.281,22.679,20.281,22.679l44.652-56.679" transform="translate(-487.357 -323.076)"/><line class="h" x2="11.302" y2="25.245" transform="translate(379.338 262.07)"/><line class="h" y1="19.444" x2="15.704" transform="translate(554.755 266.993)"/><g transform="translate(509.376 116.153)"><ellipse class="e" cx="1.595" cy="1.617" rx="1.595" ry="1.617"/><ellipse class="e" cx="1.595" cy="1.617" rx="1.595" ry="1.617" transform="translate(0 5.45)"/><ellipse class="e" cx="1.595" cy="1.617" rx="1.595" ry="1.617" transform="translate(0 10.865)"/><ellipse class="e" cx="1.595" cy="1.617" rx="1.595" ry="1.617" transform="translate(0 16.279)"/><ellipse class="e" cx="1.595" cy="1.617" rx="1.595" ry="1.617" transform="translate(0 21.729)"/><g transform="translate(5.893)"><ellipse class="e" cx="1.595" cy="1.617" rx="1.595" ry="1.617"/><ellipse class="e" cx="1.595" cy="1.617" rx="1.595" ry="1.617" transform="translate(0 10.865)"/><ellipse class="e" cx="1.595" cy="1.617" rx="1.595" ry="1.617" transform="translate(0 16.279)"/><ellipse class="e" cx="1.595" cy="1.617" rx="1.595" ry="1.617" transform="translate(0 21.729)"/></g><g transform="translate(11.787)"><ellipse class="e" cx="1.595" cy="1.617" rx="1.595" ry="1.617"/><ellipse class="e" cx="1.595" cy="1.617" rx="1.595" ry="1.617" transform="translate(0 5.45)"/><ellipse class="e" cx="1.595" cy="1.617" rx="1.595" ry="1.617" transform="translate(0 10.865)"/><ellipse class="e" cx="1.595" cy="1.617" rx="1.595" ry="1.617" transform="translate(0 16.279)"/><ellipse class="e" cx="1.595" cy="1.617" rx="1.595" ry="1.617" transform="translate(0 21.729)"/></g><g transform="translate(17.646)"><ellipse class="e" cx="1.595" cy="1.617" rx="1.595" ry="1.617"/><ellipse class="e" cx="1.595" cy="1.617" rx="1.595" ry="1.617" transform="translate(0 5.45)"/><ellipse class="e" cx="1.595" cy="1.617" rx="1.595" ry="1.617" transform="translate(0 10.865)"/><ellipse class="e" cx="1.595" cy="1.617" rx="1.595" ry="1.617" transform="translate(0 16.279)"/><ellipse class="e" cx="1.595" cy="1.617" rx="1.595" ry="1.617" transform="translate(0 21.729)"/></g><g transform="translate(23.539)"><ellipse class="e" cx="1.595" cy="1.617" rx="1.595" ry="1.617"/><ellipse class="e" cx="1.595" cy="1.617" rx="1.595" ry="1.617" transform="translate(0 5.45)"/><ellipse class="e" cx="1.595" cy="1.617" rx="1.595" ry="1.617" transform="translate(0 10.865)"/><ellipse class="e" cx="1.595" cy="1.617" rx="1.595" ry="1.617" transform="translate(0 21.729)"/></g></g><g transform="translate(340.197 255.199)"><g transform="translate(0 9.957)"><path class="e" d="M1.607,0A1.585,1.585,0,0,1,3.2,1.6,1.627,1.627,0,0,1,1.59,3.227,1.585,1.585,0,0,1,0,1.622,1.627,1.627,0,0,1,1.607,0Z" transform="translate(0 1.336) rotate(-24.689)"/><path class="e" d="M1.607,0A1.585,1.585,0,0,1,3.2,1.6,1.627,1.627,0,0,1,1.59,3.227,1.585,1.585,0,0,1,0,1.622,1.627,1.627,0,0,1,1.607,0Z" transform="translate(2.217 6.265) rotate(-24.689)"/><path class="e" d="M1.607,0A1.585,1.585,0,0,1,3.2,1.6,1.627,1.627,0,0,1,1.59,3.227,1.585,1.585,0,0,1,0,1.622,1.627,1.627,0,0,1,1.607,0Z" transform="translate(4.466 11.181) rotate(-24.689)"/><path class="e" d="M1.607,0A1.585,1.585,0,0,1,3.2,1.6,1.627,1.627,0,0,1,1.59,3.227,1.585,1.585,0,0,1,0,1.622,1.627,1.627,0,0,1,1.607,0Z" transform="translate(8.946 21.058) rotate(-24.689)"/></g><g transform="translate(5.337 7.464)"><path class="e" d="M1.607,0A1.585,1.585,0,0,1,3.2,1.6,1.627,1.627,0,0,1,1.59,3.227,1.585,1.585,0,0,1,0,1.622,1.627,1.627,0,0,1,1.607,0Z" transform="translate(0 1.336) rotate(-24.689)"/><path class="e" d="M1.607,0A1.585,1.585,0,0,1,3.2,1.6,1.627,1.627,0,0,1,1.59,3.227,1.585,1.585,0,0,1,0,1.622,1.627,1.627,0,0,1,1.607,0Z" transform="translate(2.217 6.265) rotate(-24.689)"/><path class="e" d="M1.607,0A1.585,1.585,0,0,1,3.2,1.6,1.627,1.627,0,0,1,1.59,3.227,1.585,1.585,0,0,1,0,1.622,1.627,1.627,0,0,1,1.607,0Z" transform="translate(4.48 11.213) rotate(-24.689)"/><path class="e" d="M1.607,0A1.585,1.585,0,0,1,3.2,1.6,1.627,1.627,0,0,1,1.59,3.227,1.585,1.585,0,0,1,0,1.622,1.627,1.627,0,0,1,1.607,0Z" transform="translate(6.697 16.143) rotate(-24.689)"/><path class="e" d="M1.607,0A1.585,1.585,0,0,1,3.2,1.6,1.627,1.627,0,0,1,1.59,3.227,1.585,1.585,0,0,1,0,1.622,1.627,1.627,0,0,1,1.607,0Z" transform="translate(8.946 21.058) rotate(-24.689)"/></g><g transform="translate(10.675 4.97)"><path class="e" d="M1.607,0A1.585,1.585,0,0,1,3.2,1.6,1.627,1.627,0,0,1,1.59,3.227,1.585,1.585,0,0,1,0,1.622,1.627,1.627,0,0,1,1.607,0Z" transform="translate(0 1.336) rotate(-24.689)"/><path class="e" d="M1.607,0A1.585,1.585,0,0,1,3.2,1.6,1.627,1.627,0,0,1,1.59,3.227,1.585,1.585,0,0,1,0,1.622,1.627,1.627,0,0,1,1.607,0Z" transform="translate(2.263 6.283) rotate(-24.689)"/><path class="e" d="M1.607,0A1.585,1.585,0,0,1,3.2,1.6,1.627,1.627,0,0,1,1.59,3.227,1.585,1.585,0,0,1,0,1.622,1.627,1.627,0,0,1,1.607,0Z" transform="translate(6.729 16.128) rotate(-24.689)"/><path class="e" d="M1.607,0A1.585,1.585,0,0,1,3.2,1.6,1.627,1.627,0,0,1,1.59,3.227,1.585,1.585,0,0,1,0,1.622,1.627,1.627,0,0,1,1.607,0Z" transform="translate(8.945 21.058) rotate(-24.689)"/></g><g transform="translate(16.012 2.476)"><path class="e" d="M1.607,0A1.585,1.585,0,0,1,3.2,1.6,1.627,1.627,0,0,1,1.59,3.227,1.585,1.585,0,0,1,0,1.622,1.627,1.627,0,0,1,1.607,0Z" transform="translate(0 1.336) rotate(-24.689)"/><path class="e" d="M1.607,0A1.585,1.585,0,0,1,3.2,1.6,1.627,1.627,0,0,1,1.59,3.227,1.585,1.585,0,0,1,0,1.622,1.627,1.627,0,0,1,1.607,0Z" transform="translate(2.263 6.283) rotate(-24.689)"/><path class="e" d="M1.607,0A1.585,1.585,0,0,1,3.2,1.6,1.627,1.627,0,0,1,1.59,3.227,1.585,1.585,0,0,1,0,1.622,1.627,1.627,0,0,1,1.607,0Z" transform="translate(4.48 11.213) rotate(-24.689)"/><path class="e" d="M1.607,0A1.585,1.585,0,0,1,3.2,1.6,1.627,1.627,0,0,1,1.59,3.227,1.585,1.585,0,0,1,0,1.622,1.627,1.627,0,0,1,1.607,0Z" transform="translate(6.729 16.128) rotate(-24.689)"/><path class="e" d="M1.607,0A1.585,1.585,0,0,1,3.2,1.6,1.627,1.627,0,0,1,1.59,3.227,1.585,1.585,0,0,1,0,1.622,1.627,1.627,0,0,1,1.607,0Z" transform="translate(8.946 21.058) rotate(-24.689)"/></g><g transform="translate(21.395 0)"><path class="e" d="M1.607,0A1.585,1.585,0,0,1,3.2,1.6,1.627,1.627,0,0,1,1.59,3.227,1.585,1.585,0,0,1,0,1.622,1.627,1.627,0,0,1,1.607,0Z" transform="translate(0 1.336) rotate(-24.689)"/><path class="e" d="M1.607,0A1.585,1.585,0,0,1,3.2,1.6,1.627,1.627,0,0,1,1.59,3.227,1.585,1.585,0,0,1,0,1.622,1.627,1.627,0,0,1,1.607,0Z" transform="translate(2.217 6.265) rotate(-24.689)"/><path class="e" d="M1.607,0A1.585,1.585,0,0,1,3.2,1.6,1.627,1.627,0,0,1,1.59,3.227,1.585,1.585,0,0,1,0,1.622,1.627,1.627,0,0,1,1.607,0Z" transform="translate(4.434 11.195) rotate(-24.689)"/><path class="e" d="M1.607,0A1.585,1.585,0,0,1,3.2,1.6,1.627,1.627,0,0,1,1.59,3.227,1.585,1.585,0,0,1,0,1.622,1.627,1.627,0,0,1,1.607,0Z" transform="translate(6.683 16.111) rotate(-24.689)"/><path class="e" d="M1.607,0A1.585,1.585,0,0,1,3.2,1.6,1.627,1.627,0,0,1,1.59,3.227,1.585,1.585,0,0,1,0,1.622,1.627,1.627,0,0,1,1.607,0Z" transform="translate(8.9 21.041) rotate(-24.689)"/></g></g><path class="k" d="M172.082,473.763l24.233,51.475c-41.081-5.274-40.214,32.348-40.214,32.348s-16.4-2.356-14.56,15.928" transform="translate(-141.397 -283.807)"/><path class="k" d="M434.4,643.315s4.16-21.624,22.881-16.35c0,0-4.68-37.974,25.481-35.864" transform="translate(-261.78 -331)"/><path class="h" d="M490,213.84s-2.253-2.918-4.125-2.5c-2.08.492-1.387,4.325.8,5.344a2.442,2.442,0,0,0,3.051-.809l3.64,20.745a177.331,177.331,0,0,0-19.137,12.13c-8.771,6.575-12.238,9.669-12.238,9.669" transform="translate(-273.12 -178.17)"/><path class="e" d="M765.717,495.571h0a2.99,2.99,0,0,1-3.952-1.617l-2.184-5.169a3.064,3.064,0,0,1,1.595-4.008h0a2.99,2.99,0,0,1,3.952,1.617l2.184,5.169A3.119,3.119,0,0,1,765.717,495.571Z" transform="translate(-395.289 -288.141)"/><path class="c" d="M708.284,477.329h0a2.99,2.99,0,0,1-3.952-1.617l-2.184-5.169a3.064,3.064,0,0,1,1.595-4.008h0a2.99,2.99,0,0,1,3.952,1.617l2.184,5.169A3.119,3.119,0,0,1,708.284,477.329Z" transform="translate(-371.691 -280.798)"/><path class="e" d="M1135.349,482.854h0a3.105,3.105,0,0,1-.589-4.29l3.328-4.5a3,3,0,0,1,4.229-.6h0a3.105,3.105,0,0,1,.589,4.29l-3.328,4.5A3.036,3.036,0,0,1,1135.349,482.854Z" transform="translate(-549.288 -283.44)"/><path class="c" d="M1053.378,606.723h0a3.105,3.105,0,0,1-.589-4.29l3.328-4.5a3.005,3.005,0,0,1,4.23-.6h0a3.105,3.105,0,0,1,.589,4.29l-3.328,4.5A3,3,0,0,1,1053.378,606.723Z" transform="translate(-515.609 -333.296)"/><path class="c" d="M1092.98,399.706h0a3.105,3.105,0,0,1-.59-4.29l3.328-4.5a3.005,3.005,0,0,1,4.229-.6h0a3.106,3.106,0,0,1,.589,4.29l-3.328,4.5A3,3,0,0,1,1092.98,399.706Z" transform="translate(-531.88 -249.974)"/><path class="e" d="M982.116,630.32h0a3.105,3.105,0,0,1-.589-4.29l3.328-4.5a3,3,0,0,1,4.229-.6h0a3.105,3.105,0,0,1,.589,4.29l-3.328,4.5A3.005,3.005,0,0,1,982.116,630.32Z" transform="translate(-486.33 -342.793)"/><path class="g" d="M1150.178,530.4h0a3.105,3.105,0,0,1-.589-4.29l3.328-4.5a3,3,0,0,1,4.229-.6h0a3.106,3.106,0,0,1,.59,4.29l-3.328,4.5A3,3,0,0,1,1150.178,530.4Z" transform="translate(-555.381 -302.577)"/><path class="g" d="M1169.71,407.924h0a3.774,3.774,0,0,1-.728-5.2l4.021-5.45a3.652,3.652,0,0,1,5.131-.738h0a3.774,3.774,0,0,1,.728,5.2l-4.022,5.45A3.651,3.651,0,0,1,1169.71,407.924Z" transform="translate(-563.3 -252.425)"/><path class="g" d="M1141.935,638.126h0a3.773,3.773,0,0,1-.728-5.2l4.021-5.45a3.652,3.652,0,0,1,5.131-.738h0a3.774,3.774,0,0,1,.728,5.2l-4.021,5.45A3.688,3.688,0,0,1,1141.935,638.126Z" transform="translate(-551.888 -345.079)"/><path class="c" d="M1113.571,553.858h0a1.99,1.99,0,0,1-.381-2.778l2.149-2.883a1.927,1.927,0,0,1,2.739-.387h0a1.991,1.991,0,0,1,.381,2.778l-2.149,2.883A1.922,1.922,0,0,1,1113.571,553.858Z" transform="translate(-540.511 -313.447)"/><path class="e" d="M1133.557,390.454h0a1.01,1.01,0,0,1-.208-1.371l1.075-1.442a.977.977,0,0,1,1.352-.211h0a1.01,1.01,0,0,1,.208,1.371l-1.075,1.442A.942.942,0,0,1,1133.557,390.454Z" transform="translate(-548.884 -248.985)"/><path class="e" d="M1096.369,526.363h0a1.19,1.19,0,0,1-.243-1.653l1.282-1.723a1.152,1.152,0,0,1,1.629-.246h0a1.19,1.19,0,0,1,.243,1.653L1098,526.117A1.152,1.152,0,0,1,1096.369,526.363Z" transform="translate(-533.57 -303.427)"/><path class="c" d="M1174.219,454.007h0a1.01,1.01,0,0,1-.208-1.371l1.075-1.442a.977.977,0,0,1,1.352-.211h0a1.01,1.01,0,0,1,.208,1.371l-1.075,1.441A.946.946,0,0,1,1174.219,454.007Z" transform="translate(-565.591 -274.564)"/><path class="c" d="M813.1,601.876h0a2.228,2.228,0,0,1-2.947-1.2l-1.629-3.832a2.284,2.284,0,0,1,1.179-2.989h0a2.228,2.228,0,0,1,2.947,1.2l1.629,3.832A2.284,2.284,0,0,1,813.1,601.876Z" transform="translate(-415.423 -332.07)"/><path class="c" d="M687.552,512.076h0a1.51,1.51,0,0,1-1.976-.809l-1.109-2.567a1.547,1.547,0,0,1,.8-2h0a1.51,1.51,0,0,1,1.976.809l1.109,2.567A1.572,1.572,0,0,1,687.552,512.076Z" transform="translate(-364.48 -297.016)"/><path class="c" d="M638.421,386.371h0a1.332,1.332,0,0,1-1.733-.7l-.936-2.25a1.366,1.366,0,0,1,.693-1.758h0a1.332,1.332,0,0,1,1.733.7l.936,2.25A1.365,1.365,0,0,1,638.421,386.371Z" transform="translate(-344.47 -246.695)"/><path class="e" d="M755.405,325.76h0a1.332,1.332,0,0,1-1.733-.7l-.936-2.25a1.365,1.365,0,0,1,.693-1.758h0a1.332,1.332,0,0,1,1.733.7L756.1,324A1.378,1.378,0,0,1,755.405,325.76Z" transform="translate(-392.535 -222.3)"/><path class="g" d="M757.353,526.578h0a2.6,2.6,0,0,1-3.432-1.406l-1.907-4.465a2.66,2.66,0,0,1,1.387-3.481h0a2.6,2.6,0,0,1,3.432,1.406l1.907,4.465A2.7,2.7,0,0,1,757.353,526.578Z" transform="translate(-392.195 -301.215)"/><path class="c" d="M663.377,565.533h0a2.6,2.6,0,0,1-3.432-1.406l-1.907-4.465a2.66,2.66,0,0,1,1.387-3.481h0a2.6,2.6,0,0,1,3.432,1.406l1.907,4.465A2.69,2.69,0,0,1,663.377,565.533Z" transform="translate(-353.583 -316.895)"/><path class="h" d="M726.764,425.1h0a3.937,3.937,0,0,1-5.2-2.11l-2.877-6.786a4.035,4.035,0,0,1,2.08-5.274h0a3.937,3.937,0,0,1,5.2,2.11l2.877,6.786A4.1,4.1,0,0,1,726.764,425.1Z" transform="translate(-378.453 -258.386)"/><path class="h" d="M661.628,509.867h0a2.466,2.466,0,0,1-3.259-1.3l-1.8-4.219a2.528,2.528,0,0,1,1.283-3.3h0a2.465,2.465,0,0,1,3.259,1.3l1.8,4.219A2.5,2.5,0,0,1,661.628,509.867Z" transform="translate(-352.977 -294.701)"/><path class="h" d="M735.434,568.247h0a3.569,3.569,0,0,1-4.715-1.9l-2.6-6.153a3.659,3.659,0,0,1,1.872-4.782h0a3.569,3.569,0,0,1,4.715,1.9l2.6,6.153A3.671,3.671,0,0,1,735.434,568.247Z" transform="translate(-382.34 -316.549)"/><path class="e" d="M639.964,615.733h0a2.99,2.99,0,0,1-3.952-1.617l-2.184-5.169a3.064,3.064,0,0,1,1.595-4.008h0a2.99,2.99,0,0,1,3.952,1.617l2.184,5.169A3.107,3.107,0,0,1,639.964,615.733Z" transform="translate(-343.621 -336.504)"/><path class="g" d="M699.6,655.091h0a4.507,4.507,0,0,1-5.928-2.391l-3.259-7.7a4.62,4.62,0,0,1,2.357-6.012h0a4.507,4.507,0,0,1,5.928,2.391l3.259,7.7A4.608,4.608,0,0,1,699.6,655.091Z" transform="translate(-366.821 -350.16)"/><path class="e" d="M691.075,398.917h0a1.863,1.863,0,0,1-2.427-.984l-1.317-3.129a1.91,1.91,0,0,1,.971-2.461h0a1.864,1.864,0,0,1,2.427.985l1.317,3.129A1.9,1.9,0,0,1,691.075,398.917Z" transform="translate(-365.646 -250.979)"/><path class="e" d="M223.374,493.07h0a1.863,1.863,0,0,1-2.427-.984l-1.317-3.129a1.91,1.91,0,0,1,.971-2.461h0a1.864,1.864,0,0,1,2.427.985l1.317,3.129A1.9,1.9,0,0,1,223.374,493.07Z" transform="translate(-173.482 -288.874)"/><path class="k" d="M165.176,474h0a1.863,1.863,0,0,1-2.427-.985l-1.317-3.129a1.91,1.91,0,0,1,.971-2.461h0a1.864,1.864,0,0,1,2.427.984l1.317,3.129A1.91,1.91,0,0,1,165.176,474Z" transform="translate(-149.571 -281.2)"/><path class="i" d="M511.078,205.37s-.971,1.793.971,2.25" transform="translate(-293.187 -175.782)"/></g><path class="h" d="M341.758,623.641l-23.678,6.681a2.658,2.658,0,0,0-1.907,2.391h0a2.609,2.609,0,0,0,3.224,2.672l4.195-1.09" transform="translate(-211.651 -344.131)"/><path class="h" d="M244.561,628.172l21.841,2.989a2.973,2.973,0,0,1,2.461,3.657h0a3.189,3.189,0,0,1-3.467,2.461l-4.021-.457" transform="translate(-182.228 -345.955)"/><g transform="translate(0 96.499)"><ellipse class="e" cx="3.12" cy="3.164" rx="3.12" ry="3.164" transform="translate(354.025)"/><ellipse class="e" cx="2.08" cy="2.11" rx="2.08" ry="2.11" transform="translate(382.834 134.384)"/><ellipse class="h" cx="4.403" cy="4.465" rx="4.403" ry="4.465" transform="translate(375.658 195.986)"/><ellipse class="t" cx="4.853" cy="4.922" rx="4.853" ry="4.922" transform="translate(579.746 147.042)"/><ellipse class="e" cx="4.507" cy="4.571" rx="4.507" ry="4.571" transform="translate(344.7 205.409)"/><ellipse class="k" cx="4.507" cy="4.571" rx="4.507" ry="4.571" transform="translate(293.253 157.555)"/><ellipse class="h" cx="3.12" cy="3.164" rx="3.12" ry="3.164" transform="translate(329.134 111.846)"/><ellipse class="h" cx="1.387" cy="1.406" rx="1.387" ry="1.406" transform="translate(362.034 79.533)"/><ellipse class="e" cx="2.357" cy="2.391" rx="2.357" ry="2.391" transform="translate(330.555 177.702)"/><ellipse class="c" cx="2.427" cy="2.461" rx="2.427" ry="2.461" transform="translate(418.888 170.248)"/><ellipse class="c" cx="3.813" cy="3.868" rx="3.813" ry="3.868" transform="translate(485.45 192.751)"/><ellipse class="h" cx="2.427" cy="2.461" rx="2.427" ry="2.461" transform="translate(463.263 177.28)"/><ellipse class="c" cx="2.427" cy="2.461" rx="2.427" ry="2.461" transform="translate(565.879 164.622)"/><ellipse class="c" cx="3.12" cy="3.164" rx="3.12" ry="3.164" transform="translate(578.359 38.747)"/><ellipse class="e" cx="3.813" cy="3.868" rx="3.813" ry="3.868" transform="translate(354.407 113.288)"/><ellipse class="c" cx="2.08" cy="2.11" rx="2.08" ry="2.11" transform="translate(333.086 84.034)"/><ellipse class="e" cx="2.08" cy="2.11" rx="2.08" ry="2.11" transform="translate(339.638 53.057)"/><ellipse class="k" cx="2.08" cy="2.11" rx="2.08" ry="2.11" transform="translate(311.661 94.653)"/><ellipse class="h" cx="6.934" cy="7.032" rx="6.934" ry="7.032" transform="translate(584.599 197.673)"/><ellipse class="c" cx="4.853" cy="4.922" rx="4.853" ry="4.922" transform="translate(600.546 163.216)"/><ellipse class="e" cx="3.363" cy="3.411" rx="3.363" ry="3.411" transform="translate(512.699 207.378)"/><ellipse class="e" cx="4.68" cy="4.747" rx="4.68" ry="4.747" transform="translate(524.139 162.02)"/><ellipse class="c" cx="2.08" cy="2.11" rx="2.08" ry="2.11" transform="translate(340.124 162.759)"/><ellipse class="e" cx="3.12" cy="3.164" rx="3.12" ry="3.164" transform="translate(0 205.268)"/><ellipse class="h" cx="2.08" cy="2.11" rx="2.08" ry="2.11" transform="translate(22.361 192.083)"/><ellipse class="c" cx="1.803" cy="1.828" rx="1.803" ry="1.828" transform="translate(28.601 135.65)"/></g><g transform="translate(141.081 48.112)"><path class="a" d="M395.58,245.218l.555-3.551s.693-2.426-.693-2.6-2.669,2.637-2.669,2.637-.416-2.813-1.317-3.375a4.035,4.035,0,0,0-2.219-.422,2.5,2.5,0,0,0-2.149-.6c-.277.07-.971-.949-3.12.527,0,0,.277-1.266-1.352-1.336s-4.957,2.18-4.3,3.094,3.536-.457,3.536-.457l.347-.07s-1.317,1.723-.485,1.969a4.89,4.89,0,0,0,2.461-.387s-.381,1.231.208,1.477,2.011-.281,2.011-.281-.693,1.16,0,1.2a10.256,10.256,0,0,0,2.669-.879Z" transform="translate(-378.23 -236.422)"/><path class="h" d="M398.3,244.989s0-3.446-.624-4.817-2.253-1.793-3.016-1.16c-.8.633-3.709,4.325-2.669,4.922,1.456.844,3.917-2.426,3.917-2.426" transform="translate(-383.792 -237.319)"/><path class="h" d="M393.345,238.362a1.594,1.594,0,0,0-1.7-.7c-1.317.211-3.952,3.727-3.432,4.817.416.774,1.664.422,2.392-.492" transform="translate(-382.304 -236.88)"/><path class="h" d="M389.445,237.578a1.939,1.939,0,0,0-1.941-.281c-1.525.492-4.368,3.129-3.432,4.008.555.527,1.907-.176,2.773-.738" transform="translate(-380.554 -236.694)"/><path class="h" d="M382.259,238.98s-3.224,1.617-3.883.527,2.877-3.059,3.987-3.129a1.694,1.694,0,0,1,1.8,1.055" transform="translate(-378.257 -236.373)"/><path class="h" d="M405.673,246.946a12.6,12.6,0,0,1,.555-3.551c.589-1.828.069-2.532-.693-2.6-1.005-.07-2.6,1.266-2.739,3.481" transform="translate(-388.323 -238.151)"/></g></g></g></svg>