<svg xmlns="http://www.w3.org/2000/svg" xmlns:xlink="http://www.w3.org/1999/xlink" width="1090" height="457" viewBox="0 0 1090 457"><defs><style>.a,.j,.l{fill:#fff;}.b{clip-path:url(#a);}.c,.q{fill:#1f1f1f;}.d,.g,.h,.k,.m,.n,.o,.p,.r,.s,.t{fill:none;}.d{stroke:#fff;}.d,.h,.i,.j,.k,.l,.m,.n,.o,.p,.q,.r,.s{stroke-linecap:round;stroke-linejoin:round;}.d,.g,.h,.i,.j,.k,.l,.m,.n,.o,.p,.q,.r,.s,.t{stroke-miterlimit:10;}.d,.g,.h,.i,.j,.k,.q{stroke-width:1.177px;}.e,.i{fill:#00c389;}.f{clip-path:url(#b);}.g,.i,.j,.k,.l,.m,.n,.t{stroke:#00c389;}.h,.o,.p,.q,.r,.s{stroke:#1f1f1f;}.l{stroke-width:1.196px;}.m{stroke-width:1.194px;}.n{stroke-width:1.057px;}.o{stroke-width:1.177px;}.p{stroke-width:1.765px;}.r{stroke-width:1.151px;}.s{stroke-width:1.177px;}.t{stroke-width:0.882px;}</style><clipPath id="a"><rect class="a" width="1090" height="457" transform="translate(46.681 241.795)"/></clipPath><clipPath id="b"><path d="M882.373,268.04l21.878,26.566L822.89,511.365,778.228,406.514Z" transform="translate(-778.228 -268.04)"/></clipPath></defs><g class="b" transform="translate(-46.681 -241.795)"><g transform="translate(115.263 242)"><g transform="translate(0 0)"><path class="c" d="M260.611,663.2l.857,15.022H195.129s-.3-3.73,2.47-5.293,13.913-5.444,13.913-5.444,9.376-2.924,12.7-6.049,7.612-9.981,8.318-12.854l7.511-.05s6.1-.2,7.057,2.016-.958,5.948-.958,5.948-3.579,4.587.4,5.847S260.611,663.2,260.611,663.2Z" transform="translate(-126.22 -226.48)"/><path class="d" d="M228.987,659.89c1.966,1.563,3.882,5.545-1.966,9.225-2.319,1.462-9.326,4.638-14.72,4.789-2.218.05-4.033-.4-5.394-2.168l-.655-.807" transform="translate(-127.816 -228.109)"/><path class="e" d="M521.072,332.181s-13.106,1.764-15.123,6.1c-2.672,5.747,9.578,4.083,9.578,4.083l-26.465,4.94,6.906-11.392Z" transform="translate(-168.359 -181.13)"/><path class="e" d="M388.661,635.646s-8.267,16.786-18,25l-.706-5.444a61.859,61.859,0,0,0,13.812-19.357Z" transform="translate(-151.284 -224.633)"/><path class="e" d="M403.051,664.85c-.2-.05-.4-.151-.554-.2a6.5,6.5,0,0,1,5.142-11.9c.151.05.3.151.454.2" transform="translate(-155.441 -227.021)"/><path class="e" d="M529.584,634.77c-2.924,22.533-5.9,37.807-5.9,37.807l-4.789.151L525.349,632S529.735,633.56,529.584,634.77Z" transform="translate(-172.636 -224.111)"/><path class="e" d="M801.034,395.557a3.317,3.317,0,0,1-.6.857c-1.16,1.26-1.966,3.075-3.075,4.486-1.26,1.613-2.42,3.277-3.579,4.991a56.486,56.486,0,0,1-3.68,5.394,32.5,32.5,0,0,1-3.277,3.176l15.728,6.3,8.368-21.626Z" transform="translate(-211.044 -190.215)"/><path class="e" d="M870.278,435.562c1.916-4.033,3.226-8.318,5.394-12.249,0-.05.05-.05.05-.1l-12.5-4.587L855.256,439.7l11.644,4.638A46.881,46.881,0,0,1,870.278,435.562Z" transform="translate(-220.855 -193.522)"/><path class="e" d="M795.307,449.695l-3.781,9.931a4.47,4.47,0,0,1,.907,2.52c.05.958,1.059,2.47,1.411,3.327.454,1.109.857,2.218,1.311,3.327.907,2.168,2.117,4.134,2.924,6.3l10.031,4.033,8.368-21.626Z" transform="translate(-211.719 -197.976)"/><g transform="translate(568.415 96.105)"><g class="f"><g transform="translate(-70.17 -81.26)"><line class="g" x1="126.023" y2="335.423"/><line class="g" x1="126.023" y2="335.423" transform="translate(21.222 7.965)"/><line class="g" x1="126.023" y2="335.423" transform="translate(42.445 15.929)"/><line class="g" x1="126.023" y2="335.373" transform="translate(63.667 23.944)"/><line class="g" x1="126.023" y2="335.423" transform="translate(84.889 31.909)"/><line class="g" x1="126.023" y2="335.423" transform="translate(106.111 39.874)"/><line class="g" x1="126.023" y2="335.423" transform="translate(127.334 47.838)"/><line class="g" x1="126.023" y2="335.423" transform="translate(148.556 55.803)"/><line class="g" x1="126.023" y2="335.423" transform="translate(169.778 63.818)"/><line class="g" x1="126.023" y2="335.423" transform="translate(191.001 71.783)"/><line class="g" x1="125.973" y2="335.423" transform="translate(212.273 79.747)"/><line class="g" x1="126.023" y2="335.423" transform="translate(233.496 87.712)"/><line class="g" x1="126.023" y2="335.373" transform="translate(254.718 95.727)"/><line class="g" x1="126.023" y2="335.423" transform="translate(275.94 103.692)"/></g><g transform="translate(-88.771 -62.709)"><line class="g" x2="335.423" y2="126.023" transform="translate(0 275.94)"/><line class="g" x2="335.373" y2="126.023" transform="translate(8.015 254.718)"/><line class="g" x2="335.423" y2="126.023" transform="translate(15.98 233.496)"/><line class="g" x2="335.423" y2="126.023" transform="translate(23.944 212.273)"/><line class="g" x2="335.423" y2="126.023" transform="translate(31.909 191.051)"/><line class="g" x2="335.423" y2="126.023" transform="translate(39.874 169.829)"/><line class="g" x2="335.373" y2="126.023" transform="translate(47.889 148.607)"/><line class="g" x2="335.423" y2="126.023" transform="translate(55.853 127.384)"/><line class="g" x2="335.423" y2="126.023" transform="translate(63.818 106.162)"/><line class="g" x2="335.423" y2="126.023" transform="translate(71.783 84.94)"/><line class="g" x2="335.373" y2="126.023" transform="translate(79.798 63.667)"/><line class="g" x2="335.423" y2="126.023" transform="translate(87.762 42.445)"/><line class="g" x2="335.423" y2="126.023" transform="translate(95.727 21.222)"/><line class="g" x2="335.423" y2="126.023" transform="translate(103.692)"/></g></g></g><path class="e" d="M812.62,250.382l-26.566,69.212,80-76.269Z" transform="translate(-210.935 -168.391)"/><path class="a" d="M786.054,320.606l11.14-10.586,23.188-59.634-7.763,1.008Z" transform="translate(-210.935 -169.404)"/><path class="e" d="M996.72,458.174l2.773,4.184,77.529-5.041,4.285-4.738Z" transform="translate(-241.135 -198.389)"/><path class="e" d="M1067.3,472.23c1.361-1.512,2.924-2.773,4.234-4.234l-65.986,4.335,2.773,4.184,58.626-3.831A2.76,2.76,0,0,1,1067.3,472.23Z" transform="translate(-242.4 -200.6)"/><path class="e" d="M1056.038,489.691a8.932,8.932,0,0,1,2.218-2.722,2.643,2.643,0,0,1,.5-.555l-42.445,2.772,2.773,4.184,35.337-2.319C1054.979,490.649,1055.483,490.145,1056.038,489.691Z" transform="translate(-243.944 -203.24)"/><path class="e" d="M987.893,446.211l2.672,3.831,95.778-6.2,3.529-4.386Z" transform="translate(-239.87 -196.508)"/><path class="e" d="M981.42,436.215l2.672,3.882,108.884-6.251,3.579-4.335Z" transform="translate(-238.942 -195.083)"/><path class="e" d="M939.954,401.795,1038.4,550,830.364,530.54l37.656-99.76Z" transform="translate(-217.287 -191.109)"/><path class="a" d="M957.332,401.795l-5.747,2.117,95.526,145.179,8.67.907Z" transform="translate(-234.665 -191.109)"/><path class="c" d="M518.728,679.544h58.626l-1.008,7.158-58.626.252Z" transform="translate(-172.467 -230.927)"/><path class="c" d="M287.552,338.066l71.783,3.478c.756,1.815,8.267,8.822,8.267,8.822l-2.319,21.071L344.01,569.192s-1.008,11.8-.756,13.51c0,0-23.894,6.3-34.379,9.931l1.916-34.53,1.764-59.231,4.789-66.137,1.109-38.412-15.526,81.663L280.343,595.354s-3.529-4.033-16.484-6.15-18.3-2.269-18.3-2.269l12.854-81.764,9.83-69.162,12.2-77.227,2.621.4a4.876,4.876,0,0,0,2.42-2.168c1.008-1.714,5.495-11.8,5.495-11.8Z" transform="translate(-133.451 -181.973)"/><path class="a" d="M338.49,381.2h0a16.747,16.747,0,0,0-4.89,10.989c-.554,11.9-1.361,33.976-.4,51.518,1.361,25.356,4.688,40.832,1.159,54.593s-5.192,20.315-3.377,31.254c1.865,10.939-.151,23.037-3.176,34.278s-3.68,33.421-3.68,33.421l-8.065,5.192,2.52-39.975,5.9-89.376L328,417.8l1.159-20.416,2.369-10.334,2.924-4.033Z" transform="translate(-143.557 -188.157)"/><path class="a" d="M281.611,362.427s-11.594,70.825-12.854,88.468-2.016,27.221.252,37.807,1.512,15.627-5.041,27.977-15.627,73.6-15.627,73.6l-3.781-.252,19.66-130.812L275.562,377.3l2.016-15.224Z" transform="translate(-133.307 -185.415)"/><path class="c" d="M493.3,346.3a32.664,32.664,0,0,0-14.115,8.922c-12.854,13.863-20.517,40.832-25.2,70.926-5.041,32.312-11.745,60.491-21.827,76.975s-26.263,53.636-30.6,66.036c-5.545,14.971-10.435,25.053-10.435,25.053l-3.982.151s7.864-17.29,11.544-27.725,11.241-33.774,11.241-33.774l10.082-23.188,8.418-16.635a69.942,69.942,0,0,0,4.89-15.123c1.663-8.57,10.082-41.487,10.082-41.487s7.057-30.4,9.427-38.966,7.208-21.827,10.737-28.38S474.8,349.48,474.8,349.48Z" transform="translate(-153.747 -183.154)"/><path class="c" d="M504.185,192.159s6.4-6.15,14.115-4.94c7.713,1.159,10.485,6.352,10.485,6.352a16.333,16.333,0,0,1-6.654,3.579,25.725,25.725,0,0,1-8.469.6S509.63,192.764,504.185,192.159Z" transform="translate(-170.527 -160.326)"/><path class="a" d="M500.117,162.883a13.779,13.779,0,0,0-2.52,27.322l9.83-6.15,4.587-.4a13.764,13.764,0,0,0-11.9-20.769Z" transform="translate(-167.97 -156.859)"/><path class="c" d="M495.977,193.859s5.041-1.764,11.493,4.789c0,0-2.924,1.109-2.117,5.948s1.008,7.813-.252,8.318-2.924-.907-4.285-2.117-4.033-2.924-5.142-1.512-1.109,6.452,2.117,7.209c3.176.756,4.436-1.159,4.436-1.159l5.293,29.741s-15.224,8.469-20.92,12.5-24.7,18.752-24.7,18.752L460.64,273s1.613-8.922,4.789-13.56a48.8,48.8,0,0,1,9.174-10.183c2.521-2.016,11.09-5.948,13.358-10.586,2.823-5.847-1.411-20.769-.907-27.977S489.777,196.379,495.977,193.859Z" transform="translate(-164.284 -161.269)"/><path class="a" d="M495.969,193.895a21.377,21.377,0,0,0-6.452,14.518c-.5,9.477,1.916,12.5,6.956,18.9s-1.159,15.476-11.695,19.559c-14.115,5.444-20.164,15.224-21.928,28.481l-1.008,1.008-1.26-3.327a41.382,41.382,0,0,1,5.545-14.467c4.285-6.452,12.5-12.1,12.5-12.1s7.813-3.629,9.83-9.074-1.411-17.744-1.512-24.953S489.415,196.567,495.969,193.895Z" transform="translate(-164.276 -161.305)"/><path class="c" d="M532.286,194.66s2.773,4.839,4.285,5.747,10.939,5.142,16.484,10.989c5.545,5.9,9.578,13.61,6.352,23.289,0,0-14.719,2.117-15.022,2.117s-11.645,2.924-11.645,2.924l-2.773-13.711a10.141,10.141,0,0,0,6.805-9.174c.4-7.309-3.68-18.147-8.166-21.021Z" transform="translate(-174.027 -161.415)"/><path class="a" d="M539.669,203.134s3.277,2.42,3.529,8.469,3.629,7.209,8.973,8.166c5.394.907,9.679,5.041,9.679,9.427,0,0,1.411-5.041-4.638-13.459S542.29,203.537,539.669,203.134Z" transform="translate(-175.613 -162.63)"/><path class="e" d="M390.967,283.634l24.1,12.854-16.03,11.947C399.033,308.486,391.824,294.371,390.967,283.634Z" transform="translate(-154.296 -174.17)"/><path class="e" d="M415.8,322.8s10.082,6.957,21.424,3.025,30.75-20.567,30.75-20.567l16.282-12.048,3.377,12.2s1.613,8.57.756,10.586S485.466,323,485.466,323l32.665-5.343,31-5.142-2.117-8.67s.5-25.961,3.125-33.522l40.075,11.695s7.965.6,12.2-.907,48.9-22.583,48.9-22.583l-5.646-16.383-47.889,16.383s-18.248-7.662-32.161-11.594-17.24-6.2-33.875-3.882a41.516,41.516,0,0,1-5.8,19.861c-5.9,9.679-18.147,11.846-23.188,8.065s-8.318-11.191-8.57-15.173c0,0-29.137,18.047-38.815,27.372,0,0,2.571,8.62-3.125,15.224C444.281,307.676,415.8,322.8,415.8,322.8Z" transform="translate(-157.856 -168.218)"/><path class="a" d="M551.1,242.971s10.082-2.672,18.147-.655,49.1,16.181,49.1,16.181-3.176,1.714-8.368.1c-4.638-1.462-33.673-12.249-45.268-13.157a93.206,93.206,0,0,0-13.862.6Z" transform="translate(-177.216 -168.139)"/><path class="a" d="M462.5,289.156s22.029-17.29,38.966-27.372l-.655-3.629s-15.627,9.174-22.533,14.72-16.282,12.7-16.282,12.7Z" transform="translate(-164.478 -170.517)"/><path class="e" d="M354.6,239.471s12.5.252,30.5,6.654c15.274,5.444,49.4,21.777,49.4,21.777l-8.822-5.646s-28.33-15.123-39.42-19.559-25.154-8.469-30.044-8.67Z" transform="translate(-149.082 -167.058)"/><path class="e" d="M310.683,235.908s-27.725,4.285-40.579,12.1c-16.484,10.031-55.652,42.041-59.987,50.157-5.293,9.326-.756,14.871,9.074,20.668,0,0-14.215-4.537-15.879-11.846s3.025-12.35,6.654-15.98,19.458-17.542,19.458-17.542l24.8-20.264s14.518-10.082,20.063-12.2,22.835-8.267,33.976-8.973Z" transform="translate(-127.344 -166.772)"/><path class="e" d="M325.885,231.968l13.409,3.932-6.906,9.275a2.265,2.265,0,0,1-4.033-.907Z" transform="translate(-144.966 -166.763)"/><path class="e" d="M341.537,236.2l12.8-2.117-1.865,10.838a1.991,1.991,0,0,1-3.529.907Z" transform="translate(-147.21 -167.067)"/><path class="e" d="M286.113,299.1s10.233-7.914,20.819-8.721c10.586-.857,24.348,3.025,24.348,3.025s15.274,3.68,25.053,4.033a24.739,24.739,0,0,0,15.778-4.688l.5,22.684s-6.4,6.049-19.811,6.7c-13.459.655-39.319-4.184-39.319-4.184s-14.972-3.377-28.38,2.873Z" transform="translate(-139.12 -175.119)"/><path class="e" d="M310.243,283h1.311l1.311.05.5.05c1.916-1.059,3.781-2.117,5.6-3.226-.907-.2-1.815-.4-2.772-.6a11.729,11.729,0,0,0-1.411-.252l-1.462-.252-1.462-.151-1.512-.1a39.2,39.2,0,0,0-5.948.3,43.946,43.946,0,0,0-11.342,3.075,50.872,50.872,0,0,0-5.293,2.52l-1.059.6v.2c-.2,2.218-.555,4.436-.655,6.654l.2.3c.252-.2.6-.5.958-.756l1.059-.756c.706-.5,1.462-.958,2.218-1.411a45.671,45.671,0,0,1,4.638-2.47,39.45,39.45,0,0,1,9.931-3.226A25.969,25.969,0,0,1,310.243,283Z" transform="translate(-139.255 -173.434)"/><path class="e" d="M343.816,285.02c-3.226-.655-6.452-1.462-9.628-2.268-1.361.958-2.722,1.916-4.184,2.772.857.151,1.714.353,2.571.5,2.873.555,5.747,1.159,8.62,1.613C342.1,286.834,342.959,285.927,343.816,285.02Z" transform="translate(-145.556 -174.043)"/><path class="e" d="M379.282,284.163a34.405,34.405,0,0,1-10.485,2.823,56.13,56.13,0,0,1-10.888.05c-1.815-.151-3.579-.4-5.394-.655-.756.807-1.512,1.664-2.268,2.47a74.377,74.377,0,0,0,7.461.6,57.092,57.092,0,0,0,11.342-.6,35.666,35.666,0,0,0,10.788-3.529Z" transform="translate(-148.458 -174.246)"/><path class="a" d="M273.814,632.289s5.6-.3,8.62,1.815,1.563,6.654-1.563,7.309-8.065-.3-8.065-.3Z" transform="translate(-137.357 -224.15)"/><path class="h" d="M530.077,197.426s7.813,8.267,7.057,19.256c-.554,8.166-6.956,9.729-6.956,9.729l2.773,13.711" transform="translate(-174.238 -161.811)"/><path class="h" d="M662.521,242.1l-46.629,15.98a3.483,3.483,0,0,1-2.47-.1c-6.6-2.773-38.614-15.778-52.375-16.131-10.586-.252-27.675,4.638-27.675,4.638" transform="translate(-174.711 -168.179)"/><path class="h" d="M572.622,273.018l38.311,12.653a16.626,16.626,0,0,0,12.35-.706c13.711-6.3,46.124-21.626,50.56-23.692" transform="translate(-180.337 -170.964)"/><path class="h" d="M569.856,274.984s-4.537,27.07-2.773,35.034,10.989,28.431,13.862,58.172-13.459,66.187-18.8,109.892c-5.394,43.7-12.2,105.759-6.906,117.857s19.408,16.635,23.692,19.307c6.4,3.629,2.521,13.459,2.521,13.459" transform="translate(-177.571 -172.93)"/><path class="h" d="M524.769,417.918s2.016,16.131,3.68,44.36-4.89,43.3-5.394,59.13c-1.008,32.917,5.394,60.491,0,92.753s-5.394,35.287-5.394,35.287" transform="translate(-172.458 -193.421)"/><path class="h" d="M475.013,291.578s8.318,23.944,6.805,31.506-18.147,28.229-27.977,55.45-19.66,85.948-25.709,100.819-15.375,30.75-23.188,53.182c-7.763,22.331-15.072,52.879-34.984,73.3" transform="translate(-151.284 -175.309)"/><path class="h" d="M400.618,634.173s11.9-31.052,20.466-46.175c7.662-13.51,21.273-31.859,28.632-55.349s12.35-44.108,24.2-63.516c11.342-18.6,37.1-55.753,45.419-81.461" transform="translate(-155.679 -189.085)"/><line class="h" y1="10.536" x2="63.667" transform="translate(327.61 144.246)"/><line class="h" y1="12.653" x2="73.245" transform="translate(321.057 153.572)"/><path class="d" d="M505.539,301.542a24.725,24.725,0,0,0,20.517-3.025c10.082-6.7,14.77-7.057,22.18-7.713A11.8,11.8,0,0,0,558.67,276.69" transform="translate(-170.721 -173.174)"/><path class="h" d="M415.8,331.357s10.989,8.721,25.81,1.361c14.77-7.41,42.7-30.9,42.7-30.9" transform="translate(-157.856 -176.777)"/><path class="h" d="M501.808,211.585s1.613,2.268,3.226,1.311c2.823-1.714-3.125-11.594,2.42-14.215,0,0-5.9-6.805-11.493-4.789-3.125,1.109-9.578,5.948-8.822,20.769s6.553,23.087-6.049,30.145-19.408,18.248-20.567,28.179" transform="translate(-164.267 -161.251)"/><g transform="translate(318.869 42.218)"><g transform="translate(1.028)"><path class="i" d="M511.247,205.336l4.486-.2-3.075,3.428" transform="translate(-491.436 -205.134)"/><path class="a" d="M488.121,214.04l19.811-8.67,1.411,3.226-5.9,2.621a4.423,4.423,0,0,0-3.226-.1,2.219,2.219,0,0,0-1.311,2.42l-9.376,3.781Z" transform="translate(-488.121 -205.168)"/><line class="j" x1="8.922" y2="3.882" transform="translate(1.411 8.217)"/><path class="k" d="M488.121,214.04l19.811-8.67,1.411,3.226-5.948,2.621" transform="translate(-488.121 -205.168)"/></g><path class="l" d="M489.259,218.709a1.713,1.713,0,0,1-2.218-1.008,1.769,1.769,0,0,1,.958-2.268" transform="translate(-486.921 -206.611)"/><path class="m" d="M495.2,216.178a1.713,1.713,0,0,1-2.218-1.008,1.769,1.769,0,0,1,.958-2.268" transform="translate(-487.773 -206.248)"/><path class="n" d="M492.345,217a1.416,1.416,0,1,1-1.008-2.571" transform="translate(-487.385 -206.467)"/><path class="e" d="M490.829,214.263l2.117-1.008a2.347,2.347,0,0,0,1.411,3.125l-1.966.907S489.519,216.784,490.829,214.263Z" transform="translate(-487.432 -206.298)"/></g><path class="h" d="M504.656,192.357a16.535,16.535,0,0,1,15.929-4.94c9.88,2.016,8.015,10.031,14.064,12.8s27.826,14.215,21.273,33.371" transform="translate(-170.594 -160.322)"/><path class="h" d="M515.248,198.793s9.679,1.26,15.123-4.134" transform="translate(-172.113 -161.415)"/><path class="h" d="M497.6,190.205a13.792,13.792,0,1,1,14.367-6.553" transform="translate(-167.97 -156.859)"/><path class="h" d="M507.3,256.02s2.873,21.071,20.315,16.232c16.736-4.688,17.24-28.985,17.24-28.985" transform="translate(-170.974 -168.383)"/><path class="h" d="M512.13,254.021s5.041,7.41,13.963,4.436c8.922-2.924,8.973-12.6,8.973-12.6" transform="translate(-171.665 -168.754)"/><circle class="c" cx="2.47" cy="2.47" r="2.47" transform="translate(352.058 86.881)"/><ellipse class="o" cx="3.982" cy="2.117" rx="3.982" ry="2.117" transform="translate(344.207 46.06) rotate(-9.979)"/><path class="c" d="M525.305,210.186c-.151-.807-1.159-1.361-2.47-1.462-1.361.554-2.268,1.462-2.117,2.319.151.807,1.159,1.361,2.47,1.462C524.6,212,525.457,211.043,525.305,210.186Z" transform="translate(-172.894 -163.431)"/><path class="c" d="M537.9,207.243c-.151-.807-1.159-1.361-2.47-1.462-1.361.555-2.268,1.462-2.117,2.319.151.807,1.159,1.361,2.47,1.462C537.142,209.058,538.05,208.1,537.9,207.243Z" transform="translate(-174.7 -163.009)"/><ellipse class="o" cx="3.982" cy="2.117" rx="3.982" ry="2.117" transform="translate(355.246 43.534) rotate(-9.979)"/><path class="p" d="M517.838,206.585a4.442,4.442,0,0,1,3.176-.756" transform="translate(-172.484 -163.006)"/><path class="p" d="M531.372,202.834a4.268,4.268,0,0,1,3.378-.6" transform="translate(-174.424 -162.481)"/><path class="h" d="M529.734,209.136s-.807,4.184.252,4.436c1.109.252,1.865-.907,2.672-.353.857.6.1,2.924-1.008,3.277" transform="translate(-174.147 -163.49)"/><g transform="translate(351.857 53.762)"><path class="c" d="M525.781,218.61c1.664.4,3.377.857,5.041,1.361a.47.47,0,0,1,.3.6c0,.05-.05.1-.05.151h0a6.022,6.022,0,0,1-1.411,1.613,3.939,3.939,0,0,1-1.008.555,1.95,1.95,0,0,1-1.311,0,2.8,2.8,0,0,1-1.109-.706,3.2,3.2,0,0,1-.6-1.059,7.23,7.23,0,0,1-.2-1.109v-1.059C525.529,218.912,525.63,218.66,525.781,218.61Zm.555.857c.1-.05.252-.252.2-.353v.4c0,.151.05.3.05.4a3.783,3.783,0,0,0,.2.807,1.529,1.529,0,0,0,.857.907,1.333,1.333,0,0,0,1.21-.3,6.984,6.984,0,0,0,1.311-1.159h0l.252.756C529.108,220.525,527.747,220.021,526.336,219.467Z" transform="translate(-525.429 -218.61)"/></g><path class="q" d="M528.541,231.255a10.6,10.6,0,0,1-5.243.3c-3.529-.756-4.738-.2-4.638,1.159.05,1.361,2.268,1.714,3.579,1.916,2.924.353,5.8-.958,7.259,2.369a71.584,71.584,0,0,1,1.815,8.015Z" transform="translate(-172.601 -166.656)"/><path class="q" d="M572.622,273.152s.5-4.638.958-7.511,2.823-4.587,5.545-2.52,4.033,8.116,9.88,10.082,12.6-1.059,16.585-.454A6.64,6.64,0,0,1,611.538,279c.353,2.924,2.42,5.293,6.251,5.6s12.552-2.823,12.552-2.823l-8.57,3.831-4.94,1.008-5.847-.807Z" transform="translate(-180.337 -171.099)"/><line class="q" x2="5.696" y2="16.383" transform="translate(487.811 73.925)"/><line class="q" x2="6.654" y2="17.643" transform="translate(471.175 79.823)"/><line class="q" x2="23.692" transform="translate(351.958 411.163)"/><line class="q" x2="25.305" transform="translate(233.395 411.163)"/><line class="q" x2="58.626" transform="translate(346.261 448.617)"/><ellipse class="e" cx="6.452" cy="6.049" rx="6.452" ry="6.049" transform="translate(356.893 437.479) rotate(-82.756)"/><path class="r" d="M558.911,652.665s.857-10.435,8.418-15.123,12.6,4.184,8.418,9.074a22.922,22.922,0,0,1-14.972,7.914" transform="translate(-178.372 -224.715)"/><path class="r" d="M561.089,656.186s12.854-13.51,16.383-6.3c3.075,6.251-14.165,8.57-14.165,8.57" transform="translate(-178.684 -226.371)"/><path class="h" d="M234.166,295.139l39.319,20.113a17.438,17.438,0,0,1,6.553,5.847l4.083,6.1a4.62,4.62,0,0,1,.252,4.638l-5.192,9.931a4.468,4.468,0,0,1-2.571,2.117l-7.259-.756s-.6-2.268,1.109-3.025c1.764-.756,4.94.554,4.94.554s-46.78-18.1-56.206-21.777-16.988-7.41-16.131-15.627,7.914-13.459,26.364-29.741,33.875-27.171,41.487-31c10.989-5.545,31.1-10.183,37.3-10.485" transform="translate(-127.349 -166.772)"/><line class="h" x1="1.613" y2="39.47" transform="translate(145.784 108.556)"/><line class="h" y1="29.691" x2="33.774" transform="translate(118.159 104.07)"/><line class="h" x2="0.151" y2="34.782" transform="translate(233.496 108.204)"/><line class="h" x2="30.75" y2="16.383" transform="translate(229.967 105.935)"/><line class="h" x1="7.209" y2="31.607" transform="translate(180.919 33.598)"/><path class="c" d="M355.154,201.41c-6.906-1.311-5.9-6.452-10.485-7.057-4.638-.6-7.057,2.47-6.956,9.023s4.436,12.4,12.854,15.022c6.906,2.168,11.947-.5,13.762-3.277,4.436-6.7-.857-12.7-.857-12.7S357.775,201.915,355.154,201.41Z" transform="translate(-146.661 -161.36)"/><path class="h" d="M362.164,192.012s.907,5.444,2.016,6.15c2.974,1.815,6.553,2.672,5.142,3.428-2.722,1.462-11.191-.05-11.191-.05" transform="translate(-149.589 -161.035)"/><ellipse class="h" cx="6.704" cy="7.309" rx="6.704" ry="7.309" transform="translate(199.167 22.407)"/><ellipse class="h" cx="6.704" cy="7.309" rx="6.704" ry="7.309" transform="translate(212.778 22.407)"/><ellipse class="s" cx="2.117" cy="3.983" rx="2.117" ry="3.983" transform="translate(201.387 31.8) rotate(-86.709)"/><path class="c" d="M358.415,190.733c.05-.807-.807-1.563-2.067-2.016-1.462.252-2.52.907-2.571,1.815-.05.807.807,1.563,2.067,2.016C357.306,192.3,358.364,191.59,358.415,190.733Z" transform="translate(-148.964 -160.563)"/><ellipse class="s" cx="2.117" cy="3.983" rx="2.117" ry="3.983" transform="translate(214.808 31.812) rotate(-86.709)"/><path class="c" d="M374.067,190.733c.05-.807-.807-1.563-2.067-2.016-1.462.252-2.52.907-2.571,1.815-.05.807.807,1.563,2.067,2.016C372.958,192.3,374.017,191.59,374.067,190.733Z" transform="translate(-151.208 -160.563)"/><path class="h" d="M369.068,199.073c-.151.4-.252.807-.4,1.26" transform="translate(-151.099 -162.048)"/><path class="h" d="M371.2,174.182a41.052,41.052,0,0,1,.353,6.553" transform="translate(-151.461 -158.479)"/><path class="c" d="M349.312,170.142s3.529,5.293,10.989,3.882,10.737-6.956,6.452-12.5-14.467-7.813-20.769-3.176c0,0-4.688-4.134-10.485,2.42s-2.369,16.887-2.369,16.887,2.873-.151,3.68,2.016c.857,2.168-.907,6.15,2.672,5.7C343.162,184.912,343.061,167.622,349.312,170.142Z" transform="translate(-145.86 -155.851)"/><path class="h" d="M333.269,193.008s-7.309-.454-6-7.309c1.059-5.747,4.839-5.243,7.108-4.738" transform="translate(-145.142 -159.41)"/><path class="a" d="M348.674,204.359l5.343,3.932a.356.356,0,0,1-.05.6,4.653,4.653,0,0,1-4.234-.655,3.431,3.431,0,0,1-1.613-3.629A.368.368,0,0,1,348.674,204.359Z" transform="translate(-148.146 -162.797)"/><g transform="translate(184.8 23.869)"><line class="h" x1="1.411" y2="4.537"/><line class="h" x2="2.268" y2="2.369" transform="translate(1.059 1.563)"/></g><path class="h" d="M396.128,246.149c15.879,7.309,44.461,21.222,51.77,29.691,7.41,8.57,6.2,19.307-1.512,26.364s-51.065,30.75-51.065,30.75" transform="translate(-154.92 -168.796)"/><path class="h" d="M356.535,219.375l-.05,12.653a148.694,148.694,0,0,1,18.6,4.486" transform="translate(-149.352 -164.958)"/><path class="h" d="M325.885,231.968l13.409,3.932-7.108,9.578a2.083,2.083,0,0,1-3.73-.857Z" transform="translate(-144.966 -166.763)"/><path class="h" d="M341.537,236.2l12.8-2.117-1.815,10.737a2.038,2.038,0,0,1-3.63.907Z" transform="translate(-147.21 -167.067)"/><path class="h" d="M335.895,243.745l-1.008,17.694a4.191,4.191,0,0,0,3.982,4.436h0a4.25,4.25,0,0,0,4.436-3.932l1.159-19.206" transform="translate(-146.255 -168.307)"/><circle class="c" cx="1.815" cy="1.815" r="1.815" transform="translate(191.908 75.135)"/><circle class="c" cx="1.815" cy="1.815" r="1.815" transform="translate(191.807 82.646)"/><path class="h" d="M396.271,337.491c2.621-.4,2.117,2.621,2.117,2.621-.756.3-4.537,2.117-7.259,3.428a4.689,4.689,0,0,1-5.444-.958l-6.1-6.2a5.424,5.424,0,0,1-1.361-5.243h0a27.171,27.171,0,0,1,9.527-14.266l35.085-26.767" transform="translate(-152.442 -175.098)"/><line class="h" x1="3.529" y2="8.217" transform="translate(227.951 153.673)"/><line class="h" x1="3.125" y2="7.309" transform="translate(230.975 157.252)"/><line class="h" x1="3.125" y2="6.553" transform="translate(234.151 161.385)"/><line class="h" x2="12.653" y2="18.651" transform="translate(239.646 138.701)"/><path class="h" d="M390.967,283.634s2.52,14.619,8.065,24.8" transform="translate(-154.296 -174.17)"/><line class="h" x2="5.394" y2="3.68" transform="translate(147.447 168.695)"/><line class="h" x2="4.789" y2="3.882" transform="translate(150.068 164.561)"/><line class="h" x2="4.94" y2="4.738" transform="translate(152.085 160.276)"/><line class="h" x1="10.082" y2="21.172" transform="translate(128.09 144.65)"/><line class="h" x2="71.783" y2="3.478" transform="translate(154.101 156.092)"/><path class="h" d="M383.979,351.894s-22.634,207.434-23.995,227.245,5.091,34.278,12.451,39.319c18.5,12.7,28.582,6.906,25.86,20.819" transform="translate(-149.828 -183.956)"/><line class="h" x1="12.905" y2="204.158" transform="translate(172.702 209.274)"/><path class="h" d="M328.167,632.115s-.353,16.484-2.369,26.062-4.033,21.323-4.033,21.323H392.7" transform="translate(-144.375 -224.127)"/><path class="h" d="M326.473,663s17.643,1.008,20.012-1.361c2.067-2.067-.655-3.68-1.865-8.065-1.512-5.7,5.7-5.041,14.115-5.041" transform="translate(-145.05 -226.477)"/><path class="h" d="M266.99,663.206c-5.394.1-13.56,0-15.123-1.512-2.067-2.067.655-3.68,1.865-8.065,1.512-5.7-5.7-5.041-14.115-5.041" transform="translate(-132.599 -226.486)"/><path class="h" d="M270.225,362.486s-28.481,211.215-32.766,227.6-6.4,30.548-23.692,35.791c-19.912,6.049-18.9,6.3-18.651,15.375" transform="translate(-126.206 -185.474)"/><path class="h" d="M285.811,601.763l40.579-212.929a10.986,10.986,0,0,1,7.007-8.166l8.57-3.176" transform="translate(-139.221 -187.625)"/><path class="h" d="M273.633,632.291s-2.571,18.853-2.016,31c.5,10.838,1.26,16.887,1.26,16.887H206.123" transform="translate(-137.175 -224.153)"/><line class="h" x2="66.288" transform="translate(68.909 451.743)"/><line class="h" x2="70.573" transform="translate(178.298 451.743)"/><path class="h" d="M812.62,250.382l-26.566,69.212,80-76.269Z" transform="translate(-210.935 -168.391)"/><path class="h" d="M882.373,268.04l21.878,26.566L822.89,511.365,778.228,406.514Z" transform="translate(-209.813 -171.934)"/><line class="h" x2="17.442" y2="21.172" transform="translate(655.119 74.934)"/><line class="h" x2="12.703" y2="36.547" transform="translate(628.452 100.894)"/><path class="h" d="M868.02,430.78l71.934-28.985L1038.4,550,830.364,530.54" transform="translate(-217.287 -191.109)"/><path class="h" d="M1028.561,505.856l68.557-76.168-114.933,6.352" transform="translate(-239.051 -195.108)"/><path class="h" d="M830.364,552.085l108.229,47.032,30.4-33.774" transform="translate(-217.287 -212.654)"/><path class="h" d="M1064.6,482.472l30.2,21.978-58.475,9.275" transform="translate(-246.813 -202.675)"/><line class="h" x2="39.924" y2="29.036" transform="translate(722.667 210.686)"/><path class="q" d="M853.02,481.2s8.973-24.1,19.156-31.758c4.94-3.73,6.553.756,7.461,4.436s6.553,4.537,10.838-2.52,7.158-28.834,20.668-34.379l-39.874,16.03Z" transform="translate(-220.535 -193.286)"/><path class="c" d="M960.059,403.8l38.412,27.322-19.458,1.21Z" transform="translate(-235.88 -191.396)"/><path class="c" d="M1064.72,482.472l30.2,21.978-57.769,8.922Z" transform="translate(-246.93 -202.675)"/><path class="q" d="M832.718,553.027s53.283,7.914,80,13.106,30.9,7.561,29.389,10.939-13.611,3.176-13.459,7.057,8.922,5.7,11.09,8.57-.857,6.553-.857,6.553l30.4-33.774Z" transform="translate(-217.624 -212.79)"/><path class="q" d="M874.668,243.619S857.68,259.095,859.8,264.287s7.41,4.436,4.386,13.762-3.781,14.77-.353,15.375c5.847,1.008,18.551-15.476,18.551-15.476L861.31,305.874l-12.7-36.7Z" transform="translate(-219.902 -168.433)"/><path class="q" d="M488.147,291.053s-1.26-3.831-2.974-3.025c-1.815.857-.907,5.948-4.083,13.106-3.781,8.519-19.508,21.273-19.508,21.273l29.237-22.583Z" transform="translate(-164.419 -174.784)"/><path class="q" d="M382.419,279.393c-.958-.555-3.882-1.714-4.285,1.008-.3,2.268,1.916,4.436,4.436,9.679S386,309.941,386,309.941l-.05-28.33C385.948,281.662,383.377,279.9,382.419,279.393Z" transform="translate(-152.452 -173.458)"/><path class="q" d="M239.082,301.643s-2.722-1.26-1.462-3.125,9.981.2,17.744-2.067S284.2,277.4,284.2,277.4l-33.774,29.641Z" transform="translate(-132.265 -173.276)"/><path class="q" d="M426.758,289.357s4.033-2.873,2.621-4.537c-1.663-1.966-5.495.907-10.737,3.629-4.184,2.168-8.721,4.537-13.258,1.865l11.695,6.251Z" transform="translate(-156.363 -174.247)"/><path class="h" d="M286.282,299.066a40.184,40.184,0,0,1,30.75-8.721c18.8,2.369,39.47,12.249,53.938,3.529" transform="translate(-139.288 -175.085)"/><path class="h" d="M285.1,324.99a50.143,50.143,0,0,1,26.213-3.176c22.533,3.68,50.56,8.57,61.348-2.168" transform="translate(-139.12 -179.333)"/><path class="c" d="M507.789,165.272s-7.108-2.117-13.207,2.42c-5.091,3.73-5.7,11.846-1.563,13.157,9.88,3.125,6.856,8.267,5.293,9.326l4.335-1.008s5.495-5.394,9.931-5.192c0,0,2.773-5.444,1.512-10.737S507.789,165.272,507.789,165.272Z" transform="translate(-168.535 -157.131)"/><g transform="translate(334.59 31.191)"><path class="a" d="M505.4,193.257a9.772,9.772,0,0,1,2.42.151,12.185,12.185,0,0,1,2.319.655,8.849,8.849,0,0,1,2.117,1.21,9.474,9.474,0,0,1,1.764,1.714h-.706a3.6,3.6,0,0,0,.4-.756,2.111,2.111,0,0,0,.2-.756,1.564,1.564,0,0,0-.605-1.361h0a.471.471,0,0,1-.05-.655.407.407,0,0,1,.454-.151,8.481,8.481,0,0,1,1.21.353,4.565,4.565,0,0,1,1.109.555,5.058,5.058,0,0,1,1.008.807,3.081,3.081,0,0,1,.655,1.109l-.655-.05h0a2.482,2.482,0,0,0,.3-.857,3.062,3.062,0,0,0,.05-.958,2.738,2.738,0,0,0-.807-1.714.229.229,0,0,1,0-.252.225.225,0,0,1,.252,0,4,4,0,0,1,.706.857,3.834,3.834,0,0,1,.4,1.059,4.1,4.1,0,0,1,0,1.109,4.55,4.55,0,0,1-.3,1.109h0a.346.346,0,0,1-.454.151c-.1-.05-.151-.1-.151-.2h0a2.953,2.953,0,0,0-1.411-1.411,6.006,6.006,0,0,0-1.008-.4,8.059,8.059,0,0,0-1.059-.252l.4-.807a3.3,3.3,0,0,1,.756.907,2.49,2.49,0,0,1,.252,1.21,3.574,3.574,0,0,1-.3,1.109,3.831,3.831,0,0,1-.6.958h0a.415.415,0,0,1-.6.05c-.05,0-.05-.05-.05-.1a11.852,11.852,0,0,0-1.512-1.663,6.858,6.858,0,0,0-1.916-1.21,15.738,15.738,0,0,0-2.168-.756,11.581,11.581,0,0,0-2.268-.252h0a.225.225,0,0,1-.2-.151C505.2,193.308,505.3,193.257,505.4,193.257Z" transform="translate(-505.272 -192.262)"/></g><line class="h" x2="6.503" y2="0.454" transform="translate(192.916 26.692)"/><path class="d" d="M347.959,201.88s-1.764-.706-1.714,1.512" transform="translate(-147.884 -162.435)"/><path class="c" d="M358.212,648.566s3.176,9.225,11.594,14.115a141.746,141.746,0,0,0,19.66,8.922,6.539,6.539,0,0,1,3.932,6.654H322.825l3.125-15.224,12,.353s8.065,0,8.57-3.025-4.638-7.461-2.016-10.082S358.212,648.566,358.212,648.566Z" transform="translate(-144.527 -226.464)"/><path class="d" d="M368.751,659.89c-1.966,1.563-3.882,5.545,1.966,9.225,2.319,1.462,9.326,4.638,14.72,4.789,2.218.05,4.033-.4,5.394-2.168l.655-.807" transform="translate(-150.832 -228.109)"/><path class="a" d="M286.582,511.565a2.5,2.5,0,0,0,1.815,0,3.119,3.119,0,0,0,2.067-3.629c-.353-1.26-.857-1.865-.756-3.226.1-.857.4-1.815-.2-2.571-.857-1.109-2.016-.554-2.924.151C284.011,504.306,282.751,510.053,286.582,511.565Z" transform="translate(-138.984 -205.404)"/><path class="a" d="M287.244,519.632c-.353,1.059-1.26,1.411-2.47.958a2.139,2.139,0,0,1-1.512-2.672,2.174,2.174,0,0,1,2.873-1.109A2.127,2.127,0,0,1,287.244,519.632Z" transform="translate(-138.839 -207.574)"/><path class="a" d="M359.488,508.887a6.571,6.571,0,0,0-1.008,2.47c-.05.807.2,1.764-.353,2.319a1.791,1.791,0,0,1-1.008.4,3.383,3.383,0,0,1-3.478-2.369c-.5-1.764.706-6.049,2.672-6.654a3.518,3.518,0,0,1,2.772.756C360.194,506.619,360.042,507.778,359.488,508.887Z" transform="translate(-148.928 -205.902)"/><path class="c" d="M546.965,536.62a6.807,6.807,0,0,0,2.672,0c.756-.252,1.512-.857,2.268-.555a1.483,1.483,0,0,1,.756.807,3.471,3.471,0,0,1-.857,4.134c-1.462,1.159-5.847,1.663-7.158.05a3.564,3.564,0,0,1-.353-2.873C544.6,536.872,545.755,536.519,546.965,536.62Z" transform="translate(-176.256 -210.346)"/><path class="a" d="M358.235,522.652a1.945,1.945,0,0,0,1.714.555,2.187,2.187,0,0,0,1.059-.756c.4-.555,1.159-1.059,1.109-1.714a1.515,1.515,0,0,0-1.462-1.311C359.142,519.325,356.823,521.14,358.235,522.652Z" transform="translate(-149.541 -207.972)"/><path class="q" d="M537.01,387.18s1.059-3.529,2.823-3.277,2.52,3.176-1.714,12.754c-11.493,26.112-3.781,65.078-2.268,78.235,2.268,20.265.756,26.969-3.63,40.579s-5.091,22.382-2.772,36.043c1.764,10.334,2.016,32.161.5,47.889l-4.537.252a189.516,189.516,0,0,0,.756-26.818c-.756-12.6-1.613-33.169-1.613-33.169s-.756-23.592.252-27.725,3.428-20.063,3.428-20.063,1.916-16.635,2.117-22.18-.6-23.944-1.613-30.75-2.42-26.465-2.42-26.465l7.057-14.215Z" transform="translate(-173.408 -188.543)"/><ellipse class="c" cx="3.579" cy="3.025" rx="3.579" ry="3.025" transform="translate(361 151.65) rotate(-8.807)"/><path class="c" d="M457.011,533.161a3.3,3.3,0,0,1-1.21,1.764,3.586,3.586,0,0,1-2.016.554h-.958C437.4,534.471,459.279,525.6,457.011,533.161Z" transform="translate(-162.369 -209.508)"/><g transform="translate(190.22 3.899)"><path class="a" d="M336.767,163.788a7.932,7.932,0,0,1,4.285-3.025,8.436,8.436,0,0,1,5.343.151.442.442,0,0,1,.252.5.361.361,0,0,1-.454.252h0a3.934,3.934,0,0,0-3.075.706,3.889,3.889,0,0,0-1.563,2.672l-.706-.454a7.373,7.373,0,0,1,8.015.353h0a.319.319,0,0,1,.05.454.242.242,0,0,1-.3.1,3.3,3.3,0,0,0-3.428,2.067c-.05.1-.151.151-.2.1-.1-.05-.151-.151-.1-.2a3.649,3.649,0,0,1,3.882-2.571l-.2.555a6.464,6.464,0,0,0-3.579-1.059,6.549,6.549,0,0,0-3.529,1.008.448.448,0,0,1-.655-.151.333.333,0,0,1-.05-.3h0a4.641,4.641,0,0,1,1.966-3.377,4.9,4.9,0,0,1,3.831-.706l-.252.756a7.832,7.832,0,0,0-9.023,2.319c-.05.1-.151.1-.252.05C336.716,163.99,336.716,163.838,336.767,163.788Z" transform="translate(-336.742 -160.402)"/></g><line class="g" x2="38.815" y2="88.216" transform="translate(571.238 277.579)"/><line class="h" y1="83.679" x2="68.053" transform="translate(840.927 188.354)"/><line class="k" y1="26.969" x2="21.676" transform="translate(851.513 244.057)"/><line class="g" x2="66.54" y2="79.143" transform="translate(627.696 26.541)"/><line class="h" x2="18.5" y2="22.18" transform="translate(667.872 59.458)"/><line class="h" y1="6.553" x2="101.171" transform="translate(748.83 242.948)"/><line class="h" y1="5.696" x2="85.444" transform="translate(755.232 253.886)"/><line class="h" y1="4.285" x2="65.431" transform="translate(763.045 267.245)"/><line class="h" y1="2.773" x2="41.487" transform="translate(772.623 283.124)"/><path class="k" d="M626.525,536.91s37-32.06,66.742,21.878c0,0-5.041-23.188,12.1-29.237" transform="translate(-188.065 -209.123)"/><path class="q" d="M291.213,277.074s2.772-2.268,3.882-1.361c1.059.857,2.067,2.218-1.21,5.091s-7.813,5.041-7.662,13.006l.454-12.249Z" transform="translate(-139.279 -173.004)"/><path class="e" d="M848.9,380.909l20.819,8.318,8.368-21.676-21.172-7.713Z" transform="translate(-219.944 -185.094)"/><line class="h" y1="20.164" x2="55.45" transform="translate(675.585 198.94)"/><path class="g" d="M765.281,570.916l38.664,83.326s34.631-33.875,55.2-39.975c29.943-8.922,23.138,39.975,23.138,39.975s24.549-22.835,33.27,0" transform="translate(-207.957 -215.354)"/><path class="g" d="M983.421,654.1s24.2-33.27,45.368-34.026,29.49,32.514,29.49,32.514l64.927-81.26" transform="translate(-239.229 -215.413)"/><line class="h" x2="16.433" y2="36.194" transform="translate(574.464 375.726)"/><line class="h" y1="27.876" x2="22.835" transform="translate(829.535 382.783)"/><g transform="translate(763.549 166.527)"><circle class="e" cx="2.319" cy="2.319" r="2.319"/><circle class="e" cx="2.319" cy="2.319" r="2.319" transform="translate(0 7.813)"/><circle class="e" cx="2.319" cy="2.319" r="2.319" transform="translate(0 15.576)"/><circle class="e" cx="2.319" cy="2.319" r="2.319" transform="translate(0 23.34)"/><circle class="e" cx="2.319" cy="2.319" r="2.319" transform="translate(0 31.153)"/><g transform="translate(8.57)"><circle class="e" cx="2.319" cy="2.319" r="2.319"/><circle class="e" cx="2.319" cy="2.319" r="2.319" transform="translate(0 15.576)"/><circle class="e" cx="2.319" cy="2.319" r="2.319" transform="translate(0 23.34)"/><circle class="e" cx="2.319" cy="2.319" r="2.319" transform="translate(0 31.153)"/></g><g transform="translate(17.139)"><circle class="e" cx="2.319" cy="2.319" r="2.319"/><circle class="e" cx="2.319" cy="2.319" r="2.319" transform="translate(0 7.813)"/><circle class="e" cx="2.319" cy="2.319" r="2.319" transform="translate(0 15.576)"/><circle class="e" cx="2.319" cy="2.319" r="2.319" transform="translate(0 23.34)"/><circle class="e" cx="2.319" cy="2.319" r="2.319" transform="translate(0 31.153)"/></g><g transform="translate(25.658)"><circle class="e" cx="2.319" cy="2.319" r="2.319"/><circle class="e" cx="2.319" cy="2.319" r="2.319" transform="translate(0 7.813)"/><circle class="e" cx="2.319" cy="2.319" r="2.319" transform="translate(0 15.576)"/><circle class="e" cx="2.319" cy="2.319" r="2.319" transform="translate(0 23.34)"/><circle class="e" cx="2.319" cy="2.319" r="2.319" transform="translate(0 31.153)"/></g><g transform="translate(34.228)"><circle class="e" cx="2.319" cy="2.319" r="2.319"/><circle class="e" cx="2.319" cy="2.319" r="2.319" transform="translate(0 7.813)"/><circle class="e" cx="2.319" cy="2.319" r="2.319" transform="translate(0 15.576)"/><circle class="e" cx="2.319" cy="2.319" r="2.319" transform="translate(0 31.153)"/></g></g><g transform="translate(517.568 365.858)"><g transform="translate(0 14.276)"><circle class="e" cx="2.319" cy="2.319" r="2.319" transform="translate(0 1.937) rotate(-24.689)"/><circle class="e" cx="2.319" cy="2.319" r="2.319" transform="translate(3.224 9.005) rotate(-24.689)"/><circle class="e" cx="2.319" cy="2.319" r="2.319" transform="translate(6.493 16.052) rotate(-24.689)"/><circle class="e" cx="2.319" cy="2.319" r="2.319" transform="translate(13.007 30.213) rotate(-24.689)"/></g><g transform="translate(7.761 10.701)"><circle class="e" cx="2.319" cy="2.319" r="2.319" transform="translate(0 1.937) rotate(-24.689)"/><circle class="e" cx="2.319" cy="2.319" r="2.319" transform="translate(3.224 9.005) rotate(-24.689)"/><circle class="e" cx="2.319" cy="2.319" r="2.319" transform="translate(6.514 16.098) rotate(-24.689)"/><circle class="e" cx="2.319" cy="2.319" r="2.319" transform="translate(9.738 23.166) rotate(-24.689)"/><circle class="e" cx="2.319" cy="2.319" r="2.319" transform="translate(13.008 30.213) rotate(-24.689)"/></g><g transform="translate(15.522 7.126)"><circle class="e" cx="2.319" cy="2.319" r="2.319" transform="translate(0 1.937) rotate(-24.689)"/><circle class="e" cx="2.319" cy="2.319" r="2.319" transform="translate(3.291 9.03) rotate(-24.689)"/><circle class="e" cx="2.319" cy="2.319" r="2.319" transform="translate(9.784 23.145) rotate(-24.689)"/><circle class="e" cx="2.319" cy="2.319" r="2.319" transform="translate(13.007 30.213) rotate(-24.689)"/></g><g transform="translate(23.283 3.55)"><circle class="e" cx="2.319" cy="2.319" r="2.319" transform="translate(0 1.937) rotate(-24.689)"/><circle class="e" cx="2.319" cy="2.319" r="2.319" transform="translate(3.291 9.03) rotate(-24.689)"/><circle class="e" cx="2.319" cy="2.319" r="2.319" transform="translate(6.514 16.098) rotate(-24.689)"/><circle class="e" cx="2.319" cy="2.319" r="2.319" transform="translate(9.784 23.145) rotate(-24.689)"/><circle class="e" cx="2.319" cy="2.319" r="2.319" transform="translate(13.007 30.213) rotate(-24.689)"/></g><g transform="translate(31.11 0)"><circle class="e" cx="2.319" cy="2.319" r="2.319" transform="translate(0 1.937) rotate(-24.689)"/><circle class="e" cx="2.319" cy="2.319" r="2.319" transform="translate(3.224 9.005) rotate(-24.689)"/><circle class="e" cx="2.319" cy="2.319" r="2.319" transform="translate(6.447 16.073) rotate(-24.689)"/><circle class="e" cx="2.319" cy="2.319" r="2.319" transform="translate(9.717 23.12) rotate(-24.689)"/><circle class="e" cx="2.319" cy="2.319" r="2.319" transform="translate(12.941 30.188) rotate(-24.689)"/></g></g><path class="k" d="M186.016,473.763l35.236,73.8c-59.735-7.561-58.475,46.377-58.475,46.377s-23.844-3.377-21.172,22.835" transform="translate(-118.518 -201.426)"/><path class="k" d="M434.4,666s6.049-31,33.27-23.44c0,0-6.805-54.442,37.051-51.417" transform="translate(-160.522 -218.236)"/><path class="h" d="M502.724,214.941s-3.277-4.184-6-3.579c-3.025.706-2.016,6.2,1.159,7.662a3.575,3.575,0,0,0,4.436-1.159l5.293,29.741A258.473,258.473,0,0,0,479.788,265c-12.754,9.427-17.794,13.863-17.794,13.863" transform="translate(-164.478 -163.801)"/><path class="e" d="M768.613,500.36h0a4.37,4.37,0,0,1-5.747-2.319l-3.176-7.41a4.37,4.37,0,0,1,2.319-5.747h0a4.37,4.37,0,0,1,5.747,2.319l3.176,7.41A4.448,4.448,0,0,1,768.613,500.36Z" transform="translate(-207.104 -202.97)"/><path class="c" d="M711.18,482.118h0a4.37,4.37,0,0,1-5.747-2.319l-3.176-7.41a4.37,4.37,0,0,1,2.319-5.747h0a4.37,4.37,0,0,1,5.747,2.319l3.176,7.41A4.448,4.448,0,0,1,711.18,482.118Z" transform="translate(-198.871 -200.355)"/><path class="e" d="M1135.892,487.192h0a4.41,4.41,0,0,1-.857-6.15l4.839-6.452a4.41,4.41,0,0,1,6.15-.857h0a4.41,4.41,0,0,1,.857,6.15l-4.839,6.452A4.457,4.457,0,0,1,1135.892,487.192Z" transform="translate(-260.837 -201.296)"/><path class="c" d="M1053.921,611.061h0a4.41,4.41,0,0,1-.857-6.15l4.839-6.452a4.41,4.41,0,0,1,6.15-.857h0a4.41,4.41,0,0,1,.857,6.15l-4.839,6.452A4.4,4.4,0,0,1,1053.921,611.061Z" transform="translate(-249.086 -219.053)"/><path class="c" d="M1093.523,404.044h0a4.41,4.41,0,0,1-.857-6.15l4.839-6.452a4.41,4.41,0,0,1,6.15-.857h0a4.41,4.41,0,0,1,.857,6.15l-4.839,6.452A4.41,4.41,0,0,1,1093.523,404.044Z" transform="translate(-254.763 -189.376)"/><path class="e" d="M982.659,634.658h0a4.41,4.41,0,0,1-.857-6.15l4.839-6.452a4.41,4.41,0,0,1,6.15-.857h0a4.41,4.41,0,0,1,.857,6.15l-4.839,6.452A4.41,4.41,0,0,1,982.659,634.658Z" transform="translate(-238.87 -222.436)"/><path class="g" d="M1150.721,534.739h0a4.41,4.41,0,0,1-.857-6.15l4.839-6.452a4.41,4.41,0,0,1,6.15-.857h0a4.411,4.411,0,0,1,.857,6.15l-4.839,6.452A4.41,4.41,0,0,1,1150.721,534.739Z" transform="translate(-262.963 -208.112)"/><path class="g" d="M1170.371,413.184h0a5.359,5.359,0,0,1-1.058-7.461l5.847-7.813a5.359,5.359,0,0,1,7.461-1.059h0a5.359,5.359,0,0,1,1.058,7.461l-5.848,7.813A5.359,5.359,0,0,1,1170.371,413.184Z" transform="translate(-265.726 -190.249)"/><path class="g" d="M1142.6,643.386h0a5.359,5.359,0,0,1-1.059-7.461l5.847-7.813a5.36,5.36,0,0,1,7.461-1.059h0a5.36,5.36,0,0,1,1.058,7.461l-5.848,7.813A5.413,5.413,0,0,1,1142.6,643.386Z" transform="translate(-261.744 -223.25)"/><path class="c" d="M1113.926,556.657h0a2.827,2.827,0,0,1-.555-3.982l3.125-4.134a2.827,2.827,0,0,1,3.982-.555h0a2.827,2.827,0,0,1,.554,3.982l-3.125,4.134A2.821,2.821,0,0,1,1113.926,556.657Z" transform="translate(-257.775 -211.983)"/><path class="e" d="M1133.734,391.845h0a1.434,1.434,0,0,1-.3-1.966l1.563-2.067a1.434,1.434,0,0,1,1.966-.3h0a1.434,1.434,0,0,1,.3,1.966l-1.563,2.067A1.382,1.382,0,0,1,1133.734,391.845Z" transform="translate(-260.696 -189.024)"/><path class="e" d="M1096.583,528.035h0a1.691,1.691,0,0,1-.353-2.369l1.865-2.47a1.691,1.691,0,0,1,2.369-.353h0a1.691,1.691,0,0,1,.353,2.369l-1.865,2.47A1.691,1.691,0,0,1,1096.583,528.035Z" transform="translate(-255.353 -208.415)"/><path class="c" d="M1174.4,455.4h0a1.434,1.434,0,0,1-.3-1.966l1.563-2.067a1.434,1.434,0,0,1,1.966-.3h0a1.434,1.434,0,0,1,.3,1.966l-1.563,2.067A1.388,1.388,0,0,1,1174.4,455.4Z" transform="translate(-266.525 -198.134)"/><path class="c" d="M815.26,605.432h0a3.257,3.257,0,0,1-4.285-1.714l-2.369-5.495a3.257,3.257,0,0,1,1.714-4.285h0a3.257,3.257,0,0,1,4.285,1.714l2.369,5.495A3.257,3.257,0,0,1,815.26,605.432Z" transform="translate(-214.13 -218.617)"/><path class="c" d="M689,514.459h0a2.206,2.206,0,0,1-2.873-1.159l-1.613-3.68a2.206,2.206,0,0,1,1.159-2.873h0a2.206,2.206,0,0,1,2.873,1.159l1.613,3.68A2.242,2.242,0,0,1,689,514.459Z" transform="translate(-196.355 -206.131)"/><path class="c" d="M639.679,388.459h0a1.947,1.947,0,0,1-2.521-1.008l-1.361-3.226a1.947,1.947,0,0,1,1.008-2.521h0a1.947,1.947,0,0,1,2.521,1.008l1.361,3.226A1.947,1.947,0,0,1,639.679,388.459Z" transform="translate(-189.373 -188.208)"/><path class="e" d="M756.663,327.848h0a1.947,1.947,0,0,1-2.52-1.008l-1.361-3.226a1.947,1.947,0,0,1,1.008-2.52h0a1.947,1.947,0,0,1,2.52,1.008l1.361,3.226A1.965,1.965,0,0,1,756.663,327.848Z" transform="translate(-206.144 -179.519)"/><path class="g" d="M759.872,530.725h0a3.794,3.794,0,0,1-4.991-2.016l-2.773-6.4a3.794,3.794,0,0,1,2.016-4.991h0a3.794,3.794,0,0,1,4.991,2.016l2.773,6.4A3.854,3.854,0,0,1,759.872,530.725Z" transform="translate(-206.025 -207.627)"/><path class="c" d="M665.9,569.681h0a3.794,3.794,0,0,1-4.99-2.016l-2.772-6.4a3.794,3.794,0,0,1,2.016-4.991h0a3.794,3.794,0,0,1,4.991,2.016l2.773,6.4A3.837,3.837,0,0,1,665.9,569.681Z" transform="translate(-192.553 -213.212)"/><path class="h" d="M730.578,431.388h0a5.754,5.754,0,0,1-7.561-3.025l-4.184-9.729a5.754,5.754,0,0,1,3.025-7.561h0a5.754,5.754,0,0,1,7.561,3.025l4.184,9.729A5.841,5.841,0,0,1,730.578,431.388Z" transform="translate(-201.23 -192.372)"/><path class="h" d="M664.021,513.786h0a3.6,3.6,0,0,1-4.738-1.865l-2.621-6.049a3.6,3.6,0,0,1,1.865-4.738h0A3.6,3.6,0,0,1,663.265,503l2.621,6.049A3.571,3.571,0,0,1,664.021,513.786Z" transform="translate(-192.341 -205.307)"/><path class="h" d="M738.891,573.943h0a5.218,5.218,0,0,1-6.856-2.722l-3.781-8.822a5.217,5.217,0,0,1,2.722-6.856h0a5.218,5.218,0,0,1,6.856,2.722l3.781,8.822A5.234,5.234,0,0,1,738.891,573.943Z" transform="translate(-202.587 -213.088)"/><path class="e" d="M642.861,620.521h0a4.37,4.37,0,0,1-5.747-2.319l-3.176-7.41a4.37,4.37,0,0,1,2.319-5.747h0A4.37,4.37,0,0,1,642,607.365l3.176,7.41A4.43,4.43,0,0,1,642.861,620.521Z" transform="translate(-189.077 -220.196)"/><path class="g" d="M703.936,662.234h0a6.588,6.588,0,0,1-8.62-3.428l-4.739-11.04a6.588,6.588,0,0,1,3.428-8.62h0a6.588,6.588,0,0,1,8.62,3.428l4.738,11.04A6.571,6.571,0,0,1,703.936,662.234Z" transform="translate(-197.172 -225.06)"/><path class="e" d="M692.839,401.831h0a2.724,2.724,0,0,1-3.529-1.411l-1.916-4.486a2.724,2.724,0,0,1,1.411-3.529h0a2.724,2.724,0,0,1,3.529,1.411l1.916,4.486A2.706,2.706,0,0,1,692.839,401.831Z" transform="translate(-196.762 -189.734)"/><path class="e" d="M225.138,495.983h0a2.724,2.724,0,0,1-3.529-1.411l-1.916-4.486a2.724,2.724,0,0,1,1.411-3.529h0a2.724,2.724,0,0,1,3.529,1.411l1.916,4.486A2.706,2.706,0,0,1,225.138,495.983Z" transform="translate(-129.713 -203.231)"/><path class="k" d="M166.94,476.917h0a2.724,2.724,0,0,1-3.529-1.411l-1.916-4.486a2.724,2.724,0,0,1,1.411-3.529h0a2.724,2.724,0,0,1,3.529,1.411l1.916,4.486A2.724,2.724,0,0,1,166.94,476.917Z" transform="translate(-121.37 -200.498)"/><path class="i" d="M511.188,205.37s-1.411,2.571,1.412,3.226" transform="translate(-171.48 -162.95)"/></g><g transform="translate(487.81 64.269)"><path class="h" d="M684.134,240.532a61.47,61.47,0,0,0,6.5-2.571c6.352-3.478,10.435-7.461,12.854-7.057,1.815.3,1.109,2.42-.1,4.134s-3.176,4.789-3.176,4.789a94.375,94.375,0,0,1,10.586.6c7.209.706,9.427,1.462,8.771,3.377,0,0,2.067.252,2.571,1.26a1.583,1.583,0,0,1-.353,1.714s.706.907.252,1.613a1.977,1.977,0,0,1-1.462.857,1.918,1.918,0,0,1-1.613,2.067c-1.865.6-19.105.6-31.052,6.6" transform="translate(-684.134 -230.875)"/><line class="h" x2="0.706" y2="9.023" transform="translate(20.466 10.463)"/><path class="h" d="M723.377,245.8a73.854,73.854,0,0,0-12.35-.655" transform="translate(-687.989 -232.919)"/><path class="h" d="M725.578,249.216s-2.621-1.109-14.669-.454" transform="translate(-687.972 -233.41)"/><path class="h" d="M724.343,252.172a61.466,61.466,0,0,0-13.258.252" transform="translate(-687.998 -233.896)"/></g><path class="h" d="M353.377,623.641l-34.43,9.578a3.822,3.822,0,0,0-2.772,3.428h0a3.778,3.778,0,0,0,4.688,3.831l6.1-1.563" transform="translate(-143.573 -222.913)"/><path class="h" d="M244.561,628.172l31.758,4.285A4.266,4.266,0,0,1,279.9,637.7h0a4.632,4.632,0,0,1-5.041,3.529l-5.848-.655" transform="translate(-133.307 -223.562)"/><g transform="translate(20.617 138.348)"><circle class="e" cx="4.537" cy="4.537" r="4.537" transform="translate(514.779)"/><circle class="e" cx="3.025" cy="3.025" r="3.025" transform="translate(556.67 192.664)"/><circle class="h" cx="6.402" cy="6.402" r="6.402" transform="translate(546.235 280.981)"/><circle class="t" cx="7.057" cy="7.057" r="7.057" transform="translate(842.994 210.812)"/><circle class="e" cx="6.553" cy="6.553" r="6.553" transform="translate(501.219 294.491)"/><circle class="k" cx="6.553" cy="6.553" r="6.553" transform="translate(426.412 225.884)"/><circle class="h" cx="4.537" cy="4.537" r="4.537" transform="translate(478.586 160.352)"/><circle class="h" cx="2.016" cy="2.016" r="2.016" transform="translate(526.424 114.026)"/><circle class="e" cx="3.428" cy="3.428" r="3.428" transform="translate(480.652 254.768)"/><circle class="c" cx="3.529" cy="3.529" r="3.529" transform="translate(609.095 244.082)"/><circle class="c" cx="5.545" cy="5.545" r="5.545" transform="translate(705.881 276.344)"/><circle class="h" cx="3.529" cy="3.529" r="3.529" transform="translate(673.619 254.164)"/><circle class="h" cx="9.578" cy="9.578" r="9.578" transform="translate(912.559 133.181)"/><circle class="c" cx="3.529" cy="3.529" r="3.529" transform="translate(822.831 236.016)"/><circle class="c" cx="4.537" cy="4.537" r="4.537" transform="translate(840.978 55.551)"/><circle class="e" cx="5.545" cy="5.545" r="5.545" transform="translate(515.334 162.419)"/><circle class="c" cx="3.025" cy="3.025" r="3.025" transform="translate(484.332 120.478)"/><circle class="e" cx="3.025" cy="3.025" r="3.025" transform="translate(493.86 76.068)"/><circle class="k" cx="3.025" cy="3.025" r="3.025" transform="translate(453.179 135.702)"/><circle class="h" cx="10.082" cy="10.082" r="10.082" transform="translate(850.052 283.401)"/><circle class="h" cx="10.586" cy="10.586" r="10.586" transform="translate(450.81 278.36)"/><circle class="c" cx="7.057" cy="7.057" r="7.057" transform="translate(873.24 234)"/><circle class="e" cx="4.89" cy="4.89" r="4.89" transform="translate(745.503 297.314)"/><circle class="e" cx="6.805" cy="6.805" r="6.805" transform="translate(762.138 232.286)"/><circle class="c" cx="3.025" cy="3.025" r="3.025" transform="translate(494.565 233.345)"/><circle class="e" cx="4.537" cy="4.537" r="4.537" transform="translate(0 294.289)"/><circle class="h" cx="3.025" cy="3.025" r="3.025" transform="translate(32.514 275.386)"/><circle class="c" cx="2.621" cy="2.621" r="2.621" transform="translate(41.588 194.479)"/></g><g transform="translate(225.76 68.978)"><path class="a" d="M403.458,249l.807-5.091s1.008-3.478-1.008-3.73-3.882,3.781-3.882,3.781-.6-4.033-1.916-4.839a5.941,5.941,0,0,0-3.226-.6,3.671,3.671,0,0,0-3.125-.857c-.4.1-1.411-1.361-4.537.756,0,0,.4-1.815-1.966-1.916s-7.208,3.125-6.251,4.436,5.142-.655,5.142-.655l.5-.1s-1.916,2.47-.706,2.823c1.21.4,3.579-.555,3.579-.555s-.555,1.764.3,2.117,2.924-.4,2.924-.4-1.008,1.663,0,1.714,3.882-1.26,3.882-1.26Z" transform="translate(-378.23 -236.39)"/><path class="h" d="M401.265,247.706s0-4.94-.907-6.906-3.277-2.571-4.386-1.663c-1.159.907-5.394,6.2-3.882,7.057,2.117,1.21,5.7-3.478,5.7-3.478" transform="translate(-380.171 -236.71)"/><path class="h" d="M395.7,238.678a2.33,2.33,0,0,0-2.47-1.008c-1.916.3-5.747,5.343-4.991,6.906.6,1.109,2.42.6,3.478-.706" transform="translate(-379.652 -236.553)"/><path class="h" d="M391.969,237.755a2.851,2.851,0,0,0-2.823-.4c-2.218.706-6.352,4.486-4.991,5.747.807.756,2.773-.252,4.033-1.059" transform="translate(-379.041 -236.487)"/><path class="h" d="M384.059,240.11s-4.688,2.319-5.646.756,4.184-4.386,5.8-4.486a2.465,2.465,0,0,1,2.621,1.512" transform="translate(-378.239 -236.373)"/><path class="h" d="M406.979,249.615a17.827,17.827,0,0,1,.807-5.091c.857-2.621.1-3.629-1.008-3.73-1.462-.1-3.781,1.815-3.982,4.991" transform="translate(-381.752 -237.006)"/></g></g></g></svg>