<svg xmlns="http://www.w3.org/2000/svg" xmlns:xlink="http://www.w3.org/1999/xlink" width="194" height="123" viewBox="0 0 194 123">
  <defs>
    <clipPath id="clip-path">
      <rect id="Nav" width="194" height="123" transform="translate(585 2886)" fill="#ccc"/>
    </clipPath>
  </defs>
  <g id="JB_Bespoke" data-name="JB Bespoke" transform="translate(-585 -2886)" clip-path="url(#clip-path)">
    <g id="Group_38" data-name="Group 38" transform="translate(541.844 2835.242)">
      <text id="JB_BESPOKE_CARPENTRY" data-name="JB BESPOKE
CARPENTRY" transform="translate(142.156 131.1)" fill="#484848" font-size="16" font-family="Baskerville" letter-spacing="0.14em"><tspan x="-56.412" y="0">JB BESPOKE</tspan><tspan font-size="14"><tspan x="-50.096" y="19">CARPENTRY</tspan></tspan></text>
      <path id="Path_46" data-name="Path 46" d="M106.28,104.618l-2.556-.432a.072.072,0,0,0-.059.016l-2.006,1.638a.074.074,0,0,0,.034.13l2.554.433a.072.072,0,0,0,.059-.016l2.008-1.639A.074.074,0,0,0,106.28,104.618Z" transform="translate(-0.77 -1.01)" fill="#484848"/>
      <path id="Path_47" data-name="Path 47" d="M105.7,104.962l-1.437-.243-1.128.921,1.436.243Z" transform="translate(-0.815 -1.026)" fill="#484848"/>
      <path id="Path_48" data-name="Path 48" d="M126.028,99.849a2.325,2.325,0,0,1,1.88-.043,2.135,2.135,0,0,1,1.043,1.492,3.969,3.969,0,0,1-2.357,4.154,7.632,7.632,0,0,1-5.046.229c-1.668-.408-3.252-1.108-4.909-1.557a16.967,16.967,0,0,0-5.5-.559c-2.069.13-4.326.794-5.382,2.577-.379.64-.636,1.447-1.317,1.745a4.979,4.979,0,0,0,3.282.243c.6-.163,1.277-.69,1.044-1.265a1.314,1.314,0,0,0,2.2-.737,1.079,1.079,0,0,1,.1-.626c.313-.4.919.125,1.43.143.733.025,1.369-1.064,1.984-.662.119.079.2.2.32.282a1.3,1.3,0,0,0,.929.032,6.33,6.33,0,0,1,2.807.449c2.062.635,4.629,1.286,6.728.787s4-2.178,4.12-4.332a4.105,4.105,0,0,0-.52-2,2.434,2.434,0,0,0-2.693-.789,4.775,4.775,0,0,0-2.378,2.054c-.369.6-.774,1.357-1.481,1.389.672.111.872.75,1.551.691.6-.05.621-.326.771-.852C125,101.406,124.389,100.508,126.028,99.849Z" transform="translate(-0.855 -0.863)" fill="#484848"/>
      <path id="Path_49" data-name="Path 49" d="M104.589,101.8a2.478,2.478,0,0,1,.044-2.226.251.251,0,0,1,.075-.087c.129-.081.269.081.345.212a2.474,2.474,0,0,0,1.478,1.133.513.513,0,0,0,.389-.012c.1-.059.154-.175.235-.26.317-.335.886-.1,1.225.216s.688.722,1.148.7c.4-.025.694-.377.989-.655s.765-.5,1.083-.248.223.773.445,1.114a1.06,1.06,0,0,0,1.06.345,9.959,9.959,0,0,1,1.155-.227.573.573,0,0,1,.337.072c.157.1.209.315.352.436.193.164.48.115.733.135,1.022.08,1.538,1.307,2.465,1.747a23.691,23.691,0,0,0-5.537-1.138,12.07,12.07,0,0,0-5.054.832C106.177,104.405,105.1,102.994,104.589,101.8Z" transform="translate(-0.852 -0.868)" fill="#484848"/>
      <path id="Path_50" data-name="Path 50" d="M104.919,103.905c-1.532-.678-1.554-1.723-2-2.183a.394.394,0,0,0-.272-.152.279.279,0,0,0-.237.222.8.8,0,0,0,.014.346l.191,1.021-.859.179a.814.814,0,0,0-.349.133.276.276,0,0,0-.1.333c.085.155.34.156.411.318.079.182-.143.343-.323.428s-.385.281-.271.444a1.041,1.041,0,0,0,.464.244l2.008-1.576Z" transform="translate(-0.754 -0.931)" fill="#484848"/>
      <path id="Path_51" data-name="Path 51" d="M103.961,108.031a.24.24,0,0,1-.1.162.173.173,0,0,1-.194-.053.5.5,0,0,1-.092-.194l-.191-.616-.524.15a.505.505,0,0,1-.23.028.173.173,0,0,1-.148-.155c0-.111.143-.184.134-.294s-.177-.146-.3-.142-.293-.043-.277-.165a.659.659,0,0,1,.183-.269l1.557.285A3.171,3.171,0,0,1,103.961,108.031Z" transform="translate(-0.782 -1.08)" fill="#484848"/>
      <path id="Path_52" data-name="Path 52" d="M123.521,95.789c-.425.164-.854.65-.594,1.022.086.124.232.2.325.315s.094.339-.051.382a.607.607,0,0,0-.729.485,1.68,1.68,0,0,0,.162.964,1.944,1.944,0,0,1,.2.961,1.178,1.178,0,0,1-.9.9,2.286,2.286,0,0,1-1.322-.128,2.52,2.52,0,0,0,1.212,1.194,1.447,1.447,0,0,0,1.6-.3c.322-.368.507-.9.8-1.289a3.545,3.545,0,0,1,2.877-1.721,4.163,4.163,0,0,1-2.284-2.862C124.77,95.486,124.181,95.534,123.521,95.789Z" transform="translate(-1.344 -0.75)" fill="#484848"/>
      <path id="Path_53" data-name="Path 53" d="M119.711,110.363a1.829,1.829,0,0,1,.474-1.307.613.613,0,0,1,.231-.174.821.821,0,0,1,.541.076,1.611,1.611,0,0,0,1,.087c.421-.127.721-.513,1.136-.658.6-.211,1.322.127,1.892-.164.171-.086.31-.223.472-.325a6.866,6.866,0,0,1,1.074-.408.978.978,0,0,0,.687-.835,1.112,1.112,0,0,0-.7.253,9.346,9.346,0,0,1-5.786.044c-.393-.123-.68-.281-1.04,0s-.432,1.523-.437,1.942C119.238,109.449,119.689,109.909,119.711,110.363Z" transform="translate(-1.302 -1.085)" fill="#484848"/>
      <path id="Path_54" data-name="Path 54" d="M127.116,104.611a3.2,3.2,0,0,0,1.346-1.533,1.872,1.872,0,0,0-.343-1.938,1.2,1.2,0,0,0-1.344-.278.84.84,0,0,0-.289,1.238c.219.241.582.3.809.536a.978.978,0,0,1,.016,1.2,2.472,2.472,0,0,1-1.028.764,7.968,7.968,0,0,1-2.711.665A5.289,5.289,0,0,0,127.116,104.611Z" transform="translate(-1.433 -0.907)" fill="#484848"/>
      <path id="Path_55" data-name="Path 55" d="M116.266,98.79a3.989,3.989,0,0,1,1.152-3.693c.608-.439,1.483-.605,1.8-1.284.251,1.241.465,2.662-.311,3.662-.259.334-.638.664-.58,1.083a2.07,2.07,0,0,0,.3.617,1.373,1.373,0,0,1-.144,1.446.9.9,0,0,0,.609.068,2.169,2.169,0,0,0,.465,1.484.834.834,0,0,1,.1.17,4.255,4.255,0,0,0,3.137,2.645A8.693,8.693,0,0,1,116.266,98.79Z" transform="translate(-1.21 -0.697)" fill="#484848"/>
      <path id="Path_56" data-name="Path 56" d="M123.327,94.3a1.132,1.132,0,0,1-.311.4,5.9,5.9,0,0,0-1.524,2.441c-.194.592-.078,2.194-.474,2.535a4.4,4.4,0,0,1-.109-3.312,10.7,10.7,0,0,0,.552-1.509,1.448,1.448,0,0,0-.443-1.454,1.6,1.6,0,0,1-.342-.249c-.085-.109-.109-.3.008-.373.195-.124.568.1.623-.124-.273-.335-.544-.661-.809-1a1.221,1.221,0,0,1-.249-.42.575.575,0,0,1,.77-.606c-.248-.645-.917-1.011-1.454-1.461s-1-1.2-.646-1.8a4.991,4.991,0,0,0,1.548,1.066c.078.031.155.054.225.078a1.861,1.861,0,0,0,1.486-.008,1.36,1.36,0,0,0,.871-1.252,16.064,16.064,0,0,1,.163,1.726h.047c.024,1.687.094,3.235.1,4.9A.959.959,0,0,1,123.327,94.3Z" transform="translate(-1.289 -0.498)" fill="#484848"/>
      <path id="Path_57" data-name="Path 57" d="M118.412,97.78c2.109-2.216,1.68-4.9.25-6.077a3.388,3.388,0,0,0-4.182-.035,2.908,2.908,0,0,0-.764,2.029,1.786,1.786,0,0,0,.906,1.047,1.272,1.272,0,0,0,.508.2,1.108,1.108,0,0,0,.983-.6,1.084,1.084,0,0,0,.115-1.078c-.19-.329-.756-.406-.931-.069" transform="translate(-1.135 -0.611)" fill="#484848" stroke="#fff" stroke-miterlimit="10" stroke-width="0.401"/>
      <path id="Path_58" data-name="Path 58" d="M114.928,97.7a1.042,1.042,0,0,0-.729-1.792,1.362,1.362,0,0,0-1.219,1.174,3.212,3.212,0,0,0,.318,1.909,8.265,8.265,0,0,0,2.841,2.772,32.933,32.933,0,0,0,4.086,2.174" transform="translate(-1.112 -0.76)" fill="#484848" stroke="#fff" stroke-miterlimit="10" stroke-width="0.384"/>
      <path id="Path_59" data-name="Path 59" d="M121.644,107.326a11.55,11.55,0,0,0-3.669-.573,6.087,6.087,0,0,0-3.008.687,2.009,2.009,0,0,0-.911.939,1.313,1.313,0,0,0,2.2,1.359.982.982,0,0,0,.25-.5.776.776,0,0,0-1.248-.723" transform="translate(-1.143 -1.088)" fill="#484848" stroke="#fff" stroke-miterlimit="10" stroke-width="0.372"/>
      <path id="Path_60" data-name="Path 60" d="M113.024,94.7a.954.954,0,0,1,.132.317.834.834,0,0,1-.3.61,3.824,3.824,0,0,0-.711,1.047,2.367,2.367,0,0,0,.211,2.18,3.123,3.123,0,0,1-.877-1.506,5.633,5.633,0,0,1,.435-3.713A4.943,4.943,0,0,1,113.5,91.77a4.705,4.705,0,0,0-.7,1.358A2.412,2.412,0,0,0,113.024,94.7Z" transform="translate(-1.063 -0.635)" fill="#484848"/>
      <path id="Path_61" data-name="Path 61" d="M111.618,96.836a4.288,4.288,0,0,0,1.883,3.274,23.9,23.9,0,0,0,2.324,1.513" transform="translate(-1.072 -0.788)" fill="#484848" stroke="#fff" stroke-miterlimit="10" stroke-width="0.401"/>
      <path id="Path_62" data-name="Path 62" d="M123.247,93.491l-.047-5.434a4.986,4.986,0,0,0-.132-1.332,1.679,1.679,0,0,0-.777-1.049,2.3,2.3,0,0,0-.9-.318,1.74,1.74,0,0,0-1.175.415.99.99,0,0,0,.277,1.586.785.785,0,0,0,.784-.109.583.583,0,0,0,.12-.748.511.511,0,0,0-.516-.2" transform="translate(-1.323 -0.441)" fill="#484848" stroke="#fff" stroke-miterlimit="10" stroke-width="0.2"/>
      <path id="Path_63" data-name="Path 63" d="M177.523,104.618l2.556-.432a.072.072,0,0,1,.059.016l2.006,1.638a.074.074,0,0,1-.034.13l-2.554.433a.072.072,0,0,1-.059-.016l-2.008-1.639A.074.074,0,0,1,177.523,104.618Z" transform="translate(-3.062 -1.01)" fill="#484848"/>
      <path id="Path_64" data-name="Path 64" d="M178.171,104.962l1.437-.243,1.128.921-1.436.243Z" transform="translate(-3.083 -1.026)" fill="#484848"/>
      <path id="Path_65" data-name="Path 65" d="M157.145,99.849a2.327,2.327,0,0,0-1.881-.043,2.135,2.135,0,0,0-1.043,1.492,3.969,3.969,0,0,0,2.357,4.154,7.634,7.634,0,0,0,5.047.229c1.668-.408,3.251-1.108,4.909-1.557a16.959,16.959,0,0,1,5.5-.559c2.069.13,4.327.794,5.382,2.577.379.64.636,1.447,1.317,1.745a4.979,4.979,0,0,1-3.282.243c-.6-.163-1.276-.69-1.044-1.265a1.314,1.314,0,0,1-2.2-.737,1.079,1.079,0,0,0-.1-.626c-.313-.4-.919.125-1.429.143-.734.025-1.37-1.064-1.984-.662-.119.079-.2.2-.321.282a1.3,1.3,0,0,1-.929.032,6.33,6.33,0,0,0-2.807.449c-2.062.635-4.629,1.286-6.728.787s-4-2.178-4.12-4.332a4.1,4.1,0,0,1,.521-2,2.433,2.433,0,0,1,2.693-.789,4.777,4.777,0,0,1,2.377,2.054c.369.6.774,1.357,1.481,1.389-.672.111-.872.75-1.551.691-.6-.05-.621-.326-.771-.852C158.174,101.406,158.783,100.508,157.145,99.849Z" transform="translate(-2.346 -0.863)" fill="#484848"/>
      <path id="Path_66" data-name="Path 66" d="M178.93,101.8a2.478,2.478,0,0,0-.044-2.226.241.241,0,0,0-.075-.087c-.129-.081-.269.081-.345.212a2.474,2.474,0,0,1-1.478,1.133.513.513,0,0,1-.389-.012c-.1-.059-.153-.175-.235-.26-.317-.335-.886-.1-1.225.216s-.688.722-1.148.7c-.4-.025-.694-.377-.989-.655s-.765-.5-1.083-.248-.222.773-.445,1.114a1.06,1.06,0,0,1-1.06.345,9.879,9.879,0,0,0-1.155-.227.573.573,0,0,0-.337.072c-.157.1-.208.315-.351.436-.194.164-.481.115-.734.135-1.022.08-1.538,1.307-2.465,1.747a23.7,23.7,0,0,1,5.537-1.138,12.07,12.07,0,0,1,5.054.832C177.343,104.405,178.417,102.994,178.93,101.8Z" transform="translate(-2.696 -0.868)" fill="#484848"/>
      <path id="Path_67" data-name="Path 67" d="M178.912,103.905c1.532-.678,1.555-1.723,2-2.183a.4.4,0,0,1,.272-.152.28.28,0,0,1,.238.222.819.819,0,0,1-.015.346l-.191,1.021.86.179a.823.823,0,0,1,.349.133.276.276,0,0,1,.094.333c-.085.155-.34.156-.411.318-.079.182.143.343.323.428s.385.281.271.444a1.043,1.043,0,0,1-.463.244l-2.009-1.576Z" transform="translate(-3.106 -0.931)" fill="#484848"/>
      <path id="Path_68" data-name="Path 68" d="M179.928,108.031a.243.243,0,0,0,.1.162.173.173,0,0,0,.194-.053.5.5,0,0,0,.092-.194l.191-.616.524.15a.505.505,0,0,0,.23.028.173.173,0,0,0,.148-.155c0-.111-.143-.184-.134-.294s.177-.146.3-.142.293-.043.277-.165a.659.659,0,0,0-.183-.269l-1.557.285A3.171,3.171,0,0,0,179.928,108.031Z" transform="translate(-3.135 -1.08)" fill="#484848"/>
      <path id="Path_69" data-name="Path 69" d="M160.227,95.789c.424.164.853.65.593,1.022-.087.124-.233.2-.326.315s-.093.339.051.382a.606.606,0,0,1,.729.485,1.68,1.68,0,0,1-.161.964,1.934,1.934,0,0,0-.2.961,1.178,1.178,0,0,0,.9.9,2.286,2.286,0,0,0,1.322-.128,2.516,2.516,0,0,1-1.212,1.194,1.445,1.445,0,0,1-1.6-.3c-.323-.368-.508-.9-.8-1.289a3.545,3.545,0,0,0-2.877-1.721,4.162,4.162,0,0,0,2.284-2.862C158.977,95.486,159.567,95.534,160.227,95.789Z" transform="translate(-2.433 -0.75)" fill="#484848"/>
      <path id="Path_70" data-name="Path 70" d="M163.991,110.363a1.832,1.832,0,0,0-.473-1.307.624.624,0,0,0-.232-.174.817.817,0,0,0-.54.076,1.614,1.614,0,0,1-1,.087c-.421-.127-.721-.513-1.136-.658-.6-.211-1.322.127-1.892-.164-.171-.086-.31-.223-.472-.325a6.856,6.856,0,0,0-1.073-.408.979.979,0,0,1-.688-.835,1.112,1.112,0,0,1,.7.253,9.347,9.347,0,0,0,5.786.044c.393-.123.68-.281,1.041,0s.431,1.523.436,1.942C164.463,109.449,164.012,109.909,163.991,110.363Z" transform="translate(-2.428 -1.085)" fill="#484848"/>
      <path id="Path_71" data-name="Path 71" d="M156.678,104.611a3.2,3.2,0,0,1-1.346-1.533,1.872,1.872,0,0,1,.343-1.938,1.2,1.2,0,0,1,1.345-.278.839.839,0,0,1,.288,1.238c-.219.241-.582.3-.808.536a.978.978,0,0,0-.017,1.2,2.472,2.472,0,0,0,1.028.764,7.974,7.974,0,0,0,2.711.665A5.289,5.289,0,0,1,156.678,104.611Z" transform="translate(-2.389 -0.907)" fill="#484848"/>
      <path id="Path_72" data-name="Path 72" d="M167.479,98.79a3.992,3.992,0,0,0-1.153-3.693c-.608-.439-1.482-.605-1.8-1.284-.251,1.241-.465,2.662.311,3.662.259.334.639.664.58,1.083a2.09,2.09,0,0,1-.3.617,1.371,1.371,0,0,0,.144,1.446.9.9,0,0,1-.609.068,2.169,2.169,0,0,1-.465,1.484.789.789,0,0,0-.1.17,4.256,4.256,0,0,1-3.138,2.645A8.7,8.7,0,0,0,167.479,98.79Z" transform="translate(-2.563 -0.697)" fill="#484848"/>
      <path id="Path_73" data-name="Path 73" d="M160.482,94.3a1.119,1.119,0,0,0,.31.4,5.9,5.9,0,0,1,1.525,2.441c.194.592.078,2.194.474,2.535a4.4,4.4,0,0,0,.109-3.312,10.706,10.706,0,0,1-.552-1.509,1.448,1.448,0,0,1,.443-1.454,1.58,1.58,0,0,0,.342-.249c.085-.109.109-.3-.008-.373-.195-.124-.567.1-.623-.124.273-.335.545-.661.809-1a1.221,1.221,0,0,0,.249-.42.575.575,0,0,0-.77-.606c.249-.645.917-1.011,1.454-1.461s1-1.2.646-1.8a4.991,4.991,0,0,1-1.548,1.066c-.078.031-.155.054-.225.078a1.862,1.862,0,0,1-1.486-.008,1.36,1.36,0,0,1-.871-1.252,16.062,16.062,0,0,0-.163,1.726h-.047c-.023,1.687-.093,3.235-.1,4.9A.959.959,0,0,0,160.482,94.3Z" transform="translate(-2.547 -0.498)" fill="#484848"/>
      <path id="Path_74" data-name="Path 74" d="M165.346,97.78c-2.108-2.216-1.68-4.9-.25-6.077a3.388,3.388,0,0,1,4.182-.035,2.9,2.9,0,0,1,.764,2.029,1.783,1.783,0,0,1-.906,1.047,1.267,1.267,0,0,1-.508.2,1.109,1.109,0,0,1-.983-.6,1.085,1.085,0,0,1-.115-1.078c.19-.329.756-.406.931-.069" transform="translate(-2.652 -0.611)" fill="#484848" stroke="#fff" stroke-miterlimit="10" stroke-width="0.401"/>
      <path id="Path_75" data-name="Path 75" d="M168.795,97.7a1.042,1.042,0,0,1,.729-1.792,1.362,1.362,0,0,1,1.219,1.174,3.212,3.212,0,0,1-.318,1.909,8.265,8.265,0,0,1-2.841,2.772,32.933,32.933,0,0,1-4.086,2.174" transform="translate(-2.64 -0.76)" fill="#484848" stroke="#fff" stroke-miterlimit="10" stroke-width="0.384"/>
      <path id="Path_76" data-name="Path 76" d="M162.067,107.326a11.55,11.55,0,0,1,3.669-.573,6.084,6.084,0,0,1,3.008.687,2.009,2.009,0,0,1,.911.939,1.313,1.313,0,0,1-2.2,1.359.989.989,0,0,1-.25-.5.776.776,0,0,1,1.248-.723" transform="translate(-2.596 -1.088)" fill="#484848" stroke="#fff" stroke-miterlimit="10" stroke-width="0.372"/>
      <path id="Path_77" data-name="Path 77" d="M170.858,94.7a.954.954,0,0,0-.132.317.834.834,0,0,0,.3.61,3.824,3.824,0,0,1,.711,1.047,2.367,2.367,0,0,1-.21,2.18,3.129,3.129,0,0,0,.876-1.506,5.627,5.627,0,0,0-.435-3.713,4.934,4.934,0,0,0-1.582-1.868,4.705,4.705,0,0,1,.7,1.358A2.412,2.412,0,0,1,170.858,94.7Z" transform="translate(-2.848 -0.635)" fill="#484848"/>
      <path id="Path_78" data-name="Path 78" d="M172.2,96.836a4.288,4.288,0,0,1-1.883,3.274,23.9,23.9,0,0,1-2.324,1.513" transform="translate(-2.776 -0.788)" fill="#484848" stroke="#fff" stroke-miterlimit="10" stroke-width="0.401"/>
      <path id="Path_79" data-name="Path 79" d="M160.6,93.491l.047-5.434a4.986,4.986,0,0,1,.132-1.332,1.686,1.686,0,0,1,.777-1.049,2.3,2.3,0,0,1,.9-.318,1.738,1.738,0,0,1,1.175.415.99.99,0,0,1-.277,1.586.785.785,0,0,1-.784-.109.583.583,0,0,1-.119-.748.509.509,0,0,1,.515-.2" transform="translate(-2.552 -0.441)" fill="#484848" stroke="#fff" stroke-miterlimit="10" stroke-width="0.2"/>
      <path id="Path_80" data-name="Path 80" d="M129.817,107.782a2.378,2.378,0,0,0-.155.436A2.15,2.15,0,0,1,129.817,107.782Z" transform="translate(-1.617 -1.119)" fill="#484848"/>
      <g id="Group_30" data-name="Group 30" transform="translate(124.398 70.758)">
        <g id="Group_29" data-name="Group 29" transform="translate(0 0.342)">
          <g id="Group_28" data-name="Group 28" transform="translate(0 1.867)">
            <path id="Path_81" data-name="Path 81" d="M137.23,98.826l-2.885.366v-.687l1.6-.272A6.162,6.162,0,0,1,137.23,98.826Zm-4.6-1.415h-1.843v.265l1.843.367Zm0-1.151h-4.053v.408l4.053.2Zm0-1.114h-5.91v.371l5.91.168Zm0-1.151H125.9v.353l6.726.278Zm0-1.012-6.726-.139v.241l6.726.427Zm1.717-3.455,1.842-.367V88.9h-1.842Zm4.052-1.783h-4.052l-.8.613,4.849-.2Zm-4.052-6.8,3.154-.462.644-.34-3.8.174Zm0-1.8v.687l3.424-.421c.267.128-.98-.436-1.411-.626Zm-1.717,12.626V92.4l-5.336-.444a.509.509,0,0,0,.146-.344Zm-4.958-1.524,2.678-.057,2.281.408v.687L127.1,90.7Zm2.754-1.305,2.2-.052v1.3l-3.464-.8A6.209,6.209,0,0,1,130.423,88.94Zm3.5-.4v12.766a2.819,2.819,0,0,1-.881.3v-13ZM136.6,86.63h3.653V87l-5.047.133Zm2.423-1.152h2.047v.353l-2.914.113Zm-5.978-3.407v-8.6a.44.44,0,1,1,.881,0v8.962s-.559.353-.385.151C133.855,82.224,133.29,82.071,133.045,82.071Zm1.3,18.235,3.154-.462.644-.34-3.8.174Z" transform="translate(-125.901 -73.036)" fill="#484848"/>
          </g>
          <path id="Path_82" data-name="Path 82" d="M126.089,91.012c0,.339-.068.921.252,1.144a.635.635,0,0,0,.97-.475c0-.553-.495-.5-.882-.4,0-.165.194-.3.31-.4.292-.242.592-.465.873-.708.1-.078.194-.155.291-.223a1.246,1.246,0,0,1,.185-.126,10.362,10.362,0,0,1,4.382-1.241,5.837,5.837,0,0,0,2.25-.32c.331-.155.4-.31.088-.475a1.135,1.135,0,0,1,.649-.31c.5-.136,1.039-.223,1.561-.339a6.177,6.177,0,0,0,1.63-.533c.212-.126.668-.33.639-.63-.32-.1.155-.272.242-.32,1.222-.737,1.7-1.571,1.7-1.843,0-.524-.029-4.829-.029-5.314a10.933,10.933,0,0,1-4.227,2.861c-.01-.175.154-.291.135-.475-.233-.039-.358.087-.524.223-.291.233-.6.456-.9.689a5.422,5.422,0,0,1-1.009.689,3.655,3.655,0,0,1-1.455.524c-.058-.252.34-.446,0-.562-.3-.1-.882.33-1.1.485-.485.33-.9.766-1.368,1.106-.446.33-.959.834-1.56.766-.02-.155.039-.3.029-.446a6.157,6.157,0,0,0-3.152,2.376Z" transform="translate(-125.906 -71.334)" fill="#484848"/>
          <path id="Path_83" data-name="Path 83" d="M134.553,93.088a2.619,2.619,0,0,0,.626.881,1.875,1.875,0,0,0,1.046.45c-.085-.758,1.169.308,1.353.47.224.2.654.636,1.011.5.163-.062.113-.163.31-.2a.6.6,0,0,1,.428.135c2.015,1.627,2,2.6,1.972,2.631a7.092,7.092,0,0,1-2.327,2.078,15.063,15.063,0,0,0-4.419-2C134.536,98.027,134.553,94,134.553,93.088Z" transform="translate(-126.162 -71.775)" fill="#484848"/>
          <path id="Path_84" data-name="Path 84" d="M141.307,103.787a7.309,7.309,0,0,1-.8.853,6.483,6.483,0,0,1-.678.533c.077-.01.175.019.251.01.107.756-1.377,1.028-1.881,1.1a14.111,14.111,0,0,1-1.7.126c-.087,0-.416-.039-.465.1s.116.116.156.242c.165.6-1.611.407-1.94.427a8.314,8.314,0,0,0-4.423.689.146.146,0,0,0,.068.087c.1.058.281-.029.36-.058a1.048,1.048,0,0,1,.62-.068.5.5,0,0,1,.213.824c-.359.436-1.066.2-1.348-.194a.592.592,0,0,1-.058-.514,2.452,2.452,0,0,1,.155-.436c.029-.078.068-.155.1-.233a14.261,14.261,0,0,1,2.221-3.675,12.088,12.088,0,0,1,1.543-1.367c.271-.2.921-.63,1.28-.562s.077.427.358.582c.572.32,1.135-.32,1.475-.659s.862-.95,1.357-.853c.31.068-.081.677.262.5,2.028-1.02,2.841-2.163,2.871-2.754C141.394,99.413,141.307,103.787,141.307,103.787Z" transform="translate(-126.015 -71.938)" fill="#484848"/>
          <path id="Path_85" data-name="Path 85" d="M137.3,73.02c-.572-1.129-2.285-1.606-3.514-1.909a3.086,3.086,0,0,1,.846,2.216c-.013.936-.088,1.9-.044,2.847a1.767,1.767,0,0,0,.689,1.394,6.539,6.539,0,0,0,1.067.563,10.154,10.154,0,0,0,.953.462c.682.246,1.406.5,1.437,1.316a9.527,9.527,0,0,0,2.69-2.195c0-.605-.021-.96-.043-1.482-.016-.238-.161-.732-.567-.611.017.025.317.611-.173.651-.326.054-.634-1.063-.705-1.231a2.16,2.16,0,0,0-.69-.955c-.1-.065-.409-.228-.541-.155-.112.062-.087.254-.164.36a.523.523,0,0,1-.37.184C137.208,74.652,137.8,73.858,137.3,73.02Z" transform="translate(-126.139 -71.111)" fill="#484848"/>
        </g>
        <path id="Path_86" data-name="Path 86" d="M134.114,73.552a3.226,3.226,0,0,0-1.824-2.794,2.553,2.553,0,0,0,.037,1.012,10.357,10.357,0,0,1-.109,1.466c0,.426.325.645.516.987a2.978,2.978,0,0,1,.323,1.19,2.743,2.743,0,0,1-.067.943,3.519,3.519,0,0,0-.251.726,3.11,3.11,0,0,0,.255,1.055,5.718,5.718,0,0,1,.044,1.075c.015.3.17.465.2,1.007a1.217,1.217,0,0,0,.073.377c.033.1.111.284.27.211.209-.1.144-.9.151-1.084.047-1.1.027-2.2.1-3.291.033-.525.021-1.032.1-1.552a3.539,3.539,0,0,0,.079-.769" transform="translate(-126.092 -70.758)" fill="#484848"/>
      </g>
      <g id="Group_33" data-name="Group 33" transform="translate(140.177 70.758)">
        <g id="Group_32" data-name="Group 32" transform="translate(0 0.342)">
          <g id="Group_31" data-name="Group 31" transform="translate(0.161 1.867)">
            <path id="Path_87" data-name="Path 87" d="M147.469,98.234l1.6.272v.687l-2.885-.366A6.161,6.161,0,0,1,147.469,98.234Zm3.314-.191,1.843-.367v-.265h-1.843Zm0-1.17,4.053-.2V96.26h-4.053Zm0-1.188,5.91-.168v-.371h-5.91Zm0-1.059,6.726-.278v-.353h-6.726Zm0-1.114,6.726-.427v-.241l-6.726.139ZM149.065,88.9h-1.843v.265l1.843.367Zm-4.052-.743,4.849.2-.8-.613h-4.052Zm4.052-7.837-3.8-.174.644.34,3.154.462Zm-2.013-1.533c-.431.19-1.678.754-1.411.626l3.424.421v-.687Zm8.919,12.826a.514.514,0,0,0,.147.344l-5.336.444v-.628Zm.339-.908-5.528.582V90.6l2.281-.408,2.678.057Zm-2.064-1.313-3.464.8v-1.3l2.2.052A6.209,6.209,0,0,1,154.247,89.388Zm-3.883-.781v13a2.819,2.819,0,0,1-.88-.3V88.543ZM148.2,87.135,143.157,87V86.63h3.653Zm-2.948-1.19-2.915-.113v-.353h2.048Zm4.615-3.355c.174.2-.385-.151-.385-.151V73.476a.44.44,0,1,1,.88,0v8.6C150.12,82.071,149.554,82.224,149.869,82.589Zm-.8,17.088-3.8-.174.644.34,3.154.462Z" transform="translate(-142.339 -73.036)" fill="#484848"/>
          </g>
          <path id="Path_88" data-name="Path 88" d="M157.32,91.012c0,.339.068.921-.252,1.144a.635.635,0,0,1-.97-.475c0-.553.495-.5.883-.4,0-.165-.194-.3-.31-.4-.291-.242-.592-.465-.872-.708-.1-.078-.195-.155-.292-.223a1.235,1.235,0,0,0-.184-.126,10.37,10.37,0,0,0-4.382-1.241,5.842,5.842,0,0,1-2.251-.32c-.33-.155-.4-.31-.087-.475a1.137,1.137,0,0,0-.65-.31c-.5-.136-1.038-.223-1.561-.339a6.183,6.183,0,0,1-1.629-.533c-.213-.126-.669-.33-.64-.63.32-.1-.155-.272-.242-.32-1.222-.737-1.7-1.571-1.7-1.843,0-.524.03-4.829.03-5.314a10.933,10.933,0,0,0,4.227,2.861c.01-.175-.155-.291-.136-.475.233-.039.359.087.525.223.29.233.6.456.9.689a5.455,5.455,0,0,0,1.009.689,3.655,3.655,0,0,0,1.455.524c.058-.252-.339-.446,0-.562.3-.1.883.33,1.106.485.485.33.9.766,1.367,1.106.446.33.96.834,1.561.766.019-.155-.039-.3-.029-.446a6.161,6.161,0,0,1,3.152,2.376Z" transform="translate(-142.173 -71.334)" fill="#484848"/>
          <path id="Path_89" data-name="Path 89" d="M149.12,93.088a2.646,2.646,0,0,1-.626.881,1.875,1.875,0,0,1-1.046.45c.085-.758-1.169.308-1.353.47-.224.2-.655.636-1.011.5-.163-.062-.113-.163-.31-.2a.6.6,0,0,0-.428.135c-2.015,1.627-2,2.6-1.972,2.631a7.092,7.092,0,0,0,2.326,2.078,15.063,15.063,0,0,1,4.419-2C149.136,98.027,149.12,94,149.12,93.088Z" transform="translate(-142.178 -71.775)" fill="#484848"/>
          <path id="Path_90" data-name="Path 90" d="M142.212,103.787a7.3,7.3,0,0,0,.794.853,6.5,6.5,0,0,0,.679.533c-.078-.01-.175.019-.251.01-.108.756,1.376,1.028,1.88,1.1a14.126,14.126,0,0,0,1.7.126c.087,0,.417-.039.465.1s-.116.116-.155.242c-.165.6,1.61.407,1.94.427a8.311,8.311,0,0,1,4.422.689.148.148,0,0,1-.067.087c-.1.058-.282-.029-.36-.058a1.05,1.05,0,0,0-.62-.068.5.5,0,0,0-.214.824c.359.436,1.067.2,1.348-.194a.592.592,0,0,0,.058-.514,2.378,2.378,0,0,0-.155-.436c-.029-.078-.067-.155-.1-.233a14.235,14.235,0,0,0-2.221-3.675,12.147,12.147,0,0,0-1.542-1.367c-.272-.2-.921-.63-1.28-.562s-.078.427-.359.582c-.572.32-1.135-.32-1.474-.659s-.863-.95-1.358-.853c-.31.068.081.677-.262.5-2.027-1.02-2.841-2.163-2.87-2.754C142.124,99.413,142.212,103.787,142.212,103.787Z" transform="translate(-142.173 -71.938)" fill="#484848"/>
          <path id="Path_91" data-name="Path 91" d="M146.343,73.02c.571-1.129,2.284-1.606,3.514-1.909a3.078,3.078,0,0,0-.846,2.216c.013.936.088,1.9.044,2.847a1.767,1.767,0,0,1-.689,1.394,6.537,6.537,0,0,1-1.067.563,10.276,10.276,0,0,1-.953.462c-.682.246-1.406.5-1.437,1.316a9.515,9.515,0,0,1-2.69-2.195c0-.605.021-.96.042-1.482.017-.238.162-.732.568-.611-.018.025-.317.611.173.651.326.054.634-1.063.705-1.231a2.16,2.16,0,0,1,.69-.955c.1-.065.409-.228.541-.155.112.062.087.254.164.36a.523.523,0,0,0,.369.184C146.436,74.652,145.847,73.858,146.343,73.02Z" transform="translate(-142.174 -71.111)" fill="#484848"/>
        </g>
        <path id="Path_92" data-name="Path 92" d="M149.71,73.552a3.226,3.226,0,0,1,1.824-2.794,2.553,2.553,0,0,1-.037,1.012,10.359,10.359,0,0,0,.109,1.466c0,.426-.325.645-.516.987a2.978,2.978,0,0,0-.323,1.19,2.744,2.744,0,0,0,.067.943,3.521,3.521,0,0,1,.251.726,3.135,3.135,0,0,1-.255,1.055,5.716,5.716,0,0,0-.044,1.075c-.015.3-.17.465-.2,1.007a1.217,1.217,0,0,1-.073.377c-.033.1-.111.284-.27.211-.209-.1-.144-.9-.152-1.084-.046-1.1-.026-2.2-.1-3.291-.033-.525-.021-1.032-.1-1.552a3.6,3.6,0,0,1-.078-.769" transform="translate(-142.4 -70.758)" fill="#484848"/>
      </g>
    </g>
  </g>
</svg>
